<?xml version="1.0" encoding="UTF-8" standalone="no"?>
<svg
   xmlns:dc="http://purl.org/dc/elements/1.1/"
   xmlns:cc="http://creativecommons.org/ns#"
   xmlns:rdf="http://www.w3.org/1999/02/22-rdf-syntax-ns#"
   xmlns:svg="http://www.w3.org/2000/svg"
   xmlns="http://www.w3.org/2000/svg"
   viewBox="0 0 7559.0532 1700.7867"
   height="1700.7867"
   width="7559.0532"
   xml:space="preserve"
   id="svg2"
   version="1.1"><metadata
     id="metadata8"><rdf:RDF><cc:Work
         rdf:about=""><dc:format>image/svg+xml</dc:format><dc:type
           rdf:resource="http://purl.org/dc/dcmitype/StillImage" /></cc:Work></rdf:RDF></metadata><defs
     id="defs6"><clipPath
       id="clipPath18"
       clipPathUnits="userSpaceOnUse"><path
         id="path16"
         d="M 0,1275.59 H 5669.29 V 0 H 0 Z" /></clipPath></defs><g
     transform="matrix(1.3333333,0,0,-1.3333333,0,1700.7867)"
     id="g10"><g
       id="g12"><g
         clip-path="url(#clipPath18)"
         id="g14"><g
           transform="translate(2870.4241,434.7042)"
           id="g20"><path
             id="path22"
             style="fill:#045a63;fill-opacity:1;fill-rule:nonzero;stroke:none"
             d="m 0,0 h -23.849 c -3.428,0 -6.108,-2.039 -6.8,-5.139 -14.551,-58.089 -47.407,-199.499 -55.447,-240.196 -0.364,-1.968 0.077,-3.828 1.26,-5.25 1.239,-1.494 3.155,-2.296 5.377,-2.296 h 15.918 c 3.7,0 6.508,2.37 6.945,5.686 2.061,10.904 6.639,32.128 13.311,61.664 h 62.537 c 6.419,-28.588 11.121,-50.432 13.237,-61.48 0.475,-3.5 3.264,-5.87 6.945,-5.87 H 55.39 c 2.188,0 4.082,0.802 5.32,2.26 1.189,1.422 1.663,3.244 1.316,5.286 C 53.911,-203.764 20.783,-60.602 6.818,-5.213 6.104,-2.039 3.428,0 0,0 m 14.529,-159.385 h -53 c 9.099,39.819 19.599,84.671 26.525,113.733 6.767,-28.259 17.14,-72.638 26.475,-113.733" /></g><g
           transform="translate(2886.1587,449.6924)"
           id="g24"><path
             id="path26"
             style="fill:#045a63;fill-opacity:1;fill-rule:nonzero;stroke:none"
             d="m 0,0 c 12.688,0 14.073,4.996 14.073,15.608 0,10.721 -1.385,15.754 -14.073,15.754 -12.761,0 -14.096,-4.779 -14.096,-15.754 C -14.096,4.996 -12.71,0 0,0" /></g><g
           transform="translate(2516.7886,207.8601)"
           id="g28"><path
             id="path30"
             style="fill:#045a63;fill-opacity:1;fill-rule:nonzero;stroke:none"
             d="m 0,0 h -82.813 v 91.341 h 72.055 c 4.1,0 6.874,2.629 6.874,6.602 v 12.725 c 0,3.976 -2.774,6.602 -6.874,6.602 h -72.055 v 83.611 h 78.145 c 4.1,0 6.874,2.626 6.874,6.603 v 12.799 c 0,3.973 -2.774,6.599 -6.874,6.599 h -100.717 c -4.104,0 -6.873,-2.626 -6.873,-6.599 V -19.402 c 0,-3.973 2.769,-6.597 6.873,-6.597 H 0 c 4.1,0 6.875,2.624 6.875,6.597 V -6.601 C 6.875,-2.629 4.1,0 0,0" /></g><g
           transform="translate(3129.616,434.7418)"
           id="g32"><path
             id="path34"
             style="fill:#045a63;fill-opacity:1;fill-rule:nonzero;stroke:none"
             d="m 0,0 h -15.772 c -4.1,0 -6.875,-2.625 -6.875,-6.599 v -177.585 c 0,-18.998 -4.082,-31.178 -12.908,-38.396 -5.687,-4.813 -14.769,-7.367 -26.216,-7.367 -10.941,0 -20.258,2.59 -26.222,7.259 -8.931,6.888 -12.907,18.778 -12.907,38.504 V -6.599 c 0,3.974 -2.771,6.599 -6.874,6.599 h -15.751 c -4.103,0 -6.874,-2.625 -6.874,-6.599 v -177.585 c 0,-22.28 2.879,-46.929 24.14,-60.897 11.195,-7.438 26.564,-11.375 44.488,-11.375 17.974,0 33.418,3.974 44.633,11.524 21.148,13.929 24.013,38.542 24.013,60.748 V -6.599 C 6.875,-2.625 4.1,0 0,0" /></g><g
           transform="translate(2321.6836,320.9363)"
           id="g36"><path
             id="path38"
             style="fill:#045a63;fill-opacity:1;fill-rule:nonzero;stroke:none"
             d="m 0,0 h -61.917 c -4.104,0 -6.856,-2.625 -6.856,-6.601 v -11.852 c 0,-3.973 2.752,-6.635 6.856,-6.635 h 41.605 v -84.269 c 0,-4.268 -10.613,-7.367 -25.236,-7.367 -9.791,0 -18.195,1.968 -24.85,5.762 -19.562,11.888 -28.295,42.189 -28.295,98.345 0,73.878 15.843,104.033 54.714,104.033 11.359,0 21.571,-1.24 30.539,-3.719 2.153,-0.474 4.177,-0.072 5.691,1.023 1.439,1.056 2.317,2.77 2.462,4.702 l 1.057,12.142 c 0.309,3.72 -1.733,6.528 -5.198,7.292 -10.172,2.737 -24.742,4.489 -37.139,4.489 -48.972,0 -81.591,-22.098 -81.591,-129.962 0,-67.824 12.18,-105.201 39.564,-121.246 10.632,-5.944 23.869,-8.787 40.497,-8.787 45.434,0 54.972,15.168 54.972,27.931 V -6.601 C 6.875,-2.625 4.1,0 0,0" /></g><g
           transform="translate(2830.9668,449.6924)"
           id="g40"><path
             id="path42"
             style="fill:#045a63;fill-opacity:1;fill-rule:nonzero;stroke:none"
             d="m 0,0 c 12.692,0 14.077,4.996 14.077,15.608 0,10.721 -1.385,15.754 -14.077,15.754 -12.744,0 -14.073,-4.779 -14.073,-15.754 C -14.073,4.996 -12.687,0 0,0" /></g><g
           transform="translate(2691.2703,315.2831)"
           id="g44"><path
             id="path46"
             style="fill:#045a63;fill-opacity:1;fill-rule:nonzero;stroke:none"
             d="m 0,0 c 15.096,10.101 21.915,27.714 21.915,55.973 0,45.106 -19.524,63.486 -67.387,63.486 h -50.667 c -4.029,0 -6.838,-2.696 -6.838,-6.599 v -239.685 c 0,-3.902 2.809,-6.635 6.838,-6.635 h 53.056 c 52.855,0 73.441,20.164 73.441,71.909 C 30.358,-28.113 21.079,-9.226 0,0 m -73.511,-15.241 27.329,0.29 c 35.481,0 47.459,-11.522 47.459,-45.544 0,-33.986 -12.142,-46.637 -44.777,-46.637 h -30.011 z m 26.837,25.599 h -26.837 v 83.904 h 27.438 c 29.375,0 39.275,-10.612 39.275,-41.934 0,-31.361 -10.064,-41.97 -39.876,-41.97" /></g><g
           transform="translate(4536.1523,434.7418)"
           id="g48"><path
             id="path50"
             style="fill:#045a63;fill-opacity:1;fill-rule:nonzero;stroke:none"
             d="m 0,0 h -15.788 c -4.122,0 -6.784,-2.588 -6.784,-6.599 l 0.586,-181.704 -76.102,183.781 C -99.328,-1.64 -101.882,0 -105.089,0 h -17.942 c -4.086,0 -6.819,-2.625 -6.819,-6.599 v -239.684 c 0,-3.974 2.733,-6.636 6.819,-6.636 h 15.791 c 4.118,0 6.781,2.588 6.781,6.636 l -0.546,179.262 75.991,-181.522 c 1.347,-2.845 3.83,-4.376 6.964,-4.376 H 0 c 4.085,0 6.822,2.662 6.822,6.636 V -6.599 C 6.822,-2.625 4.085,0 0,0" /></g><g
           transform="translate(4646.1299,434.7418)"
           id="g52"><path
             id="path54"
             style="fill:#045a63;fill-opacity:1;fill-rule:nonzero;stroke:none"
             d="m 0,0 h -15.788 c -4.085,0 -6.818,-2.625 -6.818,-6.599 v -239.684 c 0,-3.974 2.733,-6.636 6.818,-6.636 H 0 c 4.085,0 6.822,2.662 6.822,6.636 V -6.599 C 6.822,-2.625 4.085,0 0,0" /></g><g
           transform="translate(4311.313,434.7418)"
           id="g56"><path
             id="path58"
             style="fill:#045a63;fill-opacity:1;fill-rule:nonzero;stroke:none"
             d="m 0,0 h -15.753 c -4.123,0 -6.856,-2.625 -6.856,-6.599 V -111.728 H -92.405 V -6.599 c 0,3.974 -2.733,6.599 -6.855,6.599 h -15.75 c -4.123,0 -6.856,-2.625 -6.856,-6.599 v -239.684 c 0,-3.974 2.733,-6.636 6.856,-6.636 h 15.75 c 4.122,0 6.855,2.662 6.855,6.636 v 108.484 h 69.796 v -108.484 c 0,-3.974 2.733,-6.636 6.856,-6.636 H 0 c 4.119,0 6.853,2.662 6.853,6.636 V -6.599 C 6.853,-2.625 4.119,0 0,0" /></g><g
           transform="translate(4793.8877,309.2311)"
           id="g60"><path
             id="path62"
             style="fill:#045a63;fill-opacity:1;fill-rule:nonzero;stroke:none"
             d="m 0,0 c 18.158,29.535 45.472,79.567 64.504,116.067 1.095,2.151 1.095,4.484 -0.071,6.344 -1.205,1.97 -3.394,3.1 -6.052,3.1 H 42.665 c -2.884,0 -5.288,-1.424 -6.528,-3.903 C 16.19,82.775 -8.025,38.505 -23.267,12.871 H -29.1 v 106.041 c 0,3.973 -2.736,6.599 -6.854,6.599 h -15.717 c -4.122,0 -6.856,-2.626 -6.856,-6.599 v -239.685 c 0,-3.973 2.734,-6.635 6.856,-6.635 h 15.717 c 4.118,0 6.854,2.662 6.854,6.635 v 105.677 h 6.382 c 16.228,-26.546 41.933,-71.873 61.368,-108.302 1.206,-2.55 3.612,-4.01 6.565,-4.01 h 16.373 c 2.588,0 4.776,1.094 5.978,2.99 1.169,1.86 1.244,4.119 0.113,6.416 C 47.149,-79.749 18.05,-28.991 0,0" /></g><g
           transform="translate(4114.2925,207.0909)"
           id="g64"><path
             id="path66"
             style="fill:#045a63;fill-opacity:1;fill-rule:nonzero;stroke:none"
             d="m 0,0 c -1.459,1.132 -3.465,1.422 -5.615,0.986 -10.866,-2.552 -21.042,-3.864 -30.194,-3.864 -39.636,0 -54.37,28.223 -54.37,104.107 0,74.679 14.405,103.778 51.342,103.778 9.118,0 17.613,-0.985 26.549,-2.99 1.968,-0.547 4.048,-0.221 5.616,0.84 1.494,1.056 2.442,2.77 2.625,4.847 l 1.056,12.143 c 0.291,3.756 -1.821,6.526 -5.395,7.258 -11.307,2.662 -19.91,4.085 -32.964,4.085 -46.97,0 -78.253,-22.097 -78.253,-129.961 0,-108.301 31.067,-130.034 81.24,-130.034 15.243,0 26.112,2.222 36.795,4.703 3.499,0.802 5.47,3.539 5.179,7.183 L 2.55,-4.813 C 2.404,-2.804 1.494,-1.094 0,0" /></g><g
           transform="translate(3732.0508,434.7418)"
           id="g68"><path
             id="path70"
             style="fill:#045a63;fill-opacity:1;fill-rule:nonzero;stroke:none"
             d="m 0,0 h -111.729 c -4.084,0 -6.817,-2.625 -6.817,-6.599 V -19.69 c 0,-3.976 2.733,-6.639 6.817,-6.639 h 41.115 v -219.954 c 0,-3.974 2.771,-6.636 6.871,-6.636 h 15.754 c 4.103,0 6.874,2.662 6.874,6.636 V -26.329 H 0 c 4.048,0 6.871,2.737 6.871,6.639 V -6.599 C 6.871,-2.625 4.1,0 0,0" /></g><g
           transform="translate(3275.7122,434.7418)"
           id="g72"><path
             id="path74"
             style="fill:#045a63;fill-opacity:1;fill-rule:nonzero;stroke:none"
             d="m 0,0 h -50.558 c -4.104,0 -6.857,-2.625 -6.857,-6.599 v -239.756 c 0,-3.939 2.753,-6.564 6.857,-6.564 H 0 c 25.907,0 42.698,5.724 54.478,18.633 15.643,17.248 22.334,49.412 22.334,107.536 0,58.816 -7.021,91.452 -23.483,109.135 C 41.881,-5.433 25.414,0 0,0 m 47.915,-126.75 c 0,-49.813 -4.615,-76.469 -15.444,-89.157 -6.762,-7.875 -16.154,-11.124 -32.419,-11.124 H -28.296 V -25.889 H 0.052 c 16.209,0 25.783,-3.211 32.071,-10.719 11.068,-13.059 15.792,-40.003 15.792,-90.142" /></g><g
           transform="translate(3541.8494,207.8601)"
           id="g76"><path
             id="path78"
             style="fill:#045a63;fill-opacity:1;fill-rule:nonzero;stroke:none"
             d="m 0,0 h -82.829 v 91.341 h 72.071 c 4.085,0 6.837,2.629 6.837,6.602 v 12.725 c 0,3.976 -2.752,6.602 -6.837,6.602 h -72.071 v 83.611 h 78.16 c 4.086,0 6.819,2.626 6.819,6.603 v 12.799 c 0,3.973 -2.733,6.599 -6.819,6.599 h -100.75 c -4.085,0 -6.837,-2.626 -6.837,-6.599 V -19.402 c 0,-3.973 2.752,-6.597 6.837,-6.597 H 0 c 4.084,0 6.818,2.624 6.818,6.597 V -6.601 C 6.818,-2.629 4.084,0 0,0" /></g><g
           transform="translate(3922.2683,207.8601)"
           id="g80"><path
             id="path82"
             style="fill:#045a63;fill-opacity:1;fill-rule:nonzero;stroke:none"
             d="m 0,0 h -82.847 v 91.341 h 72.052 c 4.122,0 6.856,2.629 6.856,6.602 v 12.725 c 0,3.976 -2.734,6.602 -6.856,6.602 h -72.052 v 83.611 h 78.18 c 4.085,0 6.817,2.626 6.817,6.603 v 12.799 c 0,3.973 -2.732,6.599 -6.817,6.599 h -100.751 c -4.085,0 -6.837,-2.626 -6.837,-6.599 V -19.402 c 0,-3.973 2.752,-6.597 6.837,-6.597 H 0 c 4.085,0 6.818,2.624 6.818,6.597 V -6.601 C 6.818,-2.629 4.085,0 0,0" /></g><g
           transform="translate(4947.4033,612.3972)"
           id="g84"><path
             id="path86"
             style="fill:#045a63;fill-opacity:1;fill-rule:nonzero;stroke:none"
             d="m 0,0 h 96.998 c 8.86,0 13.2,4.123 12.98,13.673 l -5.504,213.724 c -0.076,2.733 2.77,4.118 4.118,0.69 L 193.302,10.941 C 195.927,4.085 201.467,0 209.018,0 h 88.753 c 8.861,0 13.64,4.779 13.64,13.673 v 450.672 c 0,8.897 -4.779,13.674 -13.64,13.674 h -96.994 c -8.861,0 -13.204,-4.085 -12.945,-13.674 l 5.47,-211.679 c 0.07,-2.734 -2.808,-4.12 -4.123,-0.692 l -80.587,215.105 c -2.334,6.235 -8.166,10.832 -13.674,10.832 l -129.704,0.071 c -8.898,0 -13.673,-4.776 -13.673,-13.637 v -57.212 c 0,-8.315 4.047,-13.237 12.213,-14.844 l 19.581,-3.826 c 2.042,-0.403 3.062,-1.606 3.062,-3.724 V 13.673 C -13.603,4.779 -8.823,0 0.037,0 Z m -450.047,0 h 96.96 c 8.895,0 13.233,4.123 12.98,13.673 l -5.471,213.724 c -0.07,2.733 2.771,4.118 4.123,0.69 L -256.82,10.941 C -254.125,4.085 -248.58,0 -241.104,0 h 88.753 c 8.898,0 13.674,4.779 13.674,13.673 v 450.672 c 0,8.897 -4.776,13.674 -13.674,13.674 h -96.923 c -8.898,0 -13.237,-4.085 -12.98,-13.674 l 5.434,-211.679 c 0.07,-2.734 -2.809,-4.12 -4.048,-0.692 l -80.587,215.105 c -2.372,6.235 -8.208,10.832 -13.674,10.832 l -129.742,0.071 c -8.898,0 -13.677,-4.776 -13.677,-13.637 v -57.212 c 0,-8.315 4.047,-13.237 12.217,-14.844 l 19.544,-3.826 c 2.08,-0.403 3.066,-1.606 3.066,-3.724 V 13.673 C -463.721,4.779 -458.946,0 -450.047,0 M -706.98,185.719 h -40.219 c -2.225,-0.038 -3.54,0.765 -3.282,3.062 7.364,69.612 15.533,123.433 21.916,197.673 0,0.694 4.118,0.694 4.118,0 6.381,-74.277 12.691,-128.573 20.858,-195.922 0.403,-3.575 -1.348,-4.813 -3.391,-4.851 z M -880.188,0 h 96.415 c 7.658,0 13.345,5.361 13.927,12.984 2.006,24.868 4.56,51.379 7.585,78.947 0.182,1.748 1.533,2.988 3.393,2.988 h 62.974 c 1.822,0 3.17,-1.24 3.353,-3.025 2.808,-27.531 5.288,-54.042 7.259,-78.91 C -684.699,5.361 -679.012,0 -671.316,0 h 96.594 c 8.57,0 14.697,6.273 13.857,14.624 -9.115,90.178 -40.513,305.54 -69.904,452.857 -1.277,6.383 -6.381,10.501 -12.871,10.501 h -214.01 c -8.861,0 -13.641,-4.776 -13.641,-13.637 v -57.212 c 0,-8.315 4.048,-13.237 12.218,-14.844 l 18.778,-3.719 c 2.188,-0.436 3.137,-1.787 2.733,-4.009 C -862.064,247.015 -885.984,88.354 -894.046,14.806 -894.99,6.348 -888.829,0 -880.151,0 Z m -490.432,0 h 96.958 c 8.898,0 13.293,4.123 12.964,13.673 l -6.837,225.355 c 0,2.701 2.099,4.085 3.319,0.62 l 43.812,-125.623 c 2.426,-6.927 8.204,-10.899 15.716,-10.899 h 42.336 c 7.513,0 13.293,3.972 15.698,10.899 l 44.505,128.394 c 1.203,3.465 4.01,2.042 3.977,-0.69 l -4.78,-228.056 C -1103.168,4.779 -1098.172,0 -1089.311,0 h 93.566 c 8.898,0 13.674,4.779 13.674,13.673 v 450.672 c 0,8.897 -4.776,13.674 -13.674,13.674 h -95.575 c -7.547,0 -13.088,-3.358 -15.717,-10.94 l -74.239,-212.405 c -0.896,-2.662 -3.591,-2.662 -4.667,0.619 l -69.979,211.786 c -2.677,8.24 -7.509,10.94 -15.003,10.94 h -135.212 c -8.88,0 -13.674,-4.777 -13.674,-13.674 v -57.179 c 0,-8.348 4.048,-13.27 12.214,-14.877 l 20.238,-3.826 c 2.061,-0.403 3.065,-1.606 3.065,-3.724 V 13.673 c 0,-8.894 4.777,-13.673 13.674,-13.673 m -297.827,236.986 c -2.06,0 -3.408,1.351 -3.408,3.428 V 385.18 c 0,2.043 1.348,3.429 3.408,3.429 h 7.495 c 37.686,0 47.802,-7.551 47.802,-76.507 0,-68.261 -12.288,-75.116 -47.802,-75.116 z m 161.156,-243.804 c 6.272,0 16.392,0.62 25.088,2.554 7.731,1.751 11.087,7.329 11.087,15.279 v 57.649 c 0,8.717 -4.614,12.946 -13.331,14.257 -3.883,0.586 -7.347,1.568 -10.556,2.883 -16.171,6.818 -24.431,22.68 -33.382,41.022 l -16.208,33.292 c -0.968,1.971 -0.457,3.503 1.455,4.597 41.044,22.426 54.296,58.342 54.296,147.387 0,135.907 -33.453,165.917 -173.478,165.917 h -155.013 c -8.879,0 -13.654,-4.777 -13.654,-13.674 v -57.179 c 0,-8.348 4.062,-13.27 12.214,-14.877 l 19.562,-3.793 c 2.042,-0.436 3.065,-1.601 3.065,-3.719 V 13.673 c 0,-8.861 4.776,-13.635 13.655,-13.635 h 96.98 c 8.88,0 13.656,4.774 13.656,13.635 v 129.746 c 0,2.077 1.348,3.391 3.408,3.391 h 13.181 c 1.935,0 3.173,-0.803 3.921,-2.592 l 38.162,-92.984 c 20.054,-48.789 52.6,-58.052 105.855,-58.052 z m -402.516,96.96 h -112.694 c -2.024,0 -3.413,1.386 -3.413,3.391 v 96.304 c 0,2.042 1.389,3.428 3.413,3.428 h 77.178 c 8.877,0 13.656,4.775 13.656,13.64 v 62.829 c 0,8.897 -4.779,13.673 -13.656,13.673 h -77.178 c -2.024,0 -3.413,1.348 -3.413,3.391 v 98.27 c 0,2.043 1.389,3.428 3.413,3.428 h 108.574 c 8.899,0 13.673,4.779 13.673,13.604 v 62.245 c 0,8.897 -4.774,13.674 -13.673,13.674 h -256.75 c -8.879,0 -13.655,-4.777 -13.655,-13.674 v -57.179 c 0,-8.348 4.029,-13.27 12.196,-14.877 l 18.908,-3.719 c 2.005,-0.436 3.062,-1.642 3.062,-3.718 V 13.673 c 0,-8.894 4.777,-13.673 13.622,-13.673 h 226.737 c 8.878,0 13.653,4.779 13.653,13.673 v 62.795 c 0,8.898 -4.775,13.674 -13.653,13.674 M -2425.111,0 h 96.979 c 8.88,0 13.655,4.779 13.655,13.673 v 368.733 c 0,2.042 1.353,3.249 3.41,3.427 l 73.078,6.823 c 8.805,0.837 13.654,4.775 13.654,13.636 v 58.053 c 0,8.897 -4.774,13.674 -13.654,13.674 h -271.137 c -8.842,0 -13.617,-4.777 -13.617,-13.674 v -58.053 c 0,-8.861 4.813,-12.724 13.617,-13.636 l 66.951,-6.823 c 2.023,-0.215 3.409,-1.385 3.409,-3.427 V 13.673 c 0,-8.894 4.775,-13.673 13.655,-13.673 m -277.388,-6.818 c 82.631,0 148.868,35.081 148.868,123.105 0,57.396 -27.292,96.779 -73.075,142.506 -49.774,49.811 -60.752,78.91 -60.752,96.668 0,33.109 32.785,35.843 51.197,35.843 10.264,0 23.23,-2.076 36.176,-4.922 8.897,-1.934 15.059,2.846 15.918,11.741 l 5.959,62.137 c 0.675,8.898 -2.715,13.674 -10.937,15.716 -24.562,5.433 -50.525,8.171 -76.469,8.899 -92.199,1.348 -146.552,-40.148 -147.5,-126.388 -0.583,-53.677 18.416,-96.961 70.323,-148.849 46.439,-46.422 60.113,-55.972 60.113,-83.432 0,-38.106 -35.519,-42.224 -58.729,-42.224 -20.51,0 -38.25,2.77 -53.291,6.198 -8.844,2.005 -15.006,-2.77 -15.863,-11.598 l -5.98,-60.127 c -0.857,-8.899 2.771,-14.332 10.939,-15.718 30.067,-6.127 68.299,-9.555 103.141,-9.555 z m -196.033,96.96 h -112.695 c -2.023,0 -3.409,1.386 -3.409,3.391 v 96.304 c 0,2.042 1.386,3.428 3.409,3.428 h 77.178 c 8.879,0 13.656,4.775 13.656,13.64 v 62.829 c 0,8.897 -4.777,13.673 -13.656,13.673 h -77.178 c -2.023,0 -3.409,1.348 -3.409,3.391 v 98.27 c 0,2.043 1.386,3.428 3.409,3.428 h 108.574 c 8.898,0 13.674,4.779 13.674,13.604 v 62.245 c 0,8.897 -4.776,13.674 -13.674,13.674 h -256.748 c -8.88,0 -13.657,-4.777 -13.657,-13.674 v -57.179 c 0,-8.348 4.03,-13.27 12.198,-14.877 l 18.907,-3.719 c 2.042,-0.436 3.063,-1.642 3.063,-3.718 V 13.673 c 0,-8.894 4.777,-13.673 13.619,-13.673 h 226.739 c 8.879,0 13.656,4.779 13.656,13.673 v 62.795 c 0,8.898 -4.777,13.674 -13.656,13.674" /></g><g
           transform="translate(689.9962,530.3893)"
           id="g88"><path
             id="path90"
             style="fill:#045a63;fill-opacity:1;fill-rule:nonzero;stroke:none"
             d="m 0,0 c 19.636,-32.051 41.889,-64.422 63.56,-85.806 32.033,-31.639 81.863,-66.029 122.169,-50.614 31.553,8.552 86.745,26.116 139.725,47.786 62.325,25.491 134.428,66.397 156.212,74.349 -3.063,-8.23 -35.547,-75.348 -61.298,-110.861 -55.852,-76.956 -145.407,-162.962 -215.36,-209.104 -82.012,-54.042 -85.649,-55.487 -161.927,-1.53 -211.306,149.468 -339.121,355.155 -389.919,608.609 -7.306,36.426 -12.509,73.425 -16.145,110.416 -4.717,48.127 15.701,82.691 59.939,104.248 93.453,45.552 190.176,75.67 293.963,92.382 46.716,7.534 83.29,10.848 128.814,10.422 96.958,-0.895 201.058,-18.695 295.032,-48.448 48.979,-15.503 95.557,-38.931 142.64,-59.967 31.754,-14.206 51.728,-41.837 49.691,-74.851 -3.495,-56.87 -6.784,-115.933 -25.141,-168.887 -10.788,-31.128 -46.89,-63.194 -77.81,-81.838 C 362.551,70.972 93.505,0 -4.985,0 m 405.309,342.479 c -50.233,50.223 -343.968,53.504 -495.263,12.815 -24.855,-6.681 -37.13,-22.916 -31.988,-51.407 10.23,-56.391 23.75,-91.903 61.95,-92.555 155.01,-2.715 362.749,31.128 464.692,130.974" /></g></g></g></g></svg>