<?xml version="1.0" encoding="UTF-8" standalone="no"?>
<svg
   xmlns:dc="http://purl.org/dc/elements/1.1/"
   xmlns:cc="http://creativecommons.org/ns#"
   xmlns:rdf="http://www.w3.org/1999/02/22-rdf-syntax-ns#"
   xmlns:svg="http://www.w3.org/2000/svg"
   xmlns="http://www.w3.org/2000/svg"
   viewBox="0 0 7559.0532 1700.7867"
   height="1700.7867"
   width="7559.0532"
   xml:space="preserve"
   id="svg2"
   version="1.1"><metadata
     id="metadata8"><rdf:RDF><cc:Work
         rdf:about=""><dc:format>image/svg+xml</dc:format><dc:type
           rdf:resource="http://purl.org/dc/dcmitype/StillImage" /></cc:Work></rdf:RDF></metadata><defs
     id="defs6"><clipPath
       id="clipPath22"
       clipPathUnits="userSpaceOnUse"><path
         id="path20"
         d="M 1005.048,104.516 H 4664.694 V 1171.075 H 1005.048 Z" /></clipPath><clipPath
       id="clipPath38"
       clipPathUnits="userSpaceOnUse"><path
         id="path36"
         d="M 0,1275.59 H 5669.29 V 0 H 0 Z" /></clipPath></defs><g
     transform="matrix(1.3333333,0,0,-1.3333333,0,1700.7867)"
     id="g10"><g
       transform="translate(2059.4902,1142.0231)"
       id="g12"><path
         id="path14"
         style="fill:#231f20;fill-opacity:1;fill-rule:nonzero;stroke:none"
         d="M 0,0 H 224.407 V -435.341 L 638.242,0 H 901.363 L 493.104,-428.997 928.22,-1020.019 H 662.157 L 342.613,-585.783 224.407,-711.171 v -308.848 H 0 Z" /></g><g
       id="g16"><g
         clip-path="url(#clipPath22)"
         id="g18"><g
           transform="translate(1535.0062,311.4388)"
           id="g24"><path
             id="path26"
             style="fill:#231f20;fill-opacity:1;fill-rule:nonzero;stroke:none"
             d="m 0,0 c -174.858,0 -306.355,145.713 -306.355,320.579 v 11.555 c 0,174.867 131.497,320.582 306.355,320.582 116.508,0 187.899,-46.578 267.989,-119.373 L 389.754,699.348 C 290.098,798.693 184.227,859.636 0.628,859.636 -299.548,859.636 -530.41,627.942 -530.41,335.05 v -17.387 c 0,-292.89 230.862,-524.586 531.038,-524.586 183.599,0 289.47,60.943 389.126,160.29 L 267.989,119.372 C 187.899,46.577 116.508,0 0,0" /></g></g></g><g
       transform="translate(4237.9648,1142.6384)"
       id="g28"><path
         id="path30"
         style="fill:#231f20;fill-opacity:1;fill-rule:nonzero;stroke:none"
         d="M 0,0 -229.532,-711.361 -453.39,-0.617 h -155.289 l -225.367,-709.868 -229.002,710.045 -225.521,-0.175 331.005,-1019.673 h 226.605 l 198.732,635.744 202.246,-635.744 h 226.078 L 226.752,0 Z" /></g><g
       id="g32"><g
         clip-path="url(#clipPath38)"
         id="g34"><g
           transform="translate(4531.3745,104.516)"
           id="g40"><path
             id="path42"
             style="fill:#a6d71c;fill-opacity:1;fill-rule:nonzero;stroke:none"
             d="m 0,0 c 73.656,0 133.319,59.697 133.319,133.301 0,73.645 -59.663,133.341 -133.319,133.341 -73.653,0 -133.319,-59.696 -133.319,-133.341 C -133.319,59.697 -73.653,0 0,0" /></g></g></g></g></svg>