<?xml version="1.0" standalone="no"?>
<!DOCTYPE svg PUBLIC "-//W3C//DTD SVG 20010904//EN"
 "http://www.w3.org/TR/2001/REC-SVG-20010904/DTD/svg10.dtd">
<svg version="1.0" xmlns="http://www.w3.org/2000/svg"
 width="640.000000pt" height="428.000000pt" viewBox="0 0 640.000000 428.000000"
 preserveAspectRatio="xMidYMid meet">

<g transform="translate(0.000000,428.000000) scale(0.100000,-0.100000)"
fill="#000000" stroke="none">
<path d="M3005 4063 c-14 -13 -15 -25 -8 -62 4 -25 8 -111 7 -191 -1 -124 -5
-160 -27 -245 -32 -119 -111 -283 -166 -345 -45 -50 -51 -78 -21 -105 28 -25
58 -10 109 54 79 101 128 207 178 386 44 162 42 464 -4 510 -19 20 -48 19 -68
-2z"/>
<path d="M2709 3922 c-22 -18 -22 -21 -9 -81 19 -89 9 -200 -26 -281 -42 -101
-138 -238 -306 -440 -245 -295 -329 -412 -414 -581 -80 -160 -133 -350 -134
-479 0 -44 -4 -59 -21 -74 -20 -17 -21 -24 -15 -105 4 -47 14 -117 22 -156 19
-93 20 -90 -25 -104 -87 -26 -131 -120 -131 -282 l0 -97 -52 -45 c-57 -48 -89
-67 -111 -67 -35 0 -50 90 -71 415 -17 249 -35 333 -86 384 -33 33 -95 48
-153 37 -51 -9 -122 -59 -162 -113 -46 -62 -151 -277 -205 -419 l-43 -112 -50
-6 c-65 -9 -87 -21 -87 -49 0 -32 18 -47 58 -47 l34 0 -37 -67 c-56 -101 -85
-134 -141 -159 -55 -24 -73 -54 -47 -79 19 -20 49 -19 98 4 71 33 153 138 213
274 23 53 1 46 266 82 98 14 185 30 192 36 17 14 18 41 2 57 -17 17 -76 15
-224 -8 -195 -30 -183 -44 -114 124 97 237 142 316 212 367 49 35 98 38 126 9
37 -40 39 -55 72 -495 17 -227 39 -287 117 -314 37 -13 45 -13 87 3 26 10 67
36 92 57 25 21 47 39 50 39 3 0 21 -18 42 -39 96 -100 223 -75 403 80 31 27
61 49 66 49 5 0 14 -10 20 -23 19 -40 94 -117 141 -145 66 -38 151 -38 209 0
l41 27 63 -26 c55 -22 74 -25 139 -20 127 9 187 46 242 150 20 37 23 60 26
189 4 144 4 147 24 137 35 -19 110 -16 140 6 59 45 75 108 32 127 -25 11 -29
10 -58 -25 -36 -43 -47 -45 -101 -12 -48 30 -78 32 -105 5 -18 -18 -20 -33
-19 -177 1 -119 -2 -167 -13 -193 -16 -38 -76 -96 -115 -111 -37 -14 -119 -11
-158 6 l-35 14 40 67 c60 98 81 158 87 249 5 72 3 83 -19 115 -13 19 -40 43
-61 54 -36 17 -41 17 -82 2 -78 -30 -120 -110 -130 -244 -6 -74 1 -113 41
-232 6 -19 -44 -50 -81 -50 -57 0 -132 65 -183 159 l-30 53 29 64 c16 35 41
107 56 161 23 85 27 117 27 250 1 139 -1 154 -20 180 -17 22 -30 29 -66 31
-38 3 -52 -2 -88 -30 -55 -43 -87 -104 -102 -201 -14 -96 -1 -230 37 -361 24
-84 25 -90 9 -114 -28 -43 -98 -106 -156 -140 -104 -62 -171 -53 -210 27 -20
39 -23 62 -23 151 0 87 3 111 20 138 38 63 89 48 120 -35 10 -26 35 -83 57
-125 44 -89 65 -98 112 -49 l28 29 -50 129 c-51 129 -85 238 -96 303 -56 342
10 626 217 930 69 102 193 260 321 410 179 211 286 381 322 515 30 109 8 301
-36 325 -24 13 -24 13 -51 -8z m-431 -2078 c2 -49 -2 -118 -8 -154 -14 -83
-51 -210 -61 -210 -16 0 -34 120 -34 230 1 121 11 161 56 209 34 37 44 22 47
-75z m434 -314 c4 -19 2 -55 -4 -80 -12 -50 -78 -190 -89 -190 -22 0 -35 134
-20 198 19 75 46 114 78 110 22 -2 29 -10 35 -38z"/>
<path d="M3180 3688 c-5 -13 -14 -57 -20 -98 -26 -181 -99 -350 -205 -471 -36
-41 -65 -81 -65 -90 0 -21 32 -49 56 -49 45 0 171 165 232 306 61 139 109 377
82 409 -20 24 -69 19 -80 -7z"/>
<path d="M270 3185 l0 -185 58 0 c34 0 71 7 92 18 67 33 76 108 18 157 -28 24
-29 27 -14 44 9 10 16 33 16 52 -1 58 -31 82 -117 93 l-53 7 0 -186z m108 129
c48 -34 17 -114 -45 -114 -22 0 -23 4 -23 65 0 61 1 65 23 65 12 0 33 -7 45
-16z m39 -167 c21 -20 20 -63 -2 -87 -13 -14 -31 -20 -62 -20 l-43 0 0 66 0
67 46 -6 c25 -2 53 -12 61 -20z"/>
<path d="M535 3362 c-3 -3 -5 -86 -5 -184 0 -171 1 -178 20 -178 19 0 20 7 20
183 0 157 -2 184 -15 184 -8 0 -17 -3 -20 -5z"/>
<path d="M700 3363 c-49 -18 -70 -74 -46 -121 10 -20 36 -39 80 -60 51 -24 67
-37 72 -58 9 -35 -13 -76 -48 -88 -31 -11 -77 14 -85 45 -6 23 -31 25 -39 4
-9 -22 22 -63 60 -81 26 -13 40 -14 73 -5 56 15 83 51 83 108 0 37 -5 50 -29
72 -16 15 -48 33 -71 41 -23 8 -49 24 -57 37 -14 21 -14 26 1 48 20 30 75 35
101 9 15 -15 18 -15 32 -2 33 33 -67 73 -127 51z"/>
<path d="M877 3364 c-20 -20 -5 -34 38 -34 l45 0 0 -165 c0 -158 1 -165 20
-165 19 0 20 7 20 165 l0 165 45 0 c37 0 45 3 45 19 0 17 -9 19 -103 20 -56 1
-106 -1 -110 -5z"/>
<path d="M1130 3186 c0 -179 1 -186 20 -186 18 0 20 7 20 74 0 41 4 77 9 81 5
3 36 -31 67 -75 45 -63 63 -80 82 -80 28 0 32 -11 -46 100 -24 33 -39 60 -33
60 21 0 69 51 74 79 9 42 -10 89 -42 106 -15 7 -55 17 -89 21 l-62 7 0 -187z
m142 114 c38 -46 9 -98 -60 -107 l-42 -6 0 73 0 73 42 -6 c27 -4 49 -14 60
-27z"/>
<path d="M1485 3357 c-144 -66 -152 -261 -15 -341 41 -24 132 -26 176 -3 128
66 139 242 21 324 -46 32 -134 41 -182 20z m156 -50 c122 -81 65 -272 -81
-272 -77 0 -139 57 -147 136 -8 87 58 159 147 159 32 0 58 -7 81 -23z"/>
<path d="M2112 1128 c-21 -21 -13 -47 47 -149 78 -132 137 -267 167 -385 37
-147 33 -307 -11 -416 -5 -12 4 -23 31 -42 l38 -26 81 78 c44 43 108 100 143
126 65 52 77 79 46 110 -26 26 -49 19 -119 -39 -37 -30 -71 -55 -75 -55 -4 0
-5 17 -3 38 6 56 -22 226 -56 328 -36 110 -103 251 -171 362 -44 70 -56 82
-79 82 -15 0 -32 -5 -39 -12z"/>
<path d="M3915 826 c-30 -13 -55 -51 -55 -84 0 -30 30 -61 83 -88 67 -34 87
-52 87 -79 0 -36 -37 -75 -71 -75 -28 0 -69 30 -69 50 0 6 -9 10 -20 10 -39 0
-13 -63 37 -89 71 -36 163 18 163 97 0 53 -27 85 -100 118 -62 28 -78 50 -60
84 15 29 58 37 93 17 29 -17 62 -11 49 9 -28 41 -84 53 -137 30z"/>
<path d="M4361 663 c-45 -98 -81 -181 -81 -185 0 -5 9 -8 20 -8 13 0 25 14 39
45 l20 45 86 0 86 0 20 -45 c14 -31 26 -45 39 -45 25 0 25 1 -1 58 -12 26 -48
105 -81 176 -32 72 -60 131 -62 133 -1 2 -40 -77 -85 -174z m122 2 l25 -60
-60 -3 c-33 -2 -62 -1 -64 1 -2 2 10 34 27 72 17 37 34 64 39 59 4 -5 19 -36
33 -69z"/>
<path d="M5370 831 c0 -5 -32 -78 -71 -163 -97 -207 -93 -198 -65 -198 18 0
27 9 40 45 l18 45 88 0 88 0 18 -45 c13 -35 22 -45 40 -45 22 0 22 2 -20 98
-108 241 -136 296 -136 263z m43 -153 c15 -35 27 -66 27 -70 0 -5 -29 -8 -64
-8 l-64 0 31 70 c17 39 33 70 37 70 3 0 18 -28 33 -62z"/>
<path d="M5580 655 l0 -185 25 0 25 0 1 133 0 132 135 -140 134 -139 0 187 c0
179 -1 187 -20 187 -18 0 -20 -8 -22 -136 l-3 -135 -130 139 c-71 77 -133 141
-137 141 -5 1 -8 -82 -8 -184z"/>
<path d="M3340 650 l2 -180 24 0 c23 0 24 2 24 75 0 41 4 75 9 75 6 0 33 -34
62 -75 41 -59 57 -75 76 -75 23 0 24 2 12 20 -8 11 -32 45 -54 76 -31 45 -36
59 -25 62 32 11 70 60 70 92 0 75 -46 110 -147 110 l-54 0 1 -180z m138 124
c15 -10 22 -25 22 -49 0 -41 -29 -65 -77 -65 l-33 0 0 65 0 65 33 0 c18 0 43
-7 55 -16z"/>
<path d="M3610 650 l0 -180 95 0 c77 0 95 3 95 15 0 11 -17 15 -72 17 l-73 3
0 70 0 70 73 3 c63 2 73 5 70 20 -3 14 -16 17 -73 18 l-70 0 -3 52 -3 52 75 0
c69 0 76 2 76 20 0 19 -7 20 -95 20 l-95 0 0 -180z"/>
<path d="M4090 810 c0 -17 7 -20 45 -20 l45 0 0 -160 c0 -153 1 -160 20 -160
19 0 20 7 20 160 l0 160 45 0 c38 0 45 3 45 20 0 19 -7 20 -110 20 -103 0
-110 -1 -110 -20z"/>
<path d="M4652 680 l3 -150 33 -32 c29 -30 38 -33 92 -33 54 0 63 3 92 33 l33
32 3 150 c3 146 3 150 -17 150 -20 0 -21 -5 -21 -124 0 -167 -16 -205 -87
-206 -79 0 -93 28 -93 200 0 125 -1 130 -21 130 -20 0 -20 -4 -17 -150z"/>
<path d="M4980 651 c0 -174 1 -181 20 -181 18 0 20 7 20 75 0 54 4 75 13 75 6
0 32 -29 56 -65 53 -78 64 -88 90 -83 18 3 14 11 -35 77 -30 40 -54 74 -52 75
2 1 16 7 31 14 34 15 59 69 51 111 -11 52 -46 75 -124 79 l-70 4 0 -181z m140
117 c44 -47 10 -108 -60 -108 l-40 0 0 65 0 65 40 0 c27 0 45 -6 60 -22z"/>
<path d="M5940 810 c0 -17 7 -20 40 -20 22 0 40 -3 40 -7 0 -5 1 -77 1 -160
l1 -153 24 0 24 0 0 160 0 160 39 0 c30 0 40 4 44 20 5 19 0 20 -104 20 -102
0 -109 -1 -109 -20z"/>
</g>
</svg>
