<?xml version="1.0" encoding="UTF-8" standalone="no"?>
<svg
   xmlns:dc="http://purl.org/dc/elements/1.1/"
   xmlns:cc="http://creativecommons.org/ns#"
   xmlns:rdf="http://www.w3.org/1999/02/22-rdf-syntax-ns#"
   xmlns:svg="http://www.w3.org/2000/svg"
   xmlns="http://www.w3.org/2000/svg"
   viewBox="0 0 3177.3333 1091.5387"
   height="1091.5387"
   width="3177.3333"
   xml:space="preserve"
   id="svg2"
   version="1.1"><metadata
     id="metadata8"><rdf:RDF><cc:Work
         rdf:about=""><dc:format>image/svg+xml</dc:format><dc:type
           rdf:resource="http://purl.org/dc/dcmitype/StillImage" /></cc:Work></rdf:RDF></metadata><defs
     id="defs6"><clipPath
       id="clipPath18"
       clipPathUnits="userSpaceOnUse"><path
         id="path16"
         d="M 0,818.654 H 2383 V 0 H 0 Z" /></clipPath></defs><g
     transform="matrix(1.3333333,0,0,-1.3333333,0,1091.5387)"
     id="g10"><g
       id="g12"><g
         clip-path="url(#clipPath18)"
         id="g14"><g
           transform="translate(1404.6724,481.708)"
           id="g20"><path
             id="path22"
             style="fill:#bdd100;fill-opacity:1;fill-rule:nonzero;stroke:none"
             d="m 0,0 3.981,94.675 0.063,1.826 -1.703,0.665 -4.956,1.999 c -3.797,1.707 -9.441,3.316 -17.156,4.867 -7.611,1.517 -15.571,2.292 -23.676,2.292 -10.382,0 -21.985,-3.809 -34.46,-11.34 -12.182,-7.347 -20.808,-13.326 -25.58,-17.743 -2.794,-2.587 -5.254,-4.973 -7.347,-7.112 l -3.78,28.976 -0.31,2.323 -2.358,-0.091 -103.132,-3.998 -2.477,-0.095 V 94.766 54.913 52.899 l 1.95,-0.496 37.9,-9.467 v -159.011 l -38.038,-11.884 -1.812,-0.557 v -1.906 -39.869 -2.572 h 2.586 160.42 2.587 v 2.572 39.869 1.998 l -1.939,0.496 -45.398,11.948 V 13.481 l 6.212,6.229 c 4.445,4.431 11.11,8.971 19.799,13.478 7.812,4.044 15.544,6.262 23.058,6.634 l 7.084,-40.164 0.372,-2.139 h 2.168 43.356 2.478 z" /></g><g
           transform="translate(1492.3584,414.5835)"
           id="g24"><path
             id="path26"
             style="fill:#bdd100;fill-opacity:1;fill-rule:nonzero;stroke:none"
             d="m 0,0 c 8.024,4.881 21.555,7.344 40.253,7.344 h 25.816 v -29.658 l -6.659,-6.229 c -4.852,-4.832 -11.609,-9.636 -20.143,-14.299 -8.386,-4.588 -16.427,-6.911 -23.929,-6.911 -18.297,0 -26.803,8.675 -26.803,27.316 C -11.465,-12.024 -7.714,-4.68 0,0 M 144.968,-48.81 V 72.22 c 0,36.754 -8.15,63.127 -24.216,78.343 -16.054,15.2 -43.648,22.885 -81.984,22.885 -32.011,0 -68.673,-6.754 -108.943,-20.063 l -1.858,-0.605 0.092,-1.968 3.487,-73.739 0.121,-2.449 h 2.466 44.841 2.047 l 0.465,1.984 7.14,30.926 3.551,1.07 c 3.642,1.316 9.034,2.619 16.157,3.92 7.147,1.302 14.522,1.951 21.962,1.951 24.061,0 35.773,-11.372 35.773,-34.784 V 54.881 H 33.766 c -81.038,0 -122.151,-28.54 -122.151,-84.8 0,-25.507 7.129,-45.573 21.187,-59.611 14.052,-14.069 33.794,-21.199 58.63,-21.199 12.95,0 26.837,3.628 41.25,10.74 14.437,7.144 23.986,12.707 29.16,17.029 3.498,2.914 6.43,5.392 8.89,7.531 l 7.893,-28.417 0.521,-1.967 2.048,0.074 98.641,3.505 2.512,0.074 v 2.495 39.854 2.045 l -2.001,0.465 z" /></g><g
           transform="translate(1845.9365,463.0527)"
           id="g28"><path
             id="path30"
             style="fill:#bdd100;fill-opacity:1;fill-rule:nonzero;stroke:none"
             d="m 0,0 c -12.968,5.142 -26.017,9.776 -38.796,13.76 -12.555,3.903 -23.447,8.52 -32.343,13.725 -8.368,4.835 -12.406,10.476 -12.406,17.201 0,7.158 2.587,12.595 7.933,16.61 5.483,4.107 13.169,6.198 22.85,6.198 12.246,0 22.547,-1.457 30.669,-4.339 l 7.169,-31.018 0.47,-2.016 h 2.042 43.855 2.523 l 0.046,2.54 c 0.683,33.671 1.331,58.105 2.013,74.687 l 0.063,1.984 -1.904,0.588 -12.939,3.981 c -9.189,2.371 -21.583,4.821 -36.972,7.298 -15.509,2.512 -30.152,3.78 -43.51,3.78 -29.625,0 -54.775,-7.126 -74.718,-21.133 -20.235,-14.256 -30.508,-36.662 -30.508,-66.645 0,-16.811 4.726,-31.253 14.024,-42.966 9.188,-11.574 20.607,-20.298 33.886,-25.924 13.002,-5.5 26.171,-10.305 39.111,-14.302 12.687,-3.889 23.55,-8.584 32.291,-13.915 8.225,-5.035 12.223,-10.751 12.223,-17.476 0,-16.378 -12.022,-24.328 -36.765,-24.328 -15.16,0 -28.093,1.471 -38.475,4.399 l -3.814,33.161 -0.247,2.292 h -2.311 -45.834 -2.586 v -2.588 -81.207 -2.031 l 1.984,-0.479 12.441,-2.976 c 8.448,-1.704 20.069,-3.424 35.687,-5.3 15.337,-1.827 30.181,-2.759 44.147,-2.759 35.297,0 63.883,8.15 85.019,24.204 21.336,16.209 32.148,39.126 32.148,68.053 0,16.488 -4.8,30.62 -14.299,42.025 C 24.807,-13.668 13.313,-5.3 0,0" /></g><g
           transform="translate(2081.7393,373.0551)"
           id="g32"><path
             id="path34"
             style="fill:#bdd100;fill-opacity:1;fill-rule:nonzero;stroke:none"
             d="M 0,0 -1.193,2.386 -3.551,1.119 c -13.822,-7.376 -24.823,-9.84 -36.3,-9.84 -9.361,0 -15.481,2.819 -18.675,8.615 -3.424,6.229 -5.145,17.539 -5.145,33.639 v 110.012 h 67.17 2.575 v 2.575 53.812 2.587 h -2.575 -67.17 v 79.621 3.101 l -3.068,-0.56 -73.227,-13.455 -2.105,-0.373 v -2.168 -66.504 l -44.118,-6.169 -2.231,-0.31 v -2.245 -47.337 -2.575 h 2.586 43.763 V 52.962 c 0,-44.439 5.311,-76.14 15.784,-94.207 10.726,-18.532 30.605,-27.956 59.02,-27.956 27.68,0 54.82,9.27 84.353,30.062 l 1.83,1.301 -1.004,1.968 z" /></g><g
           transform="translate(2190.2344,380.8037)"
           id="g36"><path
             id="path38"
             style="fill:#bdd100;fill-opacity:1;fill-rule:nonzero;stroke:none"
             d="m 0,0 c -7.238,7.872 -17.775,11.87 -31.334,11.87 -11.585,0 -21.766,-4.121 -30.226,-12.243 -8.495,-8.15 -12.785,-19.151 -12.785,-32.676 0,-14.413 3.625,-25.692 10.782,-33.501 7.205,-7.887 17.741,-11.885 31.3,-11.885 11.93,0 22.191,4.122 30.496,12.271 8.317,8.137 12.533,19.292 12.533,33.115 C 10.766,-18.951 7.141,-7.841 0,0" /></g><g
           transform="translate(398.5591,392.456)"
           id="g40"><path
             id="path42"
             style="fill:#231f20;fill-opacity:1;fill-rule:nonzero;stroke:none"
             d="M 0,0 -1.394,2.354 -3.676,0.837 c -0.941,-0.651 -4.164,-2.635 -9.601,-5.92 -5.392,-3.269 -9.705,-5.763 -12.814,-7.39 -3.103,-1.628 -7.456,-3.61 -12.986,-5.887 -5.471,-2.248 -11.172,-3.952 -16.954,-5.067 -5.782,-1.131 -11.976,-1.704 -18.434,-1.704 -19.88,0 -34.419,6.972 -44.457,21.319 -10.123,14.442 -15.234,35.716 -15.234,63.282 0,24.186 4.916,42.503 14.609,54.419 9.567,11.758 23.384,17.726 41.095,17.726 12.275,0 23.075,-1.179 32.154,-3.488 l 6.659,-34.273 0.402,-2.093 h 2.128 44.841 2.506 l 0.081,2.512 2.495,81.191 0.063,1.861 -1.732,0.651 -11.965,4.493 c -8.414,3.007 -20.115,5.98 -34.804,8.816 -14.734,2.851 -28.649,4.291 -41.342,4.291 -43.705,0 -78.291,-13.186 -102.759,-39.169 -24.434,-25.971 -36.834,-61.919 -36.834,-106.9 0,-43 11.735,-77.119 34.85,-101.415 23.148,-24.356 55.876,-36.694 97.275,-36.694 39.656,0 76.267,14.475 108.822,43 l 1.6,1.412 -1.072,1.843 z" /></g><g
           transform="translate(589.8252,384.601)"
           id="g44"><path
             id="path46"
             style="fill:#231f20;fill-opacity:1;fill-rule:nonzero;stroke:none"
             d="m 0,0 c -8.208,-12.289 -20.7,-18.269 -38.194,-18.269 -17.494,0 -29.808,6.043 -37.682,18.469 -7.996,12.63 -12.051,33.193 -12.051,61.142 0,29.535 4.273,50.485 12.721,62.277 8.237,11.512 21.532,17.339 39.496,17.339 16.794,0 28.713,-6.028 36.427,-18.44 7.841,-12.659 11.81,-32.4 11.81,-58.695 C 12.527,33.932 8.323,12.472 0,0 m -33.221,203.431 c -41.709,0 -75.366,-12.923 -100.001,-38.394 -24.605,-25.475 -37.091,-61.205 -37.091,-106.173 0,-92.627 43.613,-139.611 129.624,-139.611 41.067,0 74.317,13.359 98.796,39.7 24.423,26.28 36.817,62.415 36.817,107.379 0,43.31 -11.218,77.351 -33.329,101.154 -22.174,23.845 -54.076,35.945 -94.816,35.945" /></g><g
           transform="translate(973.3257,359.6855)"
           id="g48"><path
             id="path50"
             style="fill:#231f20;fill-opacity:1;fill-rule:nonzero;stroke:none"
             d="m 0,0 c -6.877,2.586 -12.486,4.571 -16.748,5.948 v 130.144 c 0,28.015 -6.648,50.45 -19.759,66.627 -13.261,16.347 -32.441,24.637 -57.07,24.637 -13.582,0 -28.77,-3.687 -45.133,-10.94 -16.421,-7.281 -27.394,-12.891 -33.56,-17.167 -4.267,-2.977 -7.845,-5.581 -10.879,-7.903 l -3.006,29.687 -0.246,2.418 -2.421,-0.092 -103.132,-3.998 -2.495,-0.094 v -2.478 -39.854 -1.999 l 1.949,-0.511 36.416,-9.452 V 5.933 l -36.564,-11.87 -1.801,-0.588 V -8.4 -48.269 -50.841 h 2.586 138.016 2.588 v 2.572 39.869 1.629 l -1.458,0.711 -24.468,11.747 v 129.38 l 5.799,6.23 c 4.09,4.433 10.502,9.018 19.025,13.696 8.38,4.589 17.092,6.897 25.908,6.897 9.561,0 16.983,-3.364 22.667,-10.258 5.719,-6.957 8.632,-16.053 8.632,-27.009 V 5.687 l -24.932,-11.747 -1.486,-0.711 V -8.4 -48.269 -50.841 h 2.587 134.528 2.587 v 2.572 39.869 1.875 l -1.766,0.559 C 13.439,-4.973 7.921,-2.959 0,0" /></g><g
           transform="translate(1154.6128,372.3232)"
           id="g52"><path
             id="path54"
             style="fill:#231f20;fill-opacity:1;fill-rule:nonzero;stroke:none"
             d="m 0,0 -1.193,2.386 -2.34,-1.267 c -13.822,-7.376 -22.107,-9.108 -33.572,-9.108 -9.361,0 -15.48,2.819 -18.658,8.615 -3.442,6.228 -5.174,17.539 -5.174,33.639 V 144.277 H 6.233 8.82 v 2.575 53.812 2.586 h -2.587 -67.17 v 79.622 3.101 l -3.04,-0.56 -73.243,-13.456 -2.122,-0.372 v -2.169 -66.503 l -44.095,-6.169 -2.238,-0.31 v -2.246 -47.336 -2.575 h 2.592 43.741 V 53.694 c 0,-44.439 5.311,-76.14 15.789,-94.207 10.755,-18.532 30.6,-27.956 59.049,-27.956 27.646,0 52.093,8.537 81.613,29.329 l 1.825,1.302 -0.987,1.967 z" /></g><g
           transform="translate(528.0181,498.6137)"
           id="g56"><path
             id="path58"
             style="fill:#231f20;fill-opacity:1;fill-rule:nonzero;stroke:none"
             d="m 0,0 c -3.59,-5.037 -9.636,-18.549 -9.636,-52.67 0,-30.85 5.174,-45.493 9.51,-52.341 3.367,-5.331 8.833,-10.785 23.739,-10.785 h 0.282 V 10.35 C 7.158,9.713 1.784,2.477 0,0" /></g><g
           transform="translate(453.8135,193.4384)"
           id="g60"><path
             id="path62"
             style="fill:#231f20;fill-opacity:1;fill-rule:nonzero;stroke:none"
             d="m 0,0 v 0.204 c 0,17.648 14.052,33.266 34.987,33.266 11.759,0 19.042,-3.114 26.012,-8.537 L 55.917,19.415 C 50.525,23.74 44.543,26.777 34.689,26.777 19.237,26.777 8.179,14.723 8.179,0.39 V 0.204 c 0,-15.358 10.656,-26.76 27.594,-26.76 7.978,0 15.354,2.851 20.144,6.444 V -4.121 H 34.689 V 2.417 H 63.494 V -23.241 C 57.018,-28.572 47.239,-33.08 35.48,-33.08 13.553,-33.08 0,-18.377 0,0" /></g><g
           transform="translate(564.3164,193.0053)"
           id="g64"><path
             id="path66"
             style="fill:#231f20;fill-opacity:1;fill-rule:nonzero;stroke:none"
             d="m 0,0 c 10.479,0 17.946,4.958 17.946,13.235 v 0.183 c 0,7.904 -6.567,12.676 -17.849,12.676 H -21.429 V 0 Z M -29.298,32.819 H 0.699 c 8.57,0 15.452,-2.386 19.834,-6.447 3.396,-3.128 5.38,-7.622 5.38,-12.672 V 13.513 C 25.913,2.851 17.946,-3.41 6.974,-5.251 l 21.428,-26.298 h -9.664 l -20.224,25.01 h -19.943 v -25.01 h -7.869 z" /></g><g
           transform="translate(652.3003,185.0869)"
           id="g68"><path
             id="path70"
             style="fill:#231f20;fill-opacity:1;fill-rule:nonzero;stroke:none"
             d="M 0,0 -15.836,32.728 -31.798,0 Z m -19.433,41.202 h 7.377 L 19.742,-23.63 H 11.265 L 3.098,-6.615 h -37.976 l -8.277,-17.015 h -8.075 z" /></g><g
           transform="translate(685.7681,225.8247)"
           id="g72"><path
             id="path74"
             style="fill:#231f20;fill-opacity:1;fill-rule:nonzero;stroke:none"
             d="M 0,0 H 50.124 V -6.725 H 7.886 v -22.98 h 37.763 v -6.616 H 7.886 V -64.368 H 0 Z" /></g><path
           id="path76"
           style="fill:#231f20;fill-opacity:1;fill-rule:nonzero;stroke:none"
           d="m 751.836,225.825 h 7.875 v -64.368 h -7.875 z" /><g
           transform="translate(780.1362,225.8247)"
           id="g78"><path
             id="path80"
             style="fill:#231f20;fill-opacity:1;fill-rule:nonzero;stroke:none"
             d="M 0,0 H 7.869 V -38.443 L 47.938,0 H 58.101 L 28.196,-28.139 59.403,-64.368 H 49.521 L 22.713,-33.189 7.869,-47.076 V -64.368 H 0 Z" /></g><g
           transform="translate(857.1592,189.039)"
           id="g82"><path
             id="path84"
             style="fill:#231f20;fill-opacity:1;fill-rule:nonzero;stroke:none"
             d="M 0,0 V 36.786 H 15.337 V 0.373 c 0,-10.476 5.684,-15.899 15.045,-15.899 9.378,0 15.061,5.236 15.061,15.435 V 36.786 H 60.786 V 0.465 c 0,-19.493 -11.855,-29.051 -30.588,-29.051 C 11.448,-28.586 0,-18.933 0,0" /></g><g
           transform="translate(933.5752,225.8247)"
           id="g86"><path
             id="path88"
             style="fill:#231f20;fill-opacity:1;fill-rule:nonzero;stroke:none"
             d="M 0,0 H 14.149 L 46.848,-39.636 V 0 H 61.985 V -64.368 H 48.936 L 15.159,-23.459 V -64.368 H 0 Z" /></g><g
           transform="translate(1027.6333,213.0258)"
           id="g90"><path
             id="path92"
             style="fill:#231f20;fill-opacity:1;fill-rule:nonzero;stroke:none"
             d="m 0,0 v -38.784 h 11.867 c 12.55,0 21.027,7.808 21.027,19.197 v 0.203 C 32.894,-7.996 24.417,0 11.867,0 Z m -15.343,12.799 h 27.21 c 21.927,0 37.064,-13.883 37.064,-31.997 v -0.186 c 0,-18.116 -15.137,-32.185 -37.064,-32.185 h -27.21 z" /></g><g
           transform="translate(1088.3105,225.8247)"
           id="g94"><path
             id="path96"
             style="fill:#231f20;fill-opacity:1;fill-rule:nonzero;stroke:none"
             d="m 0,0 h 8.569 l 19.925,-53.614 19.152,53.8 h 6.475 l 19.14,-53.8 L 93.187,0 h 8.276 L 76.548,-64.833 H 69.866 L 50.732,-12.613 31.5,-64.833 h -6.584 z" /></g><g
           transform="translate(1203.9976,225.8247)"
           id="g98"><path
             id="path100"
             style="fill:#231f20;fill-opacity:1;fill-rule:nonzero;stroke:none"
             d="M 0,0 H 50.417 V -6.633 H 7.87 V -28.604 H 45.943 V -35.22 H 7.87 v -22.529 h 43.063 v -6.619 H 0 Z" /></g><g
           transform="translate(1300.0464,193.0053)"
           id="g102"><path
             id="path104"
             style="fill:#231f20;fill-opacity:1;fill-rule:nonzero;stroke:none"
             d="m 0,0 c 10.479,0 17.947,4.958 17.947,13.235 v 0.183 c 0,7.904 -6.573,12.676 -17.838,12.676 h -21.52 V 0 Z M -29.286,32.819 H 0.717 c 8.552,0 15.446,-2.386 19.816,-6.447 3.396,-3.128 5.392,-7.622 5.392,-12.672 V 13.513 C 25.925,2.851 17.947,-3.41 6.975,-5.251 L 28.42,-31.549 h -9.687 l -20.218,25.01 h -19.926 v -25.01 h -7.875 z" /></g><g
           transform="translate(1372.5967,190.6967)"
           id="g106"><path
             id="path108"
             style="fill:#231f20;fill-opacity:1;fill-rule:nonzero;stroke:none"
             d="M 0,0 H -22.037 V -22.699 H 1.394 c 10.564,0 17.138,4.308 17.138,11.48 v 0.173 C 18.532,-4.044 12.147,0 0,0 m 14.66,18.113 c 0,6.355 -5.489,10.476 -15.452,10.476 H -22.037 V 6.429 h 20.643 c 9.453,0 16.054,3.969 16.054,11.5 z m -44.457,17.015 h 29.705 c 7.961,0 14.236,-2.123 18.234,-5.704 2.885,-2.757 4.479,-6.166 4.479,-10.301 V 18.951 C 22.621,10.568 17.046,6.246 11.557,4.043 19.833,1.752 26.51,-2.664 26.51,-11.483 v -0.183 C 26.51,-22.699 16.438,-29.24 1.193,-29.24 h -30.99 z" /></g><g
           transform="translate(1414.7241,225.8247)"
           id="g110"><path
             id="path112"
             style="fill:#231f20;fill-opacity:1;fill-rule:nonzero;stroke:none"
             d="M 0,0 H 50.439 V -6.633 H 7.875 V -28.604 H 45.942 V -35.22 H 7.875 v -22.529 h 43.058 v -6.619 H 0 Z" /></g><g
           transform="translate(1499.9155,219.0996)"
           id="g114"><path
             id="path116"
             style="fill:#231f20;fill-opacity:1;fill-rule:nonzero;stroke:none"
             d="M 0,0 H -23.413 V 6.725 H 31.409 V 0 H 7.984 V -57.643 H 0 Z" /></g><g
           transform="translate(1546.0586,225.8247)"
           id="g118"><path
             id="path120"
             style="fill:#231f20;fill-opacity:1;fill-rule:nonzero;stroke:none"
             d="M 0,0 H 50.439 V -6.633 H 7.875 V -28.604 H 45.942 V -35.22 H 7.875 v -22.529 h 43.057 v -6.619 H 0 Z" /></g><g
           transform="translate(1609.7129,193.4384)"
           id="g122"><path
             id="path124"
             style="fill:#231f20;fill-opacity:1;fill-rule:nonzero;stroke:none"
             d="m 0,0 v 0.204 c 0,18.204 14.769,33.266 35.285,33.266 12.658,0 20.236,-4.121 27.21,-10.195 L 57.132,17.944 C 51.242,23.089 44.657,26.777 35.193,26.777 19.742,26.777 8.184,15.188 8.184,0.39 V 0.204 c 0,-14.893 11.667,-26.577 27.009,-26.577 9.573,0 15.848,3.41 22.53,9.298 l 5.173,-4.709 C 55.629,-28.572 47.651,-33.08 34.987,-33.08 14.86,-33.08 0,-18.469 0,0" /></g><g
           transform="translate(1686.335,225.8247)"
           id="g126"><path
             id="path128"
             style="fill:#231f20;fill-opacity:1;fill-rule:nonzero;stroke:none"
             d="m 0,0 h 7.875 v -28.604 h 40.27 V 0 h 7.869 v -64.368 h -7.869 v 28.962 H 7.875 V -64.368 H 0 Z" /></g><g
           transform="translate(1762.0737,225.8247)"
           id="g130"><path
             id="path132"
             style="fill:#231f20;fill-opacity:1;fill-rule:nonzero;stroke:none"
             d="M 0,0 H 7.375 L 51.322,-51.583 V 0 h 7.685 V -64.368 H 52.715 L 7.674,-11.589 V -64.368 H 0 Z" /></g><path
           id="path134"
           style="fill:#231f20;fill-opacity:1;fill-rule:nonzero;stroke:none"
           d="m 1841.488,225.825 h 7.87 v -64.368 h -7.87 z" /><g
           transform="translate(1869.7822,225.8247)"
           id="g136"><path
             id="path138"
             style="fill:#231f20;fill-opacity:1;fill-rule:nonzero;stroke:none"
             d="M 0,0 H 7.87 V -38.443 L 47.938,0 h 10.17 L 28.213,-28.139 59.404,-64.368 H 49.539 L 22.713,-33.189 7.87,-47.076 V -64.368 H 0 Z" /></g></g></g></g></svg>