<?xml version="1.0" encoding="UTF-8" standalone="no"?>
<svg
   xmlns:dc="http://purl.org/dc/elements/1.1/"
   xmlns:cc="http://creativecommons.org/ns#"
   xmlns:rdf="http://www.w3.org/1999/02/22-rdf-syntax-ns#"
   xmlns:svg="http://www.w3.org/2000/svg"
   xmlns="http://www.w3.org/2000/svg"
   viewBox="0 0 1122.52 793.70135"
   height="793.70135"
   width="1122.52"
   xml:space="preserve"
   id="svg2"
   version="1.1"><metadata
     id="metadata8"><rdf:RDF><cc:Work
         rdf:about=""><dc:format>image/svg+xml</dc:format><dc:type
           rdf:resource="http://purl.org/dc/dcmitype/StillImage" /></cc:Work></rdf:RDF></metadata><defs
     id="defs6"><clipPath
       id="clipPath18"
       clipPathUnits="userSpaceOnUse"><path
         id="path16"
         d="M 0,595.276 H 841.89 V 0 H 0 Z" /></clipPath></defs><g
     transform="matrix(1.3333333,0,0,-1.3333333,0,793.70133)"
     id="g10"><g
       id="g12"><g
         clip-path="url(#clipPath18)"
         id="g14"><g
           transform="translate(372.9521,332.6725)"
           id="g20"><path
             id="path22"
             style="fill:#fff31a;fill-opacity:1;fill-rule:evenodd;stroke:none"
             d="m 0,0 c 0.001,-26.566 -21.533,-48.097 -48.091,-48.098 -26.569,-10e-4 -48.103,21.533 -48.098,48.096 -0.007,26.559 21.527,48.095 48.091,48.093 C -21.535,48.092 -0.001,26.558 0,0" /></g><g
           transform="translate(106.2615,306.6864)"
           id="g24"><path
             id="path26"
             style="fill:#ef3026;fill-opacity:1;fill-rule:evenodd;stroke:none"
             d="M 0,0 C 1.03,2.765 2.537,4.881 4.515,6.343 6.5,7.811 8.936,8.545 11.84,8.557 14.379,8.499 16.255,7.659 17.464,6.048 18.678,4.44 19.048,2.421 18.572,0.002 Z m 35.076,-10.098 c 2.184,9.972 1.507,17.637 -2.009,22.993 -3.515,5.362 -10.294,8.066 -20.341,8.124 -5.42,-0.061 -10.392,-1.282 -14.922,-3.676 -4.525,-2.394 -8.334,-5.618 -11.423,-9.658 -3.084,-4.045 -5.18,-8.565 -6.288,-13.57 -1.149,-5.679 -0.915,-10.497 0.722,-14.45 1.632,-3.96 4.371,-6.968 8.213,-9.041 3.837,-2.066 8.513,-3.103 13.99,-3.116 5.912,-0.021 11.528,1.286 16.82,3.924 5.299,2.635 9.566,6.689 12.819,12.166 L 14.503,-16.4 c -1.106,-1.224 -2.463,-2.137 -4.086,-2.737 -1.622,-0.598 -3.245,-0.899 -4.852,-0.892 -3.033,0.046 -5.194,0.974 -6.471,2.785 -1.273,1.812 -1.722,4.187 -1.336,7.146 z" /></g><g
           transform="translate(168.6571,303.4569)"
           id="g28"><path
             id="path30"
             style="fill:#ef3026;fill-opacity:1;fill-rule:evenodd;stroke:none"
             d="m 0,0 c 0.586,2.784 1.776,5.144 3.57,7.085 1.783,1.938 4.066,2.947 6.838,3.03 2.831,-0.067 4.752,-1.035 5.745,-2.91 0.988,-1.87 1.187,-4.247 0.566,-7.105 -0.377,-1.957 -0.939,-3.881 -1.69,-5.799 -0.761,-1.917 -1.838,-3.513 -3.262,-4.791 -1.418,-1.28 -3.309,-1.942 -5.677,-1.989 -3.382,0.156 -5.425,1.514 -6.123,4.057 C -0.737,-5.865 -0.726,-3.064 0,0 M 40.537,22.977 H 21.096 L 19.783,16.79 19.588,16.789 c -0.643,2.588 -2.032,4.479 -4.183,5.681 -2.157,1.196 -4.688,1.784 -7.604,1.777 -4.856,-0.058 -9.156,-1.176 -12.897,-3.369 -3.736,-2.185 -6.834,-5.109 -9.275,-8.772 -2.44,-3.663 -4.13,-7.733 -5.084,-12.205 -0.987,-4.608 -1.1,-8.785 -0.35,-12.516 0.76,-3.729 2.507,-6.708 5.258,-8.918 2.746,-2.219 6.615,-3.358 11.602,-3.413 2.91,0.012 5.652,0.631 8.219,1.843 2.567,1.211 4.886,2.954 6.946,5.222 l 0.196,-0.001 -1.001,-4.705 c -0.29,-1.477 -0.835,-3.114 -1.637,-4.913 -0.796,-1.799 -1.892,-3.359 -3.285,-4.692 -1.404,-1.33 -3.144,-2.03 -5.236,-2.095 -1.226,0.046 -2.249,0.448 -3.069,1.204 -0.815,0.761 -1.431,1.605 -1.834,2.534 -0.13,0.298 -0.272,0.599 -0.407,0.918 -0.136,0.309 -0.229,0.592 -0.286,0.841 l -19.251,10e-4 c -0.305,-4.535 0.621,-8.039 2.766,-10.506 2.145,-2.475 5.028,-4.182 8.649,-5.128 3.62,-0.938 7.486,-1.388 11.586,-1.347 7.866,0.114 13.983,1.475 18.34,4.067 4.369,2.597 7.52,5.755 9.479,9.479 1.948,3.71 3.247,7.319 3.863,10.807 z" /></g><g
           transform="translate(210.0797,275.463)"
           id="g32"><path
             id="path34"
             style="fill:#ef3026;fill-opacity:1;fill-rule:evenodd;stroke:none"
             d="M 0,0 H 19.441 L 34.338,70.115 H 14.908 Z" /></g><g
           transform="translate(275.3511,345.5786)"
           id="g36"><path
             id="path38"
             style="fill:#ef3026;fill-opacity:1;fill-rule:evenodd;stroke:none"
             d="m 0,0 h -19.425 l -2.902,-13.631 h 19.435 z m -34.332,-70.116 h 19.441 l 10.83,50.971 -19.436,0.001 z" /></g><g
           transform="translate(619.1783,275.4635)"
           id="g40"><path
             id="path42"
             style="fill:#ef3026;fill-opacity:1;fill-rule:evenodd;stroke:none"
             d="m 0,0 h 19.441 l 5.723,26.917 c 0.953,3.974 2.403,6.629 4.323,7.966 1.919,1.333 3.759,1.956 5.536,1.853 2.741,-0.047 4.315,-0.979 4.719,-2.801 0.414,-1.813 0.259,-4.224 -0.464,-7.22 L 33.605,0.002 53.03,-0.001 60.462,34.971 c 1.077,5.828 0.235,10.168 -2.548,13.015 -2.778,2.85 -6.518,4.264 -11.257,4.256 C 42.796,52.233 39.375,51.584 36.398,50.28 33.41,48.975 30.753,47.046 28.411,44.489 l -0.196,0.001 1.372,6.481 H 10.835 Z m -214.095,36.147 c 0.661,4.314 -0.032,7.631 -2.067,9.977 -2.042,2.335 -4.814,3.952 -8.333,4.845 -3.503,0.888 -7.163,1.314 -10.928,1.27 -3.499,0.038 -7.191,-0.404 -11.056,-1.335 -3.876,-0.942 -7.332,-2.581 -10.368,-4.942 -3.036,-2.362 -5.056,-5.665 -6.068,-9.913 -0.988,-4.339 -0.103,-7.782 2.647,-10.334 2.75,-2.553 7.667,-4.448 14.753,-5.686 4.252,-0.73 7.022,-1.462 8.284,-2.187 1.277,-0.729 1.706,-1.802 1.282,-3.215 -0.425,-1.46 -1.416,-2.475 -2.979,-3.069 -1.568,-0.592 -3.049,-0.88 -4.443,-0.861 -1.184,0.009 -2.194,0.139 -3.032,0.407 -0.832,0.266 -1.455,0.621 -1.852,1.072 -0.613,0.633 -1.023,1.317 -1.263,2.072 -0.229,0.741 -0.282,1.56 -0.148,2.443 l -18.55,-10e-4 c -0.739,-4.364 -0.134,-7.862 1.837,-10.501 1.965,-2.642 4.722,-4.546 8.301,-5.73 3.564,-1.175 7.388,-1.759 11.482,-1.731 4.206,-0.039 8.388,0.459 12.539,1.514 4.152,1.052 7.788,2.882 10.904,5.509 3.11,2.62 5.219,6.262 6.289,10.94 0.779,4.121 0.227,7.277 -1.64,9.485 -1.866,2.201 -4.363,3.787 -7.494,4.759 -3.129,1.024 -6.224,1.775 -9.281,2.259 -3.066,0.482 -5.386,1.038 -6.977,1.667 -0.518,0.24 -0.963,0.557 -1.335,0.964 -0.371,0.406 -0.492,0.97 -0.363,1.695 0.42,1.623 1.288,2.702 2.609,3.218 1.305,0.525 2.681,0.759 4.124,0.714 0.787,-10e-4 1.537,-0.122 2.229,-0.368 0.692,-0.245 1.292,-0.613 1.785,-1.105 0.55,-0.446 0.959,-0.986 1.231,-1.626 0.26,-0.639 0.337,-1.371 0.215,-2.206 z M -109.992,0 h 19.44 l 4.281,20.138 c 1.156,5.413 3.003,9.347 5.526,11.794 2.524,2.459 5.703,3.661 9.535,3.625 1.916,-0.015 3.41,-0.138 4.493,-0.38 1.066,-0.24 2.033,-0.543 2.889,-0.898 l 3.662,17.179 c -1.747,0.506 -3.589,0.763 -5.532,0.782 -3.502,-0.013 -6.544,-0.822 -9.162,-2.427 -2.608,-1.608 -5.002,-3.94 -7.182,-6.994 l -0.196,-0.001 1.729,8.153 h -18.643 z m -67.158,66.482 -19.43,0.001 -3.295,-15.513 -8.642,-0.002 -2.552,-11.971 8.648,0.002 -5.177,-24.374 c -0.915,-4.572 -0.74,-7.953 0.514,-10.135 1.259,-2.18 3.137,-3.592 5.634,-4.23 2.497,-0.639 5.158,-0.916 7.989,-0.847 2.08,0.025 4.212,0.127 6.368,0.296 2.166,0.171 4.232,0.268 6.226,0.29 l 3.13,14.72 c -1.521,-0.188 -3.012,-0.288 -4.478,-0.289 -2.405,-0.016 -3.896,0.524 -4.492,1.62 -0.598,1.088 -0.624,2.812 -0.065,5.16 l 3.776,17.789 h 10.418 l 2.546,11.971 -10.418,10e-4 z M -5.066,21.125 c 2.178,9.97 1.518,17.639 -1.993,22.993 -3.51,5.364 -10.291,8.063 -20.327,8.123 -5.426,-0.061 -10.392,-1.282 -14.922,-3.673 -4.53,-2.396 -8.34,-5.616 -11.434,-9.658 -3.084,-4.051 -5.18,-8.568 -6.283,-13.57 -1.148,-5.682 -0.909,-10.498 0.723,-14.455 1.62,-3.955 4.365,-6.966 8.207,-9.036 3.848,-2.066 8.508,-3.106 13.99,-3.118 5.922,-0.023 11.527,1.288 16.826,3.923 5.29,2.636 9.563,6.689 12.805,12.17 l -18.141,-10e-4 c -1.101,-1.224 -2.458,-2.141 -4.08,-2.738 -1.623,-0.6 -3.245,-0.899 -4.857,-0.889 -3.028,0.043 -5.2,0.971 -6.472,2.783 -1.272,1.811 -1.716,4.188 -1.347,7.145 z m -35.046,10.1 c 1.03,2.76 2.532,4.881 4.505,6.343 1.994,1.47 4.425,2.199 7.341,2.214 2.527,-0.061 4.404,-0.9 5.612,-2.509 1.209,-1.608 1.584,-3.632 1.108,-6.051 z m -74.298,-5.693 c 1.019,4.78 0.966,9.19 -0.153,13.214 -1.124,4.026 -3.47,7.26 -7.054,9.712 -3.59,2.451 -8.562,3.713 -14.918,3.78 -6.392,-0.067 -11.892,-1.327 -16.516,-3.78 -4.629,-2.449 -8.358,-5.688 -11.192,-9.715 -2.827,-4.022 -4.746,-8.428 -5.76,-13.211 -1.024,-4.78 -0.978,-9.197 0.135,-13.24 1.135,-4.036 3.475,-7.293 7.059,-9.758 3.568,-2.47 8.545,-3.738 14.895,-3.805 6.397,0.068 11.897,1.336 16.533,3.807 4.63,2.463 8.365,5.72 11.199,9.758 2.839,4.041 4.752,8.456 5.772,13.238 m -19.447,0 c -0.358,-1.857 -0.934,-3.751 -1.735,-5.686 -0.795,-1.94 -1.938,-3.569 -3.423,-4.902 -1.496,-1.334 -3.448,-2.037 -5.893,-2.085 -2.408,0.049 -4.077,0.747 -4.998,2.083 -0.914,1.335 -1.367,2.965 -1.343,4.903 0.035,1.934 0.259,3.829 0.688,5.687 0.358,1.86 0.939,3.743 1.723,5.659 0.794,1.927 1.936,3.543 3.421,4.859 1.485,1.322 3.442,2.008 5.881,2.058 2.414,-0.048 4.073,-0.736 5.009,-2.058 0.921,-1.316 1.37,-2.931 1.346,-4.857 -0.018,-1.916 -0.247,-3.803 -0.676,-5.661" /></g><g
           transform="translate(666.9947,234.0677)"
           id="g44"><path
             id="path46"
             style="fill:#231f20;fill-opacity:1;fill-rule:evenodd;stroke:none"
             d="m 0,0 7.503,-0.001 -10.336,-9.46 -0.65,-3.083 13.257,0.001 0.651,3.086 H 1.717 l 10.168,9.18 0.695,3.258 H 0.631 Z M -4.232,8.145 -8.086,8.149 -9.197,2.927 h -2.167 L -11.889,0.47 h 2.166 l -1.652,-7.828 c -0.059,-0.275 -0.117,-0.552 -0.171,-0.833 -0.04,-0.229 -0.081,-0.463 -0.127,-0.706 -0.061,-0.34 -0.095,-0.684 -0.101,-1.015 -0.009,-0.271 0.003,-0.535 0.054,-0.792 0.04,-0.256 0.129,-0.496 0.263,-0.714 0.122,-0.219 0.295,-0.41 0.491,-0.561 0.228,-0.159 0.456,-0.292 0.719,-0.383 0.231,-0.084 0.484,-0.139 0.733,-0.156 0.13,-0.007 0.255,-0.014 0.379,-0.016 0.304,-0.008 0.603,-0.01 0.896,-0.01 l 2.796,0.001 0.605,2.862 c -0.077,-0.009 -0.147,-0.006 -0.224,-0.02 -0.032,0.001 -0.07,0.003 -0.108,-0.002 -0.213,-0.014 -0.435,-0.019 -0.663,-0.031 -0.126,-0.009 -0.256,-0.01 -0.381,-0.013 -0.174,-0.003 -0.342,0.014 -0.515,0.037 -0.145,0.026 -0.296,0.069 -0.429,0.131 -0.139,0.062 -0.262,0.148 -0.36,0.26 -0.095,0.101 -0.14,0.219 -0.178,0.353 -0.024,0.112 -0.03,0.219 -0.032,0.333 -0.001,0.138 0.01,0.276 0.031,0.414 0.02,0.119 0.041,0.232 0.066,0.351 0.034,0.175 0.072,0.336 0.105,0.511 l 1.663,7.828 h 2.959 l 0.52,2.455 h -2.959 z m -13.199,-5.164 -1.844,-8.659 c -0.047,-0.254 -0.11,-0.505 -0.178,-0.76 -0.068,-0.199 -0.123,-0.4 -0.201,-0.604 -0.181,-0.504 -0.49,-0.976 -0.901,-1.38 -0.365,-0.364 -0.804,-0.653 -1.267,-0.843 -0.468,-0.196 -0.949,-0.29 -1.411,-0.298 -0.446,-0.012 -0.866,0.082 -1.234,0.263 -0.197,0.099 -0.366,0.227 -0.502,0.381 -0.131,0.137 -0.229,0.309 -0.293,0.493 -0.164,0.432 -0.201,0.922 -0.129,1.416 0.022,0.181 0.061,0.357 0.089,0.54 0.047,0.262 0.105,0.523 0.158,0.79 l 1.844,8.66 -3.947,-10e-4 -1.844,-8.657 c -0.104,-0.49 -0.197,-0.975 -0.29,-1.464 -0.048,-0.308 -0.098,-0.621 -0.146,-0.928 -0.067,-0.522 -0.063,-1.03 -0.004,-1.51 0.06,-0.458 0.186,-0.893 0.383,-1.294 0.178,-0.362 0.411,-0.693 0.694,-0.969 0.536,-0.526 1.229,-0.879 2.016,-1.028 0.68,-0.133 1.407,-0.129 2.134,0.006 1.027,0.182 2.03,0.592 2.947,1.2 0.111,0.075 0.227,0.15 0.334,0.228 0.211,0.163 0.429,0.324 0.635,0.488 l -0.338,-1.595 3.909,-10e-4 3.305,15.525 z m -30.2,-15.525 h 3.892 l 1.758,8.22 c 0.06,0.299 0.135,0.601 0.212,0.908 0.061,0.217 0.129,0.435 0.196,0.649 0.181,0.524 0.48,1.015 0.881,1.441 0.366,0.384 0.789,0.7 1.248,0.926 0.508,0.243 1.023,0.382 1.545,0.407 0.408,0.024 0.797,-0.044 1.144,-0.197 0.193,-0.083 0.363,-0.184 0.521,-0.317 0.132,-0.121 0.23,-0.255 0.328,-0.411 0.204,-0.381 0.319,-0.814 0.319,-1.273 0.008,-0.546 -0.049,-1.098 -0.172,-1.658 l -1.845,-8.695 h 3.876 l 2.031,9.49 c 0.08,0.428 0.165,0.857 0.218,1.281 0.039,0.333 0.072,0.66 0.089,0.991 0.011,0.626 -0.098,1.228 -0.324,1.77 -0.265,0.658 -0.712,1.214 -1.29,1.614 -0.631,0.422 -1.388,0.676 -2.204,0.772 -0.751,0.089 -1.541,0.011 -2.326,-0.242 -0.814,-0.281 -1.578,-0.718 -2.266,-1.281 -0.274,-0.24 -0.56,-0.496 -0.818,-0.756 -0.091,-0.086 -0.181,-0.181 -0.271,-0.27 l 1.671,7.893 h -3.898 z m -5.027,10.281 3.773,-10e-4 c -0.007,0.114 -0.003,0.225 -0.01,0.342 -0.02,0.834 -0.193,1.628 -0.493,2.344 -0.302,0.684 -0.753,1.278 -1.324,1.742 -0.861,0.674 -1.921,1.094 -3.096,1.203 -0.768,0.075 -1.551,0.045 -2.348,-0.092 -0.89,-0.148 -1.775,-0.465 -2.611,-0.927 -0.985,-0.543 -1.907,-1.272 -2.659,-2.135 -0.893,-1.02 -1.591,-2.179 -2.062,-3.397 -0.621,-1.613 -0.831,-3.278 -0.619,-4.827 0.069,-0.497 0.188,-0.973 0.357,-1.424 0.308,-0.838 0.814,-1.565 1.49,-2.126 0.728,-0.595 1.604,-1.014 2.579,-1.23 1.249,-0.272 2.609,-0.224 3.962,0.133 0.389,0.101 0.779,0.223 1.158,0.375 0.766,0.305 1.492,0.727 2.13,1.28 0.766,0.639 1.406,1.389 1.913,2.23 0.259,0.43 0.487,0.892 0.655,1.356 0.042,0.118 0.079,0.238 0.127,0.356 l -3.714,0.003 c -0.047,-0.118 -0.095,-0.233 -0.153,-0.348 -0.201,-0.454 -0.514,-0.878 -0.884,-1.232 -0.394,-0.396 -0.867,-0.705 -1.368,-0.912 -0.22,-0.085 -0.445,-0.153 -0.663,-0.192 -0.557,-0.1 -1.089,-0.089 -1.596,0.01 -0.437,0.083 -0.816,0.27 -1.121,0.552 -0.169,0.144 -0.304,0.317 -0.416,0.509 -0.308,0.51 -0.478,1.102 -0.516,1.738 -0.062,1.311 0.203,2.686 0.803,4 0.306,0.68 0.719,1.311 1.249,1.868 0.428,0.447 0.956,0.803 1.518,1.027 0.429,0.173 0.872,0.263 1.301,0.27 0.217,0 0.434,-0.005 0.628,-0.041 0.399,-0.068 0.764,-0.209 1.06,-0.433 0.328,-0.242 0.567,-0.563 0.728,-0.941 0.08,-0.181 0.122,-0.376 0.164,-0.572 0.008,-0.074 0.017,-0.145 0.03,-0.224 0.007,-0.093 0.015,-0.186 0.028,-0.284 m -23.788,-5.312 h -3.561 c -0.017,-0.157 -0.038,-0.303 -0.043,-0.457 -0.054,-0.761 0.067,-1.49 0.359,-2.136 0.26,-0.641 0.675,-1.193 1.215,-1.617 0.285,-0.227 0.583,-0.408 0.936,-0.553 0.384,-0.174 0.798,-0.305 1.234,-0.399 1.186,-0.256 2.46,-0.298 3.753,-0.131 0.436,0.058 0.873,0.143 1.317,0.258 0.833,0.234 1.64,0.621 2.397,1.154 0.383,0.264 0.736,0.574 1.063,0.91 0.49,0.51 0.874,1.096 1.113,1.726 0.257,0.664 0.395,1.349 0.396,2.008 0,0.323 -0.048,0.637 -0.114,0.941 -0.133,0.52 -0.389,0.972 -0.779,1.322 -0.199,0.197 -0.442,0.371 -0.682,0.512 -0.239,0.136 -0.48,0.242 -0.733,0.327 -0.311,0.1 -0.612,0.179 -0.919,0.257 -0.458,0.109 -0.931,0.212 -1.401,0.299 -0.749,0.148 -1.504,0.297 -2.242,0.453 -0.318,0.068 -0.614,0.162 -0.897,0.284 -0.198,0.091 -0.362,0.205 -0.52,0.338 -0.089,0.09 -0.156,0.207 -0.19,0.33 -0.043,0.142 -0.055,0.298 -0.028,0.451 0.021,0.116 0.052,0.232 0.105,0.352 0.047,0.104 0.1,0.214 0.179,0.309 0.206,0.281 0.469,0.505 0.767,0.673 0.349,0.195 0.718,0.331 1.095,0.408 0.175,0.037 0.355,0.066 0.524,0.084 0.425,0.031 0.815,0.023 1.204,-0.036 0.19,-0.02 0.367,-0.068 0.544,-0.12 0.355,-0.105 0.668,-0.3 0.903,-0.561 0.121,-0.134 0.224,-0.282 0.311,-0.445 0.065,-0.152 0.13,-0.314 0.145,-0.488 0.02,-0.063 0.023,-0.129 0.027,-0.191 0.007,-0.104 0.02,-0.21 0.021,-0.313 h 3.409 c 0.011,0.133 0.026,0.26 0.042,0.404 0.053,0.755 -0.073,1.493 -0.382,2.114 -0.295,0.591 -0.733,1.092 -1.274,1.458 -0.866,0.557 -1.891,0.894 -2.989,1.003 -1.146,0.133 -2.356,0.02 -3.551,-0.321 -0.411,-0.116 -0.824,-0.272 -1.232,-0.462 -0.723,-0.341 -1.403,-0.838 -1.961,-1.432 -0.519,-0.558 -0.943,-1.197 -1.216,-1.866 -0.225,-0.527 -0.347,-1.074 -0.376,-1.602 -0.003,-0.543 0.115,-1.054 0.344,-1.502 0.127,-0.235 0.282,-0.458 0.471,-0.652 0.351,-0.362 0.78,-0.665 1.261,-0.883 0.267,-0.129 0.551,-0.241 0.846,-0.341 0.327,-0.118 0.681,-0.225 1.026,-0.31 0.705,-0.185 1.41,-0.346 2.133,-0.471 0.259,-0.047 0.535,-0.095 0.798,-0.147 0.183,-0.047 0.361,-0.089 0.539,-0.144 0.188,-0.053 0.369,-0.138 0.528,-0.247 0.127,-0.088 0.237,-0.204 0.319,-0.339 0.062,-0.114 0.095,-0.24 0.124,-0.365 0.005,-0.153 -0.001,-0.321 -0.044,-0.485 -0.033,-0.145 -0.092,-0.295 -0.157,-0.442 -0.075,-0.133 -0.162,-0.272 -0.269,-0.39 -0.227,-0.272 -0.506,-0.501 -0.826,-0.666 -0.3,-0.169 -0.624,-0.29 -0.947,-0.364 -0.913,-0.196 -1.819,-0.164 -2.636,0.074 -0.225,0.075 -0.45,0.178 -0.64,0.32 -0.344,0.257 -0.603,0.608 -0.735,1.025 -0.064,0.198 -0.095,0.405 -0.104,0.612 -0.003,0.068 0,0.141 0.002,0.209 -0.002,0.084 -0.005,0.171 -0.002,0.263 m -14.631,-4.969 3.866,-0.003 1.676,7.893 c 0.053,0.261 0.127,0.52 0.212,0.785 0.067,0.215 0.135,0.441 0.24,0.652 0.26,0.612 0.671,1.181 1.166,1.669 0.287,0.286 0.61,0.54 0.96,0.751 0.306,0.195 0.637,0.344 0.977,0.454 0.565,0.178 1.138,0.259 1.686,0.256 0.098,0.002 0.185,-0.006 0.277,-0.004 0.114,-0.01 0.228,-0.014 0.352,-0.018 l 0.703,3.328 c -0.098,0.014 -0.206,0.026 -0.308,0.038 -0.054,0.004 -0.097,0.014 -0.152,0.019 -0.141,0.01 -0.276,0.02 -0.411,0.028 -0.505,0.014 -1.018,-0.07 -1.529,-0.24 -0.241,-0.081 -0.468,-0.182 -0.7,-0.304 -0.741,-0.384 -1.433,-0.93 -1.998,-1.565 -0.091,-0.118 -0.204,-0.239 -0.306,-0.358 l 0.46,2.142 -3.871,-10e-4 z m -3.586,9.525 -7.275,0.002 c 0.043,0.134 0.085,0.266 0.128,0.403 0.036,0.101 0.067,0.198 0.109,0.302 0.107,0.293 0.252,0.572 0.436,0.843 0.36,0.514 0.815,0.967 1.359,1.304 0.494,0.309 1.028,0.51 1.568,0.605 0.59,0.104 1.171,0.098 1.705,-0.019 0.522,-0.124 0.98,-0.376 1.32,-0.749 0.335,-0.356 0.553,-0.809 0.643,-1.314 0.036,-0.235 0.054,-0.475 0.051,-0.73 -0.009,-0.097 -0.006,-0.184 -0.015,-0.281 -0.01,-0.122 -0.02,-0.244 -0.029,-0.366 m 2.838,-4.857 -4.018,-10e-4 c -0.063,-0.093 -0.126,-0.175 -0.199,-0.262 -0.307,-0.397 -0.694,-0.736 -1.115,-1.003 -0.527,-0.319 -1.088,-0.521 -1.655,-0.583 -0.774,-0.098 -1.515,-0.001 -2.157,0.273 -0.299,0.125 -0.565,0.289 -0.796,0.5 -0.227,0.201 -0.419,0.438 -0.562,0.707 -0.153,0.276 -0.256,0.579 -0.311,0.904 -0.059,0.319 -0.063,0.656 -0.024,1.002 0.019,0.092 0.034,0.194 0.043,0.286 0.026,0.127 0.046,0.251 0.073,0.386 H -91.2 c 0.016,0.127 0.046,0.248 0.067,0.372 0.245,1.24 0.282,2.464 0.133,3.633 -0.128,1.009 -0.475,1.941 -1.007,2.739 -0.563,0.815 -1.345,1.445 -2.286,1.836 -0.418,0.169 -0.859,0.296 -1.312,0.372 -0.944,0.163 -1.938,0.157 -2.937,-0.007 -0.879,-0.14 -1.748,-0.441 -2.583,-0.881 -0.979,-0.528 -1.878,-1.235 -2.64,-2.066 -0.406,-0.445 -0.759,-0.91 -1.08,-1.404 -0.748,-1.211 -1.271,-2.499 -1.533,-3.804 -0.118,-0.574 -0.193,-1.141 -0.207,-1.708 -0.037,-1.054 0.14,-2.051 0.543,-2.947 0.403,-0.911 1.022,-1.681 1.821,-2.263 0.715,-0.519 1.56,-0.871 2.489,-1.034 1.041,-0.186 2.137,-0.186 3.257,0 1.043,0.17 2.088,0.557 3.042,1.148 0.971,0.598 1.855,1.352 2.597,2.227 0.328,0.388 0.615,0.81 0.847,1.252 0.058,0.104 0.116,0.211 0.164,0.326 m -16.509,16.024 -3.849,-10e-4 -1.122,-5.222 h -2.172 l -0.509,-2.458 2.166,0.001 -1.663,-7.825 c -0.058,-0.278 -0.117,-0.555 -0.17,-0.836 -0.046,-0.229 -0.087,-0.463 -0.133,-0.703 -0.055,-0.343 -0.09,-0.687 -0.101,-1.018 -0.01,-0.271 0.014,-0.535 0.048,-0.791 0.046,-0.254 0.13,-0.496 0.263,-0.715 0.134,-0.219 0.306,-0.41 0.513,-0.558 0.217,-0.162 0.446,-0.293 0.709,-0.386 0.23,-0.084 0.478,-0.139 0.743,-0.154 0.125,-0.009 0.249,-0.014 0.38,-0.018 0.292,-0.008 0.586,-0.01 0.895,-0.01 h 2.796 l 0.599,2.862 c -0.071,-0.008 -0.147,-0.006 -0.223,-0.019 -0.033,10e-4 -0.07,0.002 -0.103,10e-4 -0.223,-0.017 -0.446,-0.022 -0.663,-0.034 -0.131,-0.006 -0.256,-0.01 -0.387,-0.014 -0.179,-0.002 -0.352,0.015 -0.514,0.04 -0.151,0.027 -0.296,0.07 -0.43,0.129 -0.139,0.062 -0.26,0.148 -0.36,0.26 -0.094,0.101 -0.144,0.222 -0.172,0.353 -0.028,0.112 -0.047,0.219 -0.043,0.333 0,0.138 0.021,0.276 0.031,0.414 0.026,0.119 0.04,0.232 0.072,0.353 0.033,0.173 0.066,0.334 0.094,0.51 l 1.669,7.827 h 2.958 l 0.52,2.455 -2.953,-10e-4 z m -10.266,-0.003 -3.855,0.002 -1.111,-5.222 h -2.171 l -0.515,-2.458 h 2.172 l -1.669,-7.826 c -0.064,-0.275 -0.117,-0.553 -0.17,-0.833 -0.046,-0.229 -0.087,-0.464 -0.128,-0.705 -0.061,-0.342 -0.1,-0.686 -0.111,-1.016 -0.004,-0.272 0.013,-0.535 0.059,-0.792 0.045,-0.257 0.129,-0.496 0.263,-0.715 0.133,-0.219 0.3,-0.41 0.507,-0.558 0.211,-0.162 0.451,-0.296 0.708,-0.386 0.236,-0.084 0.484,-0.139 0.749,-0.154 0.125,-0.009 0.244,-0.013 0.369,-0.018 0.304,-0.007 0.602,-0.01 0.901,-0.009 h 2.79 l 0.605,2.861 c -0.071,-0.008 -0.147,-0.005 -0.223,-0.019 -0.033,10e-4 -0.07,0.002 -0.109,10e-4 -0.217,-0.017 -0.435,-0.023 -0.658,-0.034 -0.125,-0.007 -0.25,-0.01 -0.38,-0.014 -0.174,-0.002 -0.347,0.018 -0.515,0.04 -0.162,0.027 -0.301,0.07 -0.44,0.129 -0.134,0.062 -0.256,0.148 -0.355,0.26 -0.083,0.1 -0.139,0.222 -0.177,0.354 -0.024,0.112 -0.042,0.218 -0.038,0.332 0.005,0.138 0.01,0.276 0.036,0.414 0.015,0.119 0.041,0.232 0.072,0.353 0.034,0.172 0.072,0.334 0.094,0.51 l 1.669,7.827 h 2.964 l 0.52,2.454 -2.964,10e-4 z m -13.354,-11.162 -7.27,-10e-4 c 0.037,0.134 0.091,0.268 0.123,0.405 0.036,0.102 0.072,0.199 0.113,0.306 0.108,0.287 0.254,0.567 0.437,0.837 0.349,0.517 0.816,0.971 1.359,1.304 0.489,0.309 1.033,0.513 1.569,0.605 0.595,0.104 1.171,0.098 1.698,-0.019 0.534,-0.124 0.981,-0.376 1.321,-0.749 0.335,-0.351 0.552,-0.809 0.643,-1.312 0.041,-0.237 0.054,-0.476 0.051,-0.728 0.002,-0.098 -0.001,-0.186 -0.015,-0.282 -0.01,-0.122 -0.009,-0.245 -0.029,-0.366 m 2.854,-4.861 h -4.034 c -0.068,-0.09 -0.126,-0.175 -0.194,-0.259 -0.312,-0.399 -0.693,-0.739 -1.12,-1.001 -0.517,-0.324 -1.083,-0.521 -1.655,-0.588 -0.769,-0.098 -1.504,-0.002 -2.157,0.273 -0.288,0.124 -0.565,0.289 -0.791,0.5 -0.227,0.201 -0.414,0.438 -0.568,0.707 -0.152,0.277 -0.256,0.582 -0.304,0.903 -0.065,0.321 -0.064,0.657 -0.02,1.003 0.003,0.092 0.029,0.195 0.037,0.287 0.021,0.129 0.053,0.25 0.069,0.388 h 11.346 c 0.031,0.124 0.046,0.245 0.072,0.37 0.228,1.24 0.282,2.468 0.138,3.632 -0.133,1.009 -0.47,1.941 -1.011,2.742 -0.564,0.812 -1.345,1.441 -2.293,1.833 -0.412,0.169 -0.847,0.296 -1.306,0.374 -0.945,0.161 -1.927,0.154 -2.937,-0.008 -0.879,-0.141 -1.759,-0.442 -2.583,-0.882 -0.979,-0.525 -1.883,-1.234 -2.645,-2.066 -0.401,-0.442 -0.759,-0.91 -1.075,-1.404 -0.748,-1.206 -1.271,-2.499 -1.528,-3.804 -0.124,-0.574 -0.197,-1.141 -0.212,-1.707 -0.042,-1.052 0.146,-2.052 0.532,-2.948 0.414,-0.91 1.033,-1.681 1.833,-2.263 0.709,-0.519 1.565,-0.869 2.482,-1.031 1.047,-0.189 2.144,-0.189 3.263,0 1.048,0.167 2.088,0.554 3.048,1.145 0.971,0.598 1.855,1.354 2.591,2.228 0.323,0.387 0.61,0.809 0.847,1.251 0.053,0.104 0.111,0.213 0.175,0.325 m -34.409,-4.667 3.697,-10e-4 5.246,10.764 0.72,-10.764 3.681,-0.001 7.839,15.527 -3.92,-10e-4 -4.939,-10.832 -0.658,10.832 -3.545,0.002 -5.009,-10.833 -0.583,10.832 -3.958,-0.003 z m -23.136,9.228 2.466,-4.624 -0.228,-0.153 c -0.372,-0.242 -0.766,-0.475 -1.153,-0.687 -0.521,-0.296 -1.072,-0.538 -1.622,-0.736 -0.544,-0.185 -1.09,-0.282 -1.621,-0.266 -0.44,0.002 -0.849,0.114 -1.195,0.315 -0.164,0.104 -0.312,0.229 -0.443,0.38 -0.125,0.153 -0.227,0.323 -0.308,0.51 -0.085,0.206 -0.137,0.428 -0.144,0.668 -0.027,0.465 0.076,0.955 0.304,1.419 0.083,0.209 0.21,0.403 0.352,0.582 0.153,0.185 0.311,0.367 0.485,0.537 0.203,0.194 0.41,0.369 0.638,0.543 0.586,0.438 1.197,0.835 1.844,1.176 0.199,0.115 0.409,0.224 0.625,0.336 m 1.936,4.308 -0.67,1.335 c -0.141,0.292 -0.255,0.603 -0.331,0.929 -0.071,0.304 -0.07,0.632 0.002,0.974 0.037,0.148 0.086,0.293 0.167,0.44 0.065,0.147 0.162,0.282 0.275,0.411 0.113,0.134 0.248,0.266 0.398,0.371 0.151,0.112 0.317,0.209 0.482,0.279 0.353,0.148 0.719,0.209 1.066,0.186 0.335,-0.023 0.646,-0.123 0.906,-0.303 0.127,-0.089 0.238,-0.196 0.337,-0.322 0.087,-0.127 0.159,-0.258 0.208,-0.408 0.038,-0.151 0.071,-0.313 0.07,-0.478 0,-0.315 -0.088,-0.649 -0.25,-0.955 -0.07,-0.13 -0.156,-0.263 -0.253,-0.39 -0.125,-0.159 -0.255,-0.311 -0.407,-0.458 -0.158,-0.174 -0.337,-0.341 -0.522,-0.498 -0.168,-0.146 -0.324,-0.279 -0.503,-0.422 -0.19,-0.153 -0.396,-0.298 -0.602,-0.435 -0.123,-0.085 -0.25,-0.17 -0.373,-0.256 m 3.41,-6.216 -2.028,3.793 c 0.121,0.061 0.248,0.122 0.37,0.185 0.685,0.356 1.33,0.782 1.95,1.267 0.301,0.248 0.593,0.507 0.863,0.785 0.473,0.485 0.867,1.031 1.17,1.623 0.339,0.697 0.554,1.414 0.622,2.128 0.074,0.7 -0.017,1.377 -0.256,1.982 -0.255,0.647 -0.669,1.207 -1.214,1.625 -0.533,0.415 -1.17,0.706 -1.864,0.858 -0.674,0.146 -1.39,0.168 -2.116,0.063 -0.714,-0.1 -1.428,-0.327 -2.114,-0.678 -0.691,-0.364 -1.337,-0.838 -1.889,-1.416 -0.524,-0.533 -0.941,-1.148 -1.231,-1.803 -0.254,-0.602 -0.396,-1.229 -0.417,-1.834 -0.004,-0.293 0.024,-0.579 0.074,-0.858 0.12,-0.604 0.317,-1.175 0.586,-1.709 0.076,-0.157 0.163,-0.312 0.25,-0.461 0.122,-0.227 0.25,-0.449 0.384,-0.66 l 0.17,-0.269 c -0.116,-0.058 -0.226,-0.096 -0.342,-0.154 -0.386,-0.155 -0.755,-0.332 -1.125,-0.514 -0.691,-0.351 -1.357,-0.759 -1.987,-1.231 -1.07,-0.785 -1.968,-1.794 -2.605,-2.931 -0.382,-0.683 -0.635,-1.4 -0.753,-2.129 -0.125,-0.782 -0.07,-1.547 0.138,-2.247 0.194,-0.668 0.521,-1.272 0.981,-1.776 0.486,-0.55 1.128,-0.966 1.857,-1.222 0.311,-0.113 0.635,-0.187 0.964,-0.24 1.442,-0.215 3,-0.044 4.507,0.497 0.791,0.277 1.564,0.635 2.316,1.048 0.339,0.195 0.667,0.417 0.985,0.653 0.117,0.091 0.217,0.177 0.339,0.26 l 1.094,-1.955 4.371,-10e-4 -2.517,4.602 c 0.096,0.092 0.186,0.195 0.282,0.297 1.039,1.142 1.937,2.422 2.624,3.766 0.297,0.568 0.561,1.139 0.798,1.723 0.054,0.134 0.102,0.262 0.155,0.399 h -3.42 c -0.03,-0.081 -0.054,-0.161 -0.084,-0.236 -0.09,-0.246 -0.191,-0.492 -0.297,-0.733 -0.241,-0.511 -0.513,-1.009 -0.829,-1.497 -0.155,-0.247 -0.332,-0.496 -0.525,-0.731 -0.079,-0.087 -0.164,-0.182 -0.237,-0.269 m -29.426,-0.66 8.062,-0.002 0.74,3.478 -8.062,0.002 z m -19.429,-6.662 3.914,0.002 1.889,8.87 c 0.078,0.361 0.183,0.724 0.331,1.071 0.107,0.25 0.229,0.492 0.379,0.734 0.258,0.414 0.597,0.785 0.992,1.078 0.424,0.311 0.904,0.541 1.386,0.66 0.482,0.125 0.967,0.159 1.415,0.084 0.421,-0.061 0.79,-0.226 1.085,-0.475 0.147,-0.13 0.273,-0.279 0.37,-0.45 0.152,-0.299 0.254,-0.639 0.285,-0.995 0.025,-0.387 0.006,-0.782 -0.084,-1.184 l -2,-9.395 h 3.892 l 2.112,9.97 c 0.136,0.614 0.202,1.239 0.217,1.841 0.008,0.716 -0.141,1.399 -0.435,1.999 -0.377,0.708 -0.949,1.271 -1.67,1.622 -0.688,0.355 -1.479,0.535 -2.316,0.512 -0.799,-0.005 -1.625,-0.201 -2.415,-0.578 -0.823,-0.4 -1.597,-0.962 -2.24,-1.64 -0.118,-0.123 -0.241,-0.246 -0.36,-0.37 l 0.461,2.169 -3.908,10e-4 z m -4.869,9.527 -7.269,0.002 c 0.042,0.134 0.086,0.268 0.123,0.405 0.036,0.102 0.077,0.198 0.114,0.306 0.108,0.289 0.253,0.569 0.441,0.839 0.355,0.517 0.81,0.968 1.349,1.302 0.494,0.309 1.033,0.512 1.574,0.605 0.589,0.104 1.17,0.097 1.704,-0.019 0.517,-0.124 0.974,-0.376 1.314,-0.746 0.336,-0.354 0.553,-0.809 0.644,-1.315 0.041,-0.234 0.059,-0.474 0.051,-0.729 -0.004,-0.098 -0.012,-0.184 -0.01,-0.282 -0.015,-0.122 -0.019,-0.243 -0.035,-0.368 m 2.844,-4.858 h -4.018 c -0.068,-0.09 -0.136,-0.175 -0.204,-0.259 -0.302,-0.4 -0.688,-0.739 -1.115,-1.004 -0.522,-0.321 -1.088,-0.521 -1.644,-0.586 -0.78,-0.098 -1.515,-10e-4 -2.168,0.274 -0.289,0.124 -0.565,0.289 -0.791,0.5 -0.232,0.201 -0.419,0.438 -0.562,0.706 -0.153,0.277 -0.262,0.582 -0.31,0.904 -0.06,0.32 -0.059,0.656 -0.025,1.003 0.02,0.091 0.028,0.194 0.043,0.286 0.02,0.127 0.041,0.251 0.067,0.389 h 11.347 c 0.021,0.124 0.041,0.245 0.072,0.369 0.234,1.24 0.282,2.469 0.127,3.636 -0.122,1.008 -0.458,1.938 -1.001,2.738 -0.563,0.813 -1.35,1.443 -2.286,1.833 -0.418,0.17 -0.853,0.296 -1.306,0.372 -0.945,0.163 -1.944,0.157 -2.943,-0.006 -0.879,-0.14 -1.758,-0.44 -2.577,-0.882 -0.985,-0.525 -1.889,-1.234 -2.651,-2.065 -0.406,-0.445 -0.759,-0.908 -1.075,-1.401 -0.754,-1.209 -1.271,-2.502 -1.528,-3.807 -0.123,-0.574 -0.198,-1.141 -0.212,-1.708 -0.042,-1.052 0.151,-2.052 0.533,-2.948 0.402,-0.909 1.037,-1.681 1.831,-2.262 0.71,-0.519 1.555,-0.869 2.484,-1.032 1.04,-0.188 2.143,-0.188 3.267,0 1.038,0.168 2.078,0.555 3.037,1.146 0.977,0.598 1.855,1.355 2.586,2.228 0.329,0.387 0.61,0.809 0.847,1.251 0.064,0.104 0.111,0.211 0.175,0.325 m -32.791,-4.669 3.914,0.001 1.889,8.871 c 0.073,0.361 0.189,0.723 0.331,1.071 0.112,0.249 0.24,0.491 0.384,0.734 0.254,0.414 0.587,0.785 0.999,1.078 0.418,0.314 0.887,0.544 1.38,0.662 0.482,0.122 0.967,0.157 1.414,0.081 0.416,-0.061 0.791,-0.223 1.086,-0.472 0.153,-0.13 0.267,-0.281 0.364,-0.45 0.158,-0.301 0.255,-0.641 0.286,-0.998 0.024,-0.386 0.011,-0.782 -0.085,-1.183 l -2,-9.393 h 3.887 l 2.129,9.967 c 0.13,0.614 0.195,1.239 0.205,1.844 0.009,0.713 -0.135,1.397 -0.435,1.997 -0.366,0.707 -0.949,1.27 -1.658,1.621 -0.694,0.356 -1.486,0.535 -2.322,0.515 -0.805,-0.007 -1.625,-0.203 -2.415,-0.58 -0.828,-0.4 -1.597,-0.962 -2.25,-1.64 -0.108,-0.124 -0.226,-0.247 -0.35,-0.37 l 0.461,2.168 -3.909,0.001 z m -17.438,0.001 3.92,-0.001 1.879,8.873 c 0.082,0.358 0.193,0.723 0.341,1.071 0.106,0.249 0.223,0.492 0.373,0.733 0.259,0.415 0.598,0.783 0.999,1.079 0.423,0.313 0.898,0.544 1.38,0.662 0.487,0.125 0.972,0.159 1.414,0.084 0.427,-0.061 0.796,-0.226 1.097,-0.475 0.142,-0.13 0.267,-0.281 0.353,-0.453 0.164,-0.298 0.26,-0.638 0.291,-0.995 0.03,-0.386 0.005,-0.782 -0.085,-1.183 l -1.994,-9.396 h 3.898 l 2.107,9.967 c 0.135,0.617 0.206,1.241 0.216,1.846 0.009,0.717 -0.141,1.398 -0.441,1.998 -0.371,0.707 -0.943,1.27 -1.669,1.621 -0.683,0.355 -1.48,0.533 -2.322,0.513 -0.793,-0.005 -1.619,-0.201 -2.404,-0.579 -0.828,-0.405 -1.597,-0.962 -2.24,-1.645 -0.129,-0.118 -0.247,-0.241 -0.354,-0.365 l 0.455,2.17 h -3.914 z m -4.986,9.74 c 0.07,-1.262 -0.193,-2.594 -0.759,-3.863 -0.347,-0.778 -0.872,-1.501 -1.512,-2.108 -0.449,-0.416 -0.965,-0.743 -1.51,-0.957 -0.506,-0.197 -1.015,-0.299 -1.52,-0.303 -0.56,-0.011 -1.093,0.098 -1.558,0.323 -0.272,0.132 -0.51,0.3 -0.72,0.508 -0.199,0.2 -0.36,0.423 -0.487,0.669 -0.258,0.541 -0.394,1.151 -0.399,1.786 -0.026,1.266 0.252,2.565 0.801,3.824 0.267,0.629 0.673,1.22 1.163,1.74 0.462,0.489 1.025,0.893 1.626,1.168 0.535,0.242 1.099,0.377 1.643,0.407 0.56,0.034 1.11,-0.072 1.575,-0.286 0.465,-0.215 0.839,-0.548 1.096,-0.972 0.327,-0.574 0.521,-1.229 0.561,-1.936 m 3.81,-2.072 c 0.247,1.175 0.25,2.343 0.022,3.423 -0.254,1.279 -0.861,2.399 -1.765,3.259 -0.668,0.604 -1.467,1.042 -2.381,1.302 -1.172,0.334 -2.462,0.393 -3.789,0.154 -0.94,-0.16 -1.88,-0.48 -2.769,-0.937 -1.017,-0.516 -1.943,-1.217 -2.743,-2.047 -0.908,-0.961 -1.625,-2.074 -2.095,-3.246 -0.487,-1.21 -0.753,-2.46 -0.763,-3.671 -0.011,-1.079 0.193,-2.099 0.622,-3.013 0.419,-0.894 1.066,-1.641 1.873,-2.182 0.785,-0.522 1.685,-0.866 2.668,-1.024 1.354,-0.222 2.808,-0.107 4.246,0.332 0.856,0.268 1.69,0.666 2.468,1.184 1.184,0.808 2.204,1.853 2.962,3.051 0.695,1.077 1.18,2.239 1.444,3.415 m -28.743,-2.701 h -3.561 c -0.016,-0.155 -0.027,-0.301 -0.038,-0.453 -0.054,-0.761 0.057,-1.492 0.343,-2.137 0.266,-0.642 0.692,-1.192 1.225,-1.617 0.286,-0.225 0.594,-0.406 0.926,-0.553 0.396,-0.175 0.814,-0.306 1.234,-0.399 1.202,-0.257 2.465,-0.295 3.769,-0.132 0.436,0.058 0.874,0.146 1.317,0.258 0.834,0.234 1.651,0.621 2.391,1.154 0.39,0.266 0.748,0.574 1.064,0.91 0.495,0.507 0.874,1.099 1.118,1.723 0.263,0.67 0.384,1.355 0.386,2.015 0,0.323 -0.044,0.634 -0.12,0.94 -0.123,0.517 -0.384,0.969 -0.762,1.322 -0.211,0.194 -0.438,0.368 -0.694,0.51 -0.223,0.135 -0.464,0.241 -0.716,0.326 -0.311,0.103 -0.618,0.182 -0.93,0.261 -0.457,0.111 -0.915,0.213 -1.396,0.298 -0.749,0.148 -1.498,0.296 -2.248,0.453 -0.312,0.068 -0.607,0.163 -0.896,0.287 -0.192,0.088 -0.368,0.203 -0.515,0.335 -0.089,0.093 -0.166,0.207 -0.195,0.33 -0.038,0.142 -0.049,0.3 -0.022,0.452 0.015,0.113 0.052,0.231 0.094,0.354 0.052,0.102 0.11,0.211 0.184,0.309 0.205,0.275 0.474,0.504 0.767,0.673 0.36,0.194 0.723,0.328 1.095,0.407 0.18,0.037 0.366,0.064 0.54,0.079 0.409,0.038 0.81,0.026 1.205,-0.031 0.178,-0.025 0.355,-0.072 0.532,-0.122 0.355,-0.102 0.663,-0.297 0.909,-0.564 0.121,-0.129 0.224,-0.276 0.31,-0.442 0.071,-0.149 0.12,-0.316 0.146,-0.488 0.004,-0.063 0.017,-0.128 0.026,-0.191 0.007,-0.104 0.02,-0.21 0.022,-0.313 l 3.399,10e-4 c 0.015,0.132 0.03,0.262 0.04,0.405 0.06,0.756 -0.067,1.487 -0.387,2.107 -0.278,0.59 -0.711,1.097 -1.257,1.461 -0.872,0.554 -1.891,0.896 -2.995,1.005 -1.141,0.13 -2.355,0.018 -3.551,-0.321 -0.416,-0.118 -0.823,-0.272 -1.226,-0.462 -0.734,-0.346 -1.409,-0.838 -1.967,-1.438 -0.524,-0.551 -0.943,-1.191 -1.226,-1.857 -0.22,-0.533 -0.348,-1.076 -0.355,-1.605 -0.019,-0.543 0.099,-1.057 0.327,-1.505 0.128,-0.235 0.288,-0.458 0.472,-0.651 0.356,-0.363 0.785,-0.666 1.266,-0.886 0.267,-0.126 0.551,-0.237 0.835,-0.336 0.338,-0.118 0.682,-0.227 1.031,-0.316 0.7,-0.182 1.411,-0.342 2.139,-0.468 0.27,-0.045 0.535,-0.092 0.804,-0.15 0.183,-0.042 0.356,-0.083 0.533,-0.138 0.194,-0.056 0.375,-0.141 0.529,-0.249 0.127,-0.089 0.237,-0.201 0.324,-0.343 0.056,-0.107 0.101,-0.234 0.112,-0.362 0.017,-0.156 0.005,-0.321 -0.027,-0.482 -0.043,-0.145 -0.098,-0.301 -0.168,-0.442 -0.081,-0.139 -0.161,-0.271 -0.269,-0.396 -0.237,-0.265 -0.511,-0.495 -0.826,-0.66 -0.299,-0.169 -0.618,-0.291 -0.941,-0.363 -0.919,-0.196 -1.83,-0.167 -2.641,0.073 -0.248,0.071 -0.456,0.179 -0.641,0.321 -0.355,0.253 -0.603,0.607 -0.74,1.025 -0.059,0.194 -0.101,0.399 -0.11,0.606 0.003,0.068 0.005,0.141 0.002,0.209 -0.007,0.084 0.001,0.173 0.004,0.263" /></g><g
           transform="translate(400.8794,412.3034)"
           id="g48"><path
             id="path50"
             style="fill:#ef3026;fill-opacity:1;fill-rule:nonzero;stroke:none"
             d="m 0,0 c -1.291,0.893 -3.063,0.571 -3.956,-0.721 l -34.933,-50.499 8.971,17.626 c 0.712,1.4 0.155,3.112 -1.245,3.824 -1.4,0.713 -3.112,0.155 -3.824,-1.245 l -0.682,-1.34 3.346,8.458 c 0.577,1.46 -0.138,3.112 -1.598,3.69 -1.463,0.579 -3.113,-0.138 -3.69,-1.598 l -21.898,-55.359 -8.812,36.083 c -0.373,1.526 -1.916,2.459 -3.437,2.088 -1.526,-0.373 -2.46,-1.911 -2.088,-3.437 l 6.145,-25.163 -23.966,46.54 c -0.719,1.397 -2.431,1.945 -3.83,1.226 -1.396,-0.718 -1.945,-2.433 -1.226,-3.829 l 5.674,-11.018 -12.195,19.043 c -0.847,1.323 -2.607,1.709 -3.927,0.861 -1.323,-0.846 -1.708,-2.605 -0.862,-3.927 l 16.859,-26.328 -14.024,17.402 c -0.984,1.222 -2.775,1.415 -3.998,0.43 -1.223,-0.985 -1.415,-2.775 -0.43,-3.998 l 27.798,-34.493 -18.939,16.122 c -1.196,1.019 -2.99,0.874 -4.008,-0.322 -1.018,-1.196 -0.874,-2.99 0.322,-4.008 l 34.633,-29.483 -42.023,5.641 c -1.555,0.201 -2.988,-0.885 -3.197,-2.44 -0.209,-1.557 0.884,-2.988 2.44,-3.197 l 35.069,-4.707 -29.854,-6.18 c -1.538,-0.318 -2.527,-1.823 -2.208,-3.361 0.278,-1.343 1.461,-2.268 2.781,-2.268 0.191,0 0.385,0.02 0.579,0.06 l 24.301,5.03 -34.57,-17.002 c -1.41,-0.694 -1.99,-2.398 -1.297,-3.807 0.494,-1.006 1.504,-1.589 2.553,-1.589 0.422,0 0.85,0.094 1.253,0.292 l 37.561,18.473 -51.022,-47.89 c -1.145,-1.075 -1.202,-2.874 -0.128,-4.019 0.56,-0.596 1.316,-0.898 2.074,-0.898 0.698,0 1.397,0.256 1.945,0.771 l 22.798,21.397 -25.5,-29.153 c -1.034,-1.182 -0.914,-2.979 0.268,-4.013 0.539,-0.472 1.206,-0.703 1.871,-0.703 0.792,0 1.579,0.329 2.141,0.972 l 18.319,20.943 -38.904,-52.59 c -0.933,-1.262 -0.667,-3.043 0.595,-3.977 0.509,-0.376 1.101,-0.558 1.689,-0.558 0.871,0 1.731,0.398 2.288,1.152 l 13.489,18.234 -30.961,-46.658 c -0.869,-1.309 -0.512,-3.074 0.797,-3.942 0.484,-0.321 1.029,-0.474 1.569,-0.474 0.921,0 1.825,0.446 2.372,1.271 l 67.178,101.237 -25.112,-50.412 c -0.7,-1.405 -0.128,-3.112 1.277,-3.812 0.407,-0.203 0.84,-0.299 1.266,-0.299 1.044,0 2.05,0.577 2.547,1.576 l 29.861,59.947 -12.898,-41.56 c -0.465,-1.5 0.373,-3.093 1.873,-3.559 0.281,-0.087 0.565,-0.128 0.844,-0.128 1.213,0 2.336,0.783 2.715,2.001 l 6.768,21.809 -6.748,-33.42 c -0.311,-1.539 0.685,-3.039 2.224,-3.35 0.19,-0.038 0.379,-0.056 0.566,-0.056 1.326,0 2.512,0.931 2.784,2.281 l 11.213,55.533 -1.362,-46.43 c -0.046,-1.569 1.189,-2.878 2.759,-2.924 0.028,-0.001 0.057,-0.002 0.085,-0.002 1.532,0 2.795,1.218 2.841,2.76 l 2.29,78.046 c 0.248,0.291 0.432,0.628 0.548,0.994 l 39.228,26.826 c 1.296,0.887 1.628,2.656 0.742,3.952 -0.887,1.297 -2.656,1.629 -3.952,0.742 l -22.65,-15.488 27.468,32.275 c 1.018,1.196 0.873,2.99 -0.323,4.008 -1.196,1.018 -2.99,0.874 -4.008,-0.322 l -5.199,-6.109 26.628,38.493 C 1.614,-2.665 1.292,-0.893 0,0" /></g><g
           transform="translate(145.784,262.377)"
           id="g52"><path
             id="path54"
             style="fill:#a7a5a6;fill-opacity:1;fill-rule:nonzero;stroke:none"
             d="M 0,0 C -0.105,0.118 -0.187,0.24 -0.281,0.363 L -76.948,0.36 c -1.233,0 -2.222,-0.994 -2.222,-2.221 0.001,-1.229 0.992,-2.225 2.224,-2.225 L 5.166,-4.084 C 3.174,-3.016 1.441,-1.652 0,0" /></g><g
           transform="translate(263.3219,262.7406)"
           id="g56"><path
             id="path58"
             style="fill:#a7a5a6;fill-opacity:1;fill-rule:nonzero;stroke:none"
             d="m 0,0 -70.874,-0.001 c -1.394,-1.194 -2.937,-2.302 -4.644,-3.323 -0.682,-0.408 -1.417,-0.773 -2.173,-1.124 l 77.687,0.002 C 1.223,-4.448 2.219,-3.454 2.219,-2.225 2.218,-0.995 1.227,-0.005 0,0" /></g><g
           transform="translate(773.0533,258.2959)"
           id="g60"><path
             id="path62"
             style="fill:#a7a5a6;fill-opacity:1;fill-rule:nonzero;stroke:none"
             d="m 0,0 -422.421,-0.002 c -1.233,-0.001 -2.224,0.992 -2.225,2.222 0,1.23 0.995,2.221 2.227,2.222 L 0.003,4.447 C 1.236,4.447 2.221,3.451 2.222,2.222 2.223,0.992 1.232,0.001 0,0" /></g><g
           transform="translate(351.3912,324.8203)"
           id="g64"><path
             id="path66"
             style="fill:#fff31a;fill-opacity:1;fill-rule:evenodd;stroke:none"
             d="m 0,0 c 0,-6.39 -5.181,-11.567 -11.566,-11.567 -6.384,10e-4 -11.572,5.176 -11.566,11.566 -0.005,6.387 5.176,11.57 11.565,11.569 C -5.182,11.568 0.001,6.385 0,0" /></g></g></g></g></svg>