<?xml version="1.0" encoding="UTF-8" standalone="no"?>
<svg
   xmlns:dc="http://purl.org/dc/elements/1.1/"
   xmlns:cc="http://creativecommons.org/ns#"
   xmlns:rdf="http://www.w3.org/1999/02/22-rdf-syntax-ns#"
   xmlns:svg="http://www.w3.org/2000/svg"
   xmlns="http://www.w3.org/2000/svg"
   viewBox="0 0 491.33868 188.976"
   height="188.976"
   width="491.33868"
   xml:space="preserve"
   id="svg2"
   version="1.1"><metadata
     id="metadata8"><rdf:RDF><cc:Work
         rdf:about=""><dc:format>image/svg+xml</dc:format><dc:type
           rdf:resource="http://purl.org/dc/dcmitype/StillImage" /></cc:Work></rdf:RDF></metadata><defs
     id="defs6"><clipPath
       id="clipPath18"
       clipPathUnits="userSpaceOnUse"><path
         id="path16"
         d="m 11.338,58.11 h 353.268 v 56.693 H 11.338 Z" /></clipPath><clipPath
       id="clipPath68"
       clipPathUnits="userSpaceOnUse"><path
         id="path66"
         d="M 31.779,47.01 H 42.662 V 57.693 H 31.779 Z" /></clipPath><clipPath
       id="clipPath84"
       clipPathUnits="userSpaceOnUse"><path
         id="path82"
         d="m 164.974,47.01 h 10.883 v 10.683 h -10.883 z" /></clipPath><clipPath
       id="clipPath100"
       clipPathUnits="userSpaceOnUse"><path
         id="path98"
         d="m 252.342,47.01 h 10.883 v 10.683 h -10.883 z" /></clipPath></defs><g
     transform="matrix(1.3333333,0,0,-1.3333333,0,188.976)"
     id="g10"><g
       id="g12"><g
         clip-path="url(#clipPath18)"
         id="g14"><g
           transform="translate(70.7174,99.6646)"
           id="g20"><path
             id="path22"
             style="fill:#114681;fill-opacity:1;fill-rule:nonzero;stroke:none"
             d="M 0,0 H -0.001 C 0,-0.001 0,-0.002 0,-0.003 Z" /></g><g
           transform="translate(65.8198,87.0396)"
           id="g24"><path
             id="path26"
             style="fill:#114681;fill-opacity:1;fill-rule:nonzero;stroke:none"
             d="M 0,0 C -1.399,-0.056 -2.743,-0.056 -4.03,-0.056 H -5.485 C -6.101,0 -6.605,0 -6.94,0 l -0.225,13.322 c 1.008,-1.008 2.015,-1.959 2.967,-2.911 0.952,-1.007 1.848,-1.959 2.743,-2.967 0.895,0.841 1.903,1.68 2.966,2.52 1.047,0.771 2.202,1.651 3.413,2.531 l -0.026,0.127 c 0,10e-4 0,0.002 -10e-4,0.003 -0.919,0.927 -1.789,1.903 -2.658,2.88 -0.895,1.064 -1.735,2.127 -2.574,3.247 -1.232,-0.952 -2.408,-1.847 -3.527,-2.687 -1.176,-0.84 -2.239,-1.623 -3.303,-2.351 l 0.225,11.027 c 0.391,0 0.839,0.056 1.343,0.056 h 2.183 c 1.287,0 2.463,0 3.582,-0.056 1.12,0 2.239,-0.056 3.247,-0.112 L 5.15,28.267 C 3.358,28.211 1.567,28.156 -0.055,28.1 c -1.624,-0.056 -3.191,-0.056 -4.702,-0.056 -1.512,0 -3.079,0 -4.647,0.056 -1.606,0.055 -2.258,0.112 -4.083,0.167 l -1.831,-1.594 c -0.263,-2.018 -0.405,-5.889 -0.496,-7.232 -0.091,-1.343 -0.046,-3.965 -0.032,-5.852 -0.586,0.629 -1.158,1.272 -1.73,1.916 -0.896,1.064 -1.735,2.127 -2.575,3.247 -1.232,-0.952 -2.406,-1.847 -3.526,-2.687 -1.175,-0.84 -2.239,-1.623 -3.303,-2.351 l 0.224,11.027 c 0.392,0 0.84,0.056 1.343,0.056 h 2.183 c 1.288,0 2.463,0 3.583,-0.056 1.119,0 2.804,0.02 2.804,0.02 l 1.141,2.028 0.866,1.458 c -0.333,-0.011 -0.496,0 -0.828,-0.011 -1.453,-0.045 -2.886,-0.091 -4.208,-0.136 -1.622,-0.056 -3.19,-0.056 -4.701,-0.056 -1.511,0 -3.079,0 -4.646,0.056 -1.623,0.056 -3.359,0.111 -5.206,0.167 L -35.992,26.7 c 0.112,-2.519 0.168,-4.981 0.224,-7.333 0.056,-2.351 0.112,-4.646 0.112,-6.885 0,-2.294 -0.056,-4.589 -0.112,-7.053 -0.056,-2.406 -0.112,-4.981 -0.224,-7.612 l 1.456,-1.343 c 0.672,0.055 1.343,0.055 2.015,0.111 h 2.127 2.127 c 0.727,-0.056 1.455,-0.056 2.183,-0.111 -0.28,2.855 -0.505,5.709 -0.672,8.508 -0.168,2.798 -0.224,5.597 -0.224,8.34 1.119,-1.008 2.128,-2.015 3.023,-2.967 0.951,-1.007 1.846,-1.959 2.687,-2.911 0.896,0.841 1.903,1.68 2.966,2.52 0.77,0.566 1.596,1.191 2.462,1.833 -0.01,-2.068 -0.06,-4.15 -0.11,-6.368 -0.057,-2.406 -0.113,-4.981 -0.225,-7.612 l 1.456,-1.343 c 1.455,0.055 2.966,0.111 4.589,0.111 1.624,0.057 3.415,0.057 5.318,0.057 2.24,0 4.254,0 6.102,-0.057 C 2.919,-3.464 6.756,-3.503 6.877,-3.5 5.63,-2.241 4.829,-0.983 4.465,0.275 2.814,0.165 1.325,0.055 0,0" /></g><g
           transform="translate(241.1056,103.3424)"
           id="g28"><path
             id="path30"
             style="fill:#114681;fill-opacity:1;fill-rule:nonzero;stroke:none"
             d="m 0,0 c -0.728,-4.862 -0.825,-20.108 -0.825,-20.108 l 7.791,-0.128 c 0.071,-0.706 0.253,10.06 0.436,13.477 2.548,-1.879 5.726,-5.066 6.075,-5.414 l 7.688,5.948 c 0.054,-1.509 0.106,0.645 0.106,-1.011 0.05,-1.703 0.05,-3.504 0.05,-5.452 v -4.623 c -0.05,-1.023 -0.05,-1.947 -0.102,-2.824 0.62,0.049 1.244,0.049 1.813,0.098 h 1.765 1.763 c 0.57,-0.049 1.14,-0.049 1.661,-0.098 l 1.166,1.354 c -0.104,2.24 0.052,3.674 0,5.913 -0.052,2.19 0.087,4.939 0.087,7.129 0,2.239 0.307,4.448 -0.217,6.583 -1.28,5.215 -5.103,3.676 -8.2,1.626 C 17.962,0.42 15.517,-1.871 13.911,-3.044 12.475,-1.697 9.999,1.13 8.173,2.695 4.357,5.965 0.727,4.862 0,0 m -7.688,11.637 c -1.639,0.357 -3.106,0.261 -4.637,0.261 -5.445,0 -9.731,-1.576 -13.033,-4.474 -3.244,-2.899 -4.866,-6.781 -4.866,-11.539 0,-4.977 1.564,-8.86 4.634,-11.594 3.129,-2.79 7.472,-4.157 13.091,-4.157 0.522,0 1.564,0.055 3.128,0.11 0.464,0.055 0.811,0.055 1.043,0.055 1.448,2.405 2.953,4.648 4.519,6.781 1.563,2.133 3.185,4.101 4.806,5.961 -1.101,0.93 -2.259,1.859 -3.3,2.844 -1.101,0.984 -2.203,2.077 -3.245,3.172 -1.041,-1.149 -2.084,-2.188 -3.128,-3.172 -1.042,-1.039 -2.084,-1.969 -3.128,-2.844 0.928,-0.984 1.795,-1.968 2.664,-3.117 0.871,-1.094 1.738,-2.242 2.607,-3.5 -0.522,-0.055 -0.869,-0.055 -1.158,-0.109 h -0.694 c -3.882,0 -6.894,1.038 -9.096,3.172 -2.258,2.132 -3.359,5.031 -3.359,8.695 0,3.117 0.869,5.523 2.665,7.218 1.737,1.697 4.228,2.571 7.472,2.571 0.926,0 1.854,-0.055 2.781,-0.109 0.867,-0.055 1.736,-0.165 2.606,-0.328 l 0.29,0.328 z m 76.044,0.131 c -1.131,-0.056 -1.965,-0.113 -2.56,-0.113 -0.535,-0.056 -1.071,-0.056 -1.547,-0.056 -0.478,0 -1.012,0 -1.607,0.056 -0.537,0 -1.31,0.057 -2.322,0.113 L 58.653,10.25 c 0.12,-2.528 0.179,-4.946 0.237,-7.362 0.06,-2.36 0.119,-4.665 0.119,-6.914 0,-2.304 -0.059,-4.609 -0.119,-7.081 -0.058,-2.417 -0.117,-5.003 -0.237,-7.644 l 1.548,-1.349 c 0.714,0.056 1.367,0.056 2.083,0.112 h 2.024 2.024 c 0.714,-0.056 1.368,-0.056 2.024,-0.112 -0.059,2.305 -0.119,4.44 -0.178,6.295 -0.061,1.91 -0.061,3.71 -0.061,5.396 v 2.304 h 12.562 c 0,-2.473 0,-4.89 -0.06,-7.194 0,-2.304 -0.059,-4.609 -0.119,-6.801 0.655,0.056 1.309,0.056 2.025,0.112 h 2.024 2.082 c 0.714,-0.056 1.369,-0.056 2.083,-0.112 l 1.55,1.349 c -0.119,2.304 -0.238,4.722 -0.298,7.138 -0.061,2.473 -0.061,4.946 -0.061,7.587 0,2.586 0,5.059 0.061,7.419 0.06,2.361 0.179,4.665 0.298,6.857 l -1.668,1.518 c -1.012,-0.056 -1.785,-0.113 -2.381,-0.113 -0.535,-0.056 -1.069,-0.056 -1.606,-0.056 -0.477,0 -1.013,0 -1.609,0.056 -0.536,0 -1.369,0.057 -2.5,0.113 0.06,-2.08 0.119,-4.215 0.119,-6.52 0.06,-2.304 0.06,-4.833 0.06,-7.531 H 68.117 V 0.19 c 0,1.798 0,3.652 0.061,5.564 0.059,1.912 0.119,3.934 0.178,6.014 m -28.658,-29.517 -0.116,12.36 c 3.476,-0.218 6.082,-0.82 7.877,-1.859 1.286,-0.744 2.723,-1.647 2.723,-4.321 0,-1.805 -0.869,-3.226 -2.664,-4.266 -1.798,-1.093 -4.344,-1.695 -7.82,-1.914 m 0.51,31.892 -8.999,-6.547 C 31.09,2.64 30.501,-13.359 30.501,-18.339 l 1.493,-1.761 h 8.573 c 3.185,0 5.791,0.109 7.878,0.328 2.026,0.165 3.648,0.492 4.808,0.93 1.968,0.765 3.474,1.75 4.459,3.007 0.985,1.204 1.449,2.735 1.449,4.485 0,2.024 -0.838,4.696 -2.516,6.008 -1.623,1.367 -4.051,3.417 -6.723,4.149 -2.671,0.733 -6.034,1.221 -9.91,0.976 0.187,4.289 0.121,9.613 0.196,14.36" /></g><path
           id="path32"
           style="fill:#f68429;fill-opacity:1;fill-rule:nonzero;stroke:none"
           d="M 28.486,64.105 H 331.37 V 77.316 H 28.486 Z" /><g
           transform="translate(101.8522,96.5286)"
           id="g34"><path
             id="path36"
             style="fill:#114681;fill-opacity:1;fill-rule:nonzero;stroke:none"
             d="m 0,0 c -0.952,-1.119 -1.903,-2.239 -2.967,-3.358 -1.008,-1.12 -2.071,-2.183 -3.135,-3.303 0.896,-0.727 1.847,-1.511 2.855,-2.351 1.008,-0.896 2.071,-1.847 3.247,-2.967 1.119,1.064 2.239,2.016 3.19,2.911 1.008,0.84 1.959,1.68 2.91,2.407 -1.119,1.12 -2.183,2.183 -3.19,3.303 C 1.903,-2.239 0.951,-1.119 0,0" /></g><g
           transform="translate(118.2686,94.8156)"
           id="g38"><path
             id="path40"
             style="fill:#114681;fill-opacity:1;fill-rule:nonzero;stroke:none"
             d="m 0,0 c -0.427,0.662 -3.515,5.437 -5.222,8.206 -2.966,4.758 -5.933,9.572 -8.732,14.442 -1.232,-0.896 -2.462,-1.791 -3.75,-2.743 -1.288,-0.896 -2.575,-1.735 -3.862,-2.575 L -18.6,13.02 C -20.448,9.997 -22.462,6.863 -24.589,3.504 -25.457,2.17 -31.891,-8.115 -31.826,-8.079 l 2.647,-3.642 c 2.183,3.638 4.365,7.165 6.604,10.579 2.183,3.415 4.422,6.717 6.717,9.852 2.016,-3.303 4.031,-6.717 6.046,-10.076 1.959,-3.414 3.974,-6.829 5.933,-10.355 1.4,1.176 2.743,2.239 4.087,3.19 0.475,0.352 0.943,0.688 1.405,1.011 C 1.734,-7.741 1.862,-7.947 1.999,-8.139 2.022,-8.172 2.051,-8.2 2.076,-8.233 3.504,-5.808 2.218,-3.674 1.152,-1.771 0.796,-1.133 0.428,-0.662 0,0" /></g><g
           transform="translate(134.9456,100.559)"
           id="g42"><path
             id="path44"
             style="fill:#114681;fill-opacity:1;fill-rule:nonzero;stroke:none"
             d="m 0,0 c -1.456,-1.176 -3.583,-1.904 -6.38,-2.127 v 1.623 c 0,1.679 0,3.638 0.053,5.765 0.057,2.183 0.169,4.59 0.281,7.165 2.688,-0.28 4.702,-1.063 6.103,-2.351 C 1.454,8.844 2.127,7.109 2.127,4.982 2.127,2.854 1.398,1.175 0,0 m 9.068,-6.885 c -1.456,1.623 -2.8,3.134 -3.975,4.534 1.848,0.616 3.302,1.567 4.254,2.911 0.953,1.343 1.456,3.022 1.456,5.037 0,1.791 -0.503,3.359 -1.456,4.702 -0.952,1.4 -2.296,2.463 -4.086,3.247 -1.063,0.504 -2.463,0.839 -4.197,1.064 -1.792,0.167 -4.703,0.279 -8.788,0.279 l -5.316,0.003 -2.299,-2.635 c 0.112,-2.519 0.169,-3.861 0.225,-6.212 0.056,-2.312 0.023,-6.991 0.112,-6.926 v -0.015 c 0,-2.239 -0.056,-4.59 -0.112,-7.053 -0.04,-1.726 -0.08,-3.538 -0.14,-5.416 l -0.008,0.013 v -3.547 c 0.634,-0.021 1.838,0.025 1.838,0.025 0.502,0.028 0.985,0.038 1.5,0.081 h 2.071 2.185 c 0.671,-0.056 1.398,-0.056 2.126,-0.112 -0.224,2.127 -0.392,4.254 -0.56,6.381 -0.112,2.072 -0.225,4.199 -0.278,6.325 l 2.797,-0.056 c 1.681,-2.127 3.415,-4.422 5.094,-6.773 1.735,-2.294 3.47,-4.757 5.262,-7.276 1.12,1.175 2.351,2.239 3.527,3.246 1.23,1.008 2.463,1.959 3.749,2.855 -1.846,1.959 -3.524,3.751 -4.981,5.318" /></g><g
           transform="translate(90.8088,115.218)"
           id="g46"><path
             id="path48"
             style="fill:#114681;fill-opacity:1;fill-rule:nonzero;stroke:none"
             d="m 0,0 c 0,0 -1.495,-3.263 -1.794,-3.884 -0.3,-0.621 -10.978,0.024 -10.978,0.024 l -0.336,-8.634 12.352,-5.251 c 0,-10e-4 -2.818,-13.133 -2.818,-13.133 l -1.57,-0.878 c 0,0 -3.52,0.101 -5.59,0.07 -3.078,-0.046 -9.55,0.056 -9.55,0.056 l 2.13,4.028 7.793,-0.309 2.355,8.634 -12.39,5.158 0.288,12.439 1.944,1.263 z" /></g><g
           transform="translate(152.456,110.3003)"
           id="g50"><path
             id="path52"
             style="fill:#114681;fill-opacity:1;fill-rule:nonzero;stroke:none"
             d="m 0,0 -0.052,-28.27 c 0,0 5.791,3.752 9.19,5.383 0,4.009 -0.277,11.058 -0.277,12.893 0,3.924 0.057,10.147 0.057,10.147 l 7.624,0.176 c 0,0 1.626,2.123 2.186,3.468 -8.577,0.36 -23.322,0.281 -23.322,0.281 h -5.83 c 0,0 0.662,-2.263 2.411,-3.7" /></g><g
           transform="translate(171.8993,114.0306)"
           id="g54"><path
             id="path56"
             style="fill:#114681;fill-opacity:1;fill-rule:nonzero;stroke:none"
             d="m 0,0 -1.238,-1.607 -0.897,-30.394 c 0,0 5.792,3.753 9.191,5.384 0,4.008 -0.276,11.057 -0.276,12.893 0,3.924 0.462,11.605 1.102,14.079" /></g><g
           transform="translate(200.6913,115.218)"
           id="g58"><path
             id="path60"
             style="fill:#114681;fill-opacity:1;fill-rule:nonzero;stroke:none"
             d="m 0,0 c 0,0 -1.495,-3.263 -1.794,-3.884 -0.3,-0.621 -10.977,0.024 -10.977,0.024 l -0.337,-8.634 12.352,-5.251 c 0,-10e-4 -2.818,-13.133 -2.818,-13.133 l -1.569,-0.878 c 0,0 -3.521,0.101 -5.591,0.07 -3.078,-0.046 -9.55,0.056 -9.55,0.056 l 2.131,4.028 7.792,-0.309 1.728,8.894 -11.763,4.898 0.288,12.439 1.944,1.263 z" /></g></g></g><g
       id="g62"><g
         clip-path="url(#clipPath68)"
         id="g64"><g
           transform="translate(37.2217,57.6929)"
           id="g70"><path
             id="path72"
             style="fill:#f68429;fill-opacity:1;fill-rule:nonzero;stroke:none"
             d="m 0,0 c -0.849,-0.998 -1.698,-1.997 -2.646,-2.995 -0.899,-0.999 -1.847,-1.947 -2.796,-2.946 0.799,-0.648 1.647,-1.348 2.546,-2.097 0.899,-0.798 1.847,-1.647 2.896,-2.645 0.998,0.948 1.997,1.797 2.845,2.595 0.899,0.75 1.747,1.499 2.596,2.147 C 4.442,-4.942 3.494,-3.994 2.595,-2.995 1.697,-1.997 0.848,-0.998 0,0" /></g></g></g><text
       id="text76"
       style="font-variant:normal;font-weight:300;font-stretch:condensed;font-size:12.5px;font-family:'ITC Avant Garde Std Bk Cn';-inkscape-font-specification:ITCAvantGardeStd-BkCn;writing-mode:lr-tb;fill:#104076;fill-opacity:1;fill-rule:nonzero;stroke:none"
       transform="matrix(1,0,0,-1,46.1747,47.0097)"><tspan
         id="tspan74"
         y="0"
         x="0 5.2125001 11.5875 18.049999 24.424999 32.450001 35.387501 39.099998 42.474998 47.762501 53.575001 60.037498 66.412498 69.787498 73.162498 78.449997 84.824997 91.199997 97.662498 101.0375 107.2625 113.725">Landwirtschaftsbauten </tspan></text>
<g
       id="g78"><g
         clip-path="url(#clipPath84)"
         id="g80"><g
           transform="translate(170.4154,57.6929)"
           id="g86"><path
             id="path88"
             style="fill:#f68429;fill-opacity:1;fill-rule:nonzero;stroke:none"
             d="m 0,0 c -0.849,-0.998 -1.698,-1.997 -2.646,-2.995 -0.899,-0.999 -1.847,-1.947 -2.796,-2.946 0.799,-0.648 1.647,-1.348 2.546,-2.097 0.899,-0.798 1.847,-1.647 2.896,-2.645 0.998,0.948 1.997,1.797 2.845,2.595 0.899,0.75 1.747,1.499 2.596,2.147 C 4.442,-4.942 3.494,-3.994 2.595,-2.995 1.697,-1.997 0.848,-0.998 0,0" /></g></g></g><text
       id="text92"
       style="font-variant:normal;font-weight:300;font-stretch:condensed;font-size:12.5px;font-family:'ITC Avant Garde Std Bk Cn';-inkscape-font-specification:ITCAvantGardeStd-BkCn;writing-mode:lr-tb;fill:#104076;fill-opacity:1;fill-rule:nonzero;stroke:none"
       transform="matrix(1,0,0,-1,179.3685,47.0097)"><tspan
         id="tspan90"
         y="0"
         x="0 6.4749999 12.7 19.075001 25.450001 31.262501 37.724998 44.1875 50.650002 57.025002 63.25 69.712502">Bedachungen </tspan></text>
<g
       id="g94"><g
         clip-path="url(#clipPath100)"
         id="g96"><g
           transform="translate(257.7846,57.6929)"
           id="g102"><path
             id="path104"
             style="fill:#f68429;fill-opacity:1;fill-rule:nonzero;stroke:none"
             d="m 0,0 c -0.849,-0.998 -1.698,-1.997 -2.646,-2.995 -0.899,-0.999 -1.847,-1.947 -2.796,-2.946 0.799,-0.648 1.647,-1.348 2.546,-2.097 0.899,-0.798 1.847,-1.647 2.896,-2.645 0.998,0.948 1.997,1.797 2.845,2.595 0.899,0.75 1.747,1.499 2.596,2.147 C 4.442,-4.942 3.494,-3.994 2.595,-2.995 1.697,-1.997 0.848,-0.998 0,0" /></g></g></g><text
       id="text110"
       style="font-variant:normal;font-weight:300;font-stretch:condensed;font-size:12.5px;font-family:'ITC Avant Garde Std Bk Cn';-inkscape-font-specification:ITCAvantGardeStd-BkCn;writing-mode:lr-tb;fill:#104076;fill-opacity:1;fill-rule:nonzero;stroke:none"
       transform="matrix(1,0,0,-1,266.7377,47.0097)"><tspan
         id="tspan106"
         y="0"
         x="0 6.4375 12.8125 16.525 22.9 26.612499 33.075001 39.450001 45.912498 52.287498 58.512501">Agrarhandel</tspan><tspan
         id="tspan108"
         y="15.8"
         x="-165.75 -159.325 -152.95 -146.4875 -140.1125 -133.7375 -130.02499 -123.5625 -117.1875 -110.9625 -107.7 -100.9375">Sandgrube 2 </tspan></text>
<text
       id="text114"
       style="font-variant:normal;font-weight:300;font-stretch:condensed;font-size:11px;font-family:'ITC Avant Garde Std Bk Cn';-inkscape-font-specification:ITCAvantGardeStd-BkCn;writing-mode:lr-tb;fill:#104076;fill-opacity:1;fill-rule:nonzero;stroke:none"
       transform="matrix(1,0,0,-1,169.0645,33.2097)"><tspan
         id="tspan112"
         y="0"
         x="0">|</tspan></text>
<text
       id="text118"
       style="font-variant:normal;font-weight:300;font-stretch:condensed;font-size:12.5px;font-family:'ITC Avant Garde Std Bk Cn';-inkscape-font-specification:ITCAvantGardeStd-BkCn;writing-mode:lr-tb;fill:#104076;fill-opacity:1;fill-rule:nonzero;stroke:none"
       transform="matrix(1,0,0,-1,176.9138,31.2097)"><tspan
         id="tspan116"
         y="0"
         x="0 6.7624998 13.525 20.2875 27.049999 30.3125 36.837502 43.25 52.9375 59.162498 62.875 68.162498 76.1875 79.125">6027 Römerswil</tspan></text>
</g></svg>