<?xml version="1.0" encoding="UTF-8" standalone="no"?>
<svg
   xmlns:dc="http://purl.org/dc/elements/1.1/"
   xmlns:cc="http://creativecommons.org/ns#"
   xmlns:rdf="http://www.w3.org/1999/02/22-rdf-syntax-ns#"
   xmlns:svg="http://www.w3.org/2000/svg"
   xmlns="http://www.w3.org/2000/svg"
   viewBox="0 0 7559.0532 1700.7867"
   height="1700.7867"
   width="7559.0532"
   xml:space="preserve"
   id="svg2"
   version="1.1"><metadata
     id="metadata8"><rdf:RDF><cc:Work
         rdf:about=""><dc:format>image/svg+xml</dc:format><dc:type
           rdf:resource="http://purl.org/dc/dcmitype/StillImage" /></cc:Work></rdf:RDF></metadata><defs
     id="defs6"><clipPath
       id="clipPath20"
       clipPathUnits="userSpaceOnUse"><path
         id="path18"
         d="M 732.279,124.217 H 5007.362 V 1187.374 H 732.279 Z" /></clipPath></defs><g
     transform="matrix(1.3333333,0,0,-1.3333333,0,1700.7867)"
     id="g10"><path
       id="path12"
       style="fill:#0c2162;fill-opacity:1;fill-rule:nonzero;stroke:none"
       d="m 732.279,124.217 h 3958.449 v 70.036 H 732.279 Z" /><g
       id="g14"><g
         clip-path="url(#clipPath20)"
         id="g16"><g
           transform="translate(4142.2349,798.8521)"
           id="g22"><path
             id="path24"
             style="fill:#444141;fill-opacity:1;fill-rule:nonzero;stroke:none"
             d="m 0,0 -41.838,-287.832 c -3.98,-28.326 -17.478,-52.511 -40.652,-72.652 -23.045,-20.141 -49.221,-30.059 -78.204,-29.914 l -152.719,0.834 c -22.244,0.144 -35.307,-11.186 -39.255,-34.007 l -6.628,-45.867 c -3.274,-23.03 -16.386,-34.392 -39.207,-34.312 l -153.826,0.883 c -22.965,0.144 -32.82,11.683 -29.641,34.68 l 78.766,539.716 c 3.177,23.078 16.241,34.601 39.223,34.472 l 376.244,-2.214 C -59.46,103.659 -36.735,93.339 -19.659,72.989 -2.616,52.608 3.852,28.326 0,0 m -229.238,-44.631 c 3.21,22.966 -6.58,34.601 -29.337,34.745 -22.677,0.097 -35.66,-11.33 -38.806,-34.44 l -28.39,-194.846 c -3.21,-23.704 6.372,-35.66 28.583,-35.805 22.211,-0.129 34.81,11.893 37.778,35.74 z" /></g><g
           transform="translate(4726.2441,864.3628)"
           id="g26"><path
             id="path28"
             style="fill:#444141;fill-opacity:1;fill-rule:nonzero;stroke:none"
             d="m 0,0 -0.578,-62.429 c -0.368,-35.035 -70.598,-61.321 -70.035,27.154 l -203.594,2.841 c -23.142,-44.952 -28.132,-57.711 -31.422,-80.934 l -47.087,-310.46 c -3.178,-22.933 6.532,-34.392 29.128,-34.521 22.501,-0.144 35.403,11.395 38.517,34.313 l 19.177,95.087 c 3.05,22.79 16.193,34.184 39.159,34.119 l 153.826,-0.914 c 22.982,-0.128 32.932,-11.732 29.61,-34.456 l -26.078,-141.1 c -3.901,-28.245 -17.285,-52.335 -39.898,-72.556 -22.757,-20.076 -48.546,-30.139 -77.579,-29.946 l -306.224,1.765 c -29.111,0.16 -52.27,10.48 -69.25,30.765 -17.172,20.446 -23.671,44.664 -19.611,72.925 l 78.718,539.811 c 3.259,22.581 16.708,33.831 40.315,33.735 l 181.59,-1.06 c 15.391,-0.096 25.228,-11.49 29.77,-34.183 4.43,-22.725 26.256,-43.733 41.454,-43.797 L -29.706,22.275 C -6.852,22.179 3.05,23.013 0,0" /></g><g
           transform="translate(5010.3208,1138.0879)"
           id="g30"><path
             id="path32"
             style="fill:#444141;fill-opacity:1;fill-rule:nonzero;stroke:none"
             d="m 0,0 -6.098,-45.755 0.048,-0.047 v -0.033 c -1.846,-13.705 -7.158,-25.998 -16.996,-34.633 -9.822,-8.505 -22.853,-12.068 -36.495,-11.924 l -222.497,1.252 c -9.261,0.048 -14.379,-2.087 -17.557,-4.863 -3.21,-2.888 -6.019,-7.543 -7.335,-16.626 -0.353,-2.166 -0.497,-4.028 -0.497,-5.665 0.048,-5.457 1.235,-7.495 2.102,-8.538 0.754,-0.691 1.525,-1.493 3.804,-2.263 2.183,-0.802 5.456,-1.412 10.191,-1.476 l 152.445,-0.835 c 16.21,-0.144 31.279,-3.049 44.744,-9.1 13.465,-6.002 25.261,-15.117 34.89,-26.945 15.647,-18.937 23.687,-42.015 23.415,-66.794 -0.033,-5.634 -0.385,-11.331 -1.236,-17.173 v -0.032 l -0.032,-0.032 -32.146,-219.962 v 0.08 c -4.381,-31.6 -20.028,-59.428 -45.353,-81.398 -25.165,-22.148 -54.774,-33.767 -86.47,-33.542 l -306.385,1.813 c -16.176,0.065 -31.181,3.002 -44.775,9.003 -13.496,6.019 -25.517,15.263 -35.307,26.85 -16.001,19.098 -24.361,42.24 -24.041,67.195 0,5.666 0.481,11.251 1.252,17.061 v 0.08 l 19.002,129.448 v -0.048 c 1.861,13.64 7.35,25.951 17.076,34.44 9.918,8.457 22.917,11.988 36.767,11.844 l 155.014,-0.9 c 9.147,-0.08 17.54,-1.444 25.116,-5.215 7.526,-3.739 13.818,-10.415 16.931,-18.455 2.022,-5.216 2.904,-10.833 2.84,-16.531 l -0.047,-12.55 c -0.386,-2.616 -0.514,-4.959 -0.595,-6.788 -0.031,-2.793 0.386,-4.654 0.851,-5.794 l 1.46,-2.166 c 1.124,-1.092 4.783,-2.905 12.646,-2.905 8.442,0.064 12.84,1.958 15.921,4.718 3.033,2.76 5.971,7.783 7.125,17.333 v -0.21 l 5.794,48.42 -0.032,0.143 0.177,0.146 c 0.224,2.053 0.321,3.899 0.321,5.584 -0.032,2.938 -0.434,4.927 -0.803,6.227 l -1.685,2.472 c -1.332,1.187 -4.991,3.049 -13.144,3.113 l -151.884,0.835 c -15.872,0.144 -30.524,3.081 -43.796,9.212 -13.321,6.066 -25.004,15.23 -34.698,26.977 -15.792,18.905 -23.945,42.16 -23.799,67.228 0.111,5.585 0.561,11.33 1.331,17.124 l -0.08,-0.032 v -0.064 L -541.16,6.5 c 1.895,13.77 7.142,26.224 16.965,34.825 9.741,8.666 22.837,12.165 36.59,12.021 l 444.948,-2.52 c 8.94,-0.144 17.172,-1.541 24.619,-5.585 7.477,-4.06 13.384,-11.058 16.144,-19.018 C 0.032,20.911 0.69,15.375 0.626,9.709 Z m -27.94,9.854 c -0.065,4.686 -1.011,7.126 -1.75,8.329 -0.867,1.044 -1.636,1.878 -4.51,2.857 -1.957,0.561 -4.894,1.188 -8.634,1.123 l -444.98,2.584 c -9.228,0 -14.187,-2.166 -17.46,-5.039 -3.274,-2.793 -6.083,-7.688 -7.447,-17.06 l -21.264,-157.196 -0.128,-0.064 c -0.514,-4.622 -0.884,-9.132 -0.884,-13.337 -0.031,-18.969 5.425,-34.424 17.189,-48.787 7.253,-8.78 15.31,-14.926 24.49,-19.195 9.148,-4.156 19.627,-6.436 31.904,-6.468 l 151.997,-0.914 c 9.019,-0.064 17.525,-1.493 24.795,-5.489 7.607,-3.835 13.801,-10.752 16.643,-18.664 1.877,-5.232 2.825,-10.833 2.711,-16.498 -0.095,-3.113 -0.352,-6.179 -0.69,-9.405 l 0.112,0.321 -5.857,-48.45 v -0.145 c -1.781,-13.673 -6.82,-25.935 -16.145,-34.681 -9.581,-8.698 -22.259,-12.405 -35.66,-12.229 -8.843,0.032 -17.092,1.364 -24.266,5.199 -7.446,3.756 -13.529,10.433 -16.45,18.216 -1.925,5.248 -2.808,10.737 -2.616,16.258 l 0.033,12.822 c 0.481,2.519 0.545,4.735 0.595,6.516 0,2.825 -0.371,4.686 -0.964,5.858 l -1.573,2.342 c -1.332,1.204 -5.585,3.194 -14.011,3.162 l -154.933,0.931 c -9.372,-0.032 -14.508,-2.135 -17.717,-4.991 -3.29,-2.841 -6.195,-7.527 -7.479,-16.674 v -0.033 l 0.032,-0.112 -19.13,-129.384 c -0.658,-4.541 -0.963,-8.875 -0.963,-13.127 -0.08,-18.89 5.537,-34.265 17.477,-48.516 7.158,-8.746 15.343,-14.909 24.844,-19.177 9.547,-4.19 20.589,-6.421 33.413,-6.501 l 306.143,-1.733 c 24.94,-0.145 46.621,8.234 67.645,26.352 20.719,18.247 32.113,38.934 35.821,63.825 l -0.065,0.08 32.226,219.835 v -0.032 c 0.738,4.621 1.01,9.051 1.043,13.32 0,18.841 -5.392,34.232 -16.979,48.53 -7.11,8.619 -15.038,14.718 -24.555,19.003 -9.292,4.092 -20.221,6.435 -33.172,6.548 l -152.477,0.866 c -6.966,0.08 -13.354,0.85 -19.436,3.017 -6.163,2.086 -11.587,5.585 -15.84,10.56 -6.676,7.575 -9.405,17.573 -9.164,27.443 0.032,3.098 0.257,6.323 0.61,9.501 1.958,13.529 7.27,25.838 17.043,34.328 9.822,8.458 22.805,11.956 36.527,11.78 l 222.514,-1.252 c 9.196,0.064 14.171,2.134 17.493,4.959 3.13,2.905 6.066,7.687 7.302,16.915 v -0.032 z" /></g><g
           transform="translate(1324.4349,880.203)"
           id="g34"><path
             id="path36"
             style="fill:#444141;fill-opacity:1;fill-rule:nonzero;stroke:none"
             d="m 0,0 -22.227,-156.298 c -4.012,-28.374 -17.237,-52.302 -39.817,-71.657 -22.644,-19.306 -48.242,-28.936 -76.696,-28.823 l -4.542,0.08 c -3.146,-22.58 6.564,-33.91 29.08,-34.119 l 38.244,-0.193 c 22.516,-0.08 32.226,-11.411 29.096,-33.862 l -30.492,-204.636 c -3.114,-22.517 -15.872,-33.687 -38.324,-33.542 l -81.993,0.481 c -27.684,0.113 -50.104,10.175 -67.195,30.172 -17.172,19.996 -23.768,43.796 -19.788,71.48 l 24.41,171.159 c 3.065,22.436 -6.436,33.83 -28.535,33.895 -22.163,0.144 -34.777,-11.106 -37.858,-33.686 l -35.548,-238.306 c -3.146,-22.517 -15.952,-33.702 -38.388,-33.574 l -150.665,0.882 c -22.516,0.113 -32.161,11.443 -29.096,33.911 l 77.338,529.509 c 3.146,22.724 15.872,34.007 38.372,33.878 L -313.943,35.9 c 22.5,-0.177 32.226,-11.571 29.08,-34.231 l -16.995,-111.265 c -3.21,-22.34 6.467,-33.622 28.887,-33.702 22.468,-0.128 35.227,10.977 38.34,33.397 l 16.675,111.233 c 3.113,22.692 16.016,33.862 38.565,33.766 L -27.989,34.216 C -6.259,34.151 3.114,22.725 0,0" /></g><g
           transform="translate(1883.9377,809.7331)"
           id="g38"><path
             id="path40"
             style="fill:#444141;fill-opacity:1;fill-rule:nonzero;stroke:none"
             d="m 0,0 -57.502,-394.86 c -3.884,-27.716 -17.381,-51.452 -40.347,-71.191 -22.965,-19.773 -48.338,-29.578 -76.102,-29.434 l -300.414,1.733 c -28.534,0.112 -51.115,10.207 -67.901,30.204 -16.771,19.997 -23.207,43.813 -19.323,71.56 l 57.775,394.716 c 3.916,27.829 17.204,51.629 39.865,71.384 22.725,19.756 47.889,29.61 75.717,29.466 l 302.035,-1.717 C -58.449,101.684 -36.141,91.589 -19.435,71.593 -2.616,51.629 3.852,27.748 0,0 m -224.712,-44.054 c 3.161,22.661 -6.565,34.088 -29.289,34.233 -21.891,0.127 -34.393,-11.122 -37.538,-33.815 l -45.096,-304.571 c -3.178,-22.452 6.146,-33.782 28.101,-33.926 22.692,-0.065 35.579,11.057 38.805,33.493 z" /></g><g
           transform="translate(2459.9067,806.2023)"
           id="g42"><path
             id="path44"
             style="fill:#444141;fill-opacity:1;fill-rule:nonzero;stroke:none"
             d="m 0,0 -67.469,-462.97 c -3.145,-22.356 -16.321,-33.462 -39.639,-33.365 l -81.238,0.497 c -28.535,0.16 -51.18,9.998 -67.999,29.562 -16.819,19.611 -23.318,43.636 -19.402,72.09 l 51.179,350.518 c 3.081,22.581 -6.532,33.975 -28.952,34.087 -22.308,0.096 -35.098,-11.121 -38.244,-33.782 l -60.968,-417.072 c -3.066,-22.515 -15.937,-33.67 -38.373,-33.557 l -150.744,0.883 c -22.437,0.047 -32.162,11.426 -28.936,33.91 l 78.397,529.492 c 3.018,22.725 15.841,34.023 38.357,33.911 l 149.717,-0.867 c 22.484,-0.144 32.193,-11.539 29.064,-34.296 3.129,22.757 15.937,34.008 38.404,33.911 l 150.778,-0.915 C -58.272,101.893 -36.013,91.798 -19.258,71.77 -2.52,51.725 3.916,27.796 0,0" /></g><g
           transform="translate(3036.0037,888.6604)"
           id="g46"><path
             id="path48"
             style="fill:#444141;fill-opacity:1;fill-rule:nonzero;stroke:none"
             d="m 0,0 c -0.063,-5.97 -1.989,-11.956 -5.761,-17.926 l -285.088,-449.779 187.93,-1.108 c 21.746,-0.08 31.054,-11.474 27.988,-33.91 l -5.97,-44.984 c -3.065,-22.549 -15.936,-33.783 -38.372,-33.638 l -447.869,2.583 c -12.726,0.065 -19.162,5.425 -19.098,16.017 0.081,6.003 1.894,12.021 5.521,18.023 l 285.055,449.569 -187.736,1.124 c -22.5,0.128 -32.177,11.458 -29,33.943 l 6.981,45.016 c 3.851,22.484 16.707,33.67 38.453,33.494 l 449.072,-2.52 C -5.938,15.84 0.032,10.528 0,0" /></g><g
           transform="translate(3578.094,802.4954)"
           id="g50"><path
             id="path52"
             style="fill:#444141;fill-opacity:1;fill-rule:nonzero;stroke:none"
             d="m 0,0 -28.454,-195.135 c -3.884,-28.246 -17.092,-52.431 -39.559,-72.508 -22.533,-20.125 -47.473,-30.123 -75.205,-29.915 l -148.578,0.835 c -23.864,0.129 -36.992,-11.186 -39.351,-33.991 l -2.408,-22.853 c -2.31,-22.789 6.901,-34.248 27.749,-34.393 l 217.154,-1.187 c 21.714,-0.145 30.974,-11.539 27.876,-34.264 l -5.793,-45.658 c -3.179,-22.87 -16.242,-34.184 -39.383,-34.087 l -365.139,2.134 c -27.54,0.112 -49.911,10.32 -67.067,30.621 -16.964,20.286 -23.576,44.519 -19.659,72.652 l 58.272,400.605 c 3.915,28.15 17.124,52.239 39.688,72.299 22.436,20.062 47.488,30.06 75.108,29.851 l 299.065,-1.701 C -57.326,103.16 -34.922,92.921 -18.665,72.636 -2.278,52.366 3.883,28.181 0,0 m -222.193,-44.39 c 3.049,22.917 -6.451,34.423 -28.695,34.52 -22.131,0.144 -34.825,-11.25 -37.858,-34.248 l -15.215,-103.834 c -3.145,-23.126 6.58,-34.665 28.872,-34.81 22.324,-0.144 35.034,11.33 38.18,34.473 z" /></g></g></g></g></svg>