<?xml version="1.0" encoding="UTF-8" standalone="no"?>
<svg
   xmlns:dc="http://purl.org/dc/elements/1.1/"
   xmlns:cc="http://creativecommons.org/ns#"
   xmlns:rdf="http://www.w3.org/1999/02/22-rdf-syntax-ns#"
   xmlns:svg="http://www.w3.org/2000/svg"
   xmlns="http://www.w3.org/2000/svg"
   viewBox="0 0 7559.0532 1700.7867"
   height="1700.7867"
   width="7559.0532"
   xml:space="preserve"
   id="svg2"
   version="1.1"><metadata
     id="metadata8"><rdf:RDF><cc:Work
         rdf:about=""><dc:format>image/svg+xml</dc:format><dc:type
           rdf:resource="http://purl.org/dc/dcmitype/StillImage" /></cc:Work></rdf:RDF></metadata><defs
     id="defs6"><clipPath
       id="clipPath18"
       clipPathUnits="userSpaceOnUse"><path
         id="path16"
         d="M 0,1275.59 H 5669.29 V 0 H 0 Z" /></clipPath></defs><g
     transform="matrix(1.3333333,0,0,-1.3333333,0,1700.7867)"
     id="g10"><g
       id="g12"><g
         clip-path="url(#clipPath18)"
         id="g14"><g
           transform="translate(1472.2239,1014.4436)"
           id="g20"><path
             id="path22"
             style="fill:#fefefd;fill-opacity:1;fill-rule:nonzero;stroke:none"
             d="m 0,0 c 1359.166,0 2718.332,-0.009 4077.498,0.227 7.999,0.002 9.003,-2.033 8.996,-9.333 -0.227,-245.44 -0.229,-490.881 0.017,-736.321 0.01,-7.077 -1.808,-8.058 -8.334,-8.058 -1810.438,0.162 -3620.876,0.163 -5431.314,-0.041 -7.445,0 -8.5,2.073 -8.494,8.834 0.189,245.44 0.199,490.881 -0.036,736.321 -0.01,7.303 1.902,8.539 8.795,8.536 C -907.579,-0.018 -462.287,0 -16.995,0 c 0.103,-4.736 -4.429,-4.634 -6.989,-6.389 -15.961,-10.939 -19.714,-30.54 -8.4,-44.931 10.429,-13.264 30.093,-14.885 43.602,-3.592 14.71,12.297 13.208,35.245 -2.885,47.16 C 5.323,-5.523 0.354,-5.139 0,0" /></g><g
           transform="translate(1472.2239,1014.4436)"
           id="g24"><path
             id="path26"
             style="fill:#ed5a3c;fill-opacity:1;fill-rule:nonzero;stroke:none"
             d="m 0,0 c 9.864,-5.113 18.841,-11.094 22.383,-22.479 5.226,-16.795 -3.501,-34.585 -19.896,-40.522 -16.505,-5.977 -34.772,1.987 -41.424,18.06 -6.683,16.149 0.54,34.309 16.516,42.074 1.809,0.879 4.658,0.026 5.426,2.867 z" /></g><g
           transform="translate(5354.0757,634.5051)"
           id="g28"><path
             id="path30"
             style="fill:#627f51;fill-opacity:1;fill-rule:nonzero;stroke:none"
             d="m 0,0 c -54.115,0 -108.229,-0.051 -162.344,0.029 -16.752,0.025 -33.222,2.251 -49.138,7.688 -47.343,16.172 -71.263,51.007 -78.751,98.761 -3.443,21.95 -2.462,43.853 2.781,65.389 11.722,48.154 47.063,79.328 98.454,87.465 7.77,1.23 15.542,2.197 23.443,2.193 93.442,-0.045 186.885,0.01 280.326,-0.069 21.124,-0.018 40.256,-6.617 56.907,-19.458 23.224,-17.911 32.036,-42.205 28.344,-70.692 -4.005,-30.909 -22.431,-50.931 -50.897,-62.27 -10.582,-4.215 -21.638,-6.27 -33.126,-6.26 -82.116,0.07 -164.231,-0.034 -246.347,0.077 -24.456,0.032 -37.099,22.687 -24.92,44.129 3.716,6.542 9.611,9.818 16.812,10.69 4.664,0.566 9.418,0.551 14.131,0.553 75.509,0.031 151.017,-0.012 226.527,0.082 6.582,0.008 13.235,0.398 19.73,1.41 10.903,1.698 17.048,8.353 18.16,18.616 1.281,11.829 -3.768,20.578 -14.356,24.694 -6.862,2.667 -14.113,3.062 -21.344,3.067 -85.891,0.051 -171.782,0.09 -257.673,-0.049 -8.144,-0.013 -16.418,-0.549 -24.407,-2.039 -34.108,-6.36 -51.064,-27.139 -53.666,-64.902 -0.718,-10.406 0.119,-20.753 2.177,-30.893 6.59,-32.463 28.975,-50.519 64.558,-52.015 13.193,-0.554 26.424,-0.236 39.637,-0.238 97.533,-0.014 195.065,0.014 292.597,-0.026 19.106,-0.008 28.852,-8.419 29.666,-25.258 C 198.242,10.83 188.175,0.079 168.006,0.039 112.004,-0.073 56.002,0 0,0" /></g><g
           transform="translate(2592.3167,896.0056)"
           id="g32"><path
             id="path34"
             style="fill:#627f51;fill-opacity:1;fill-rule:nonzero;stroke:none"
             d="m 0,0 c 53.808,0.005 107.647,-1.12 161.415,0.344 47.164,1.285 89.557,-36.07 88.355,-89.379 -1.224,-54.272 -1.319,-108.573 -1.431,-162.862 -0.017,-8.056 -2.475,-10.109 -10.158,-9.771 -13.504,0.594 -27.064,0.472 -40.58,0.035 -6.531,-0.211 -8.757,1.738 -8.609,8.43 0.41,18.507 0.279,37.03 0.107,55.545 -0.192,20.658 -9.195,29.783 -30.124,29.807 -106.043,0.122 -212.086,0.116 -318.129,0.008 -21.563,-0.022 -30.407,-9.082 -30.483,-30.343 -0.065,-18.202 -0.347,-36.414 0.16,-54.603 0.202,-7.236 -2.201,-9.12 -9.138,-8.867 -13.826,0.503 -27.688,0.339 -41.528,0.065 -5.665,-0.112 -8.352,0.864 -8.392,7.615 -0.338,56.797 -1.456,113.59 -1.599,170.387 -0.117,46.434 36.557,83.185 83.046,83.496 C -111.394,0.279 -55.696,-0.005 0,0" /></g><g
           transform="translate(4695.6489,896.0104)"
           id="g36"><path
             id="path38"
             style="fill:#628051;fill-opacity:1;fill-rule:nonzero;stroke:none"
             d="m 0,0 c 56.941,0 113.895,-0.701 170.818,0.288 29.667,0.515 33.368,-20.782 28.857,-39.267 -2.212,-9.064 -8.842,-14.323 -18.051,-15.724 -4.633,-0.704 -9.408,-0.648 -14.119,-0.65 -104.758,-0.032 -209.518,0.025 -314.277,-0.108 -9.72,-0.012 -19.598,-0.294 -29.13,-1.984 -34.194,-6.065 -50.723,-26.117 -53.942,-64.572 -1.082,-12.927 0.223,-25.781 3.743,-38.21 8.001,-28.253 30.681,-44.173 64.382,-45.119 18.233,-0.513 36.49,-0.201 54.736,-0.203 92.49,-0.012 184.979,0.013 277.469,-0.018 24.126,-0.008 34.286,-12.43 29.842,-36.272 -1.991,-10.686 -7.635,-16.553 -18.405,-18.57 -3.983,-0.747 -8.106,-1.051 -12.165,-1.053 -110.422,-0.054 -220.843,-0.078 -331.266,-0.005 -17.361,0.011 -34.556,1.835 -50.99,7.827 -46.281,16.875 -68.823,52.214 -76.367,98.823 -3.497,21.601 -2.447,43.243 2.671,64.467 12.183,50.514 46.265,77.748 95.717,88.19 8.651,1.827 17.429,2.227 26.261,2.219 C -109.478,0.009 -54.739,0.034 0,0.034 Z" /></g><g
           transform="translate(3983.6692,634.5046)"
           id="g40"><path
             id="path42"
             style="fill:#628051;fill-opacity:1;fill-rule:nonzero;stroke:none"
             d="m 0,0 c -65.143,0 -130.285,-0.002 -195.428,0.001 -55.142,0.002 -89.474,34.157 -89.562,89.289 -0.088,54.299 0.104,108.598 -0.171,162.896 -0.036,7.07 1.323,9.902 9.142,9.509 13.812,-0.694 27.697,-0.551 41.525,-0.035 6.677,0.25 8.383,-1.784 8.352,-8.364 -0.264,-54.611 -0.158,-109.225 -0.147,-163.837 0.005,-24.272 9.018,-33.438 33.697,-33.46 105.739,-0.093 211.477,-0.071 317.216,-0.015 17.603,0.009 28.221,11.039 28.246,29.266 0.076,55.554 0.201,111.11 -0.159,166.662 -0.051,7.826 1.869,10.167 9.793,9.783 14.128,-0.684 28.325,-0.52 42.47,-0.041 6.369,0.216 7.915,-1.91 7.903,-7.974 -0.174,-81.605 -0.244,-163.211 0.081,-244.815 0.033,-8.189 -3.254,-8.994 -9.977,-8.976 C 135.321,0.071 67.66,0 0,0" /></g><g
           transform="translate(1248.6096,897.8151)"
           id="g44"><path
             id="path46"
             style="fill:#628051;fill-opacity:1;fill-rule:nonzero;stroke:none"
             d="m 0,0 c -42.837,-54.932 -84.093,-107.977 -125.518,-160.89 -17.424,-22.255 -35.552,-43.968 -52.723,-66.412 -16.165,-21.127 -37.524,-32.605 -63.591,-33.767 -26.037,-1.161 -52.238,-2.303 -78.236,1.018 -19.016,2.43 -36.058,10.165 -48.302,25.022 -62.92,76.346 -122.52,155.298 -183.479,233.117 1.936,3.236 4.737,1.818 6.945,1.834 18.567,0.133 37.142,-0.195 55.7,0.23 6.046,0.139 9.73,-1.88 13.373,-6.527 46.128,-58.816 92.691,-117.294 138.551,-176.315 12.366,-15.914 26.623,-25.208 47.387,-22.954 6.531,0.709 13.289,0.784 19.8,-0.011 24.514,-2.995 41.516,9.227 55.747,26.9 16.545,20.548 32.732,41.384 49.074,62.094 29.183,36.983 58.434,73.912 87.45,111.024 3.234,4.135 6.507,5.824 11.767,5.754 C -44.776,-0.166 -23.492,0 0,0" /></g><g
           transform="translate(1932.8391,896.0063)"
           id="g48"><path
             id="path50"
             style="fill:#628051;fill-opacity:1;fill-rule:nonzero;stroke:none"
             d="m 0,0 c 73.629,-0.004 147.258,0.013 220.886,-0.014 24.16,-0.01 35.065,-14.218 28.844,-37.431 -2.723,-10.163 -9.253,-16.142 -19.803,-17.348 -5.603,-0.64 -11.305,-0.556 -16.962,-0.559 -57.582,-0.036 -115.164,-0.179 -172.744,0.16 -7.976,0.046 -9.867,-2.364 -9.83,-10.017 0.294,-62.136 0.04,-124.273 0.329,-186.409 0.035,-7.497 -1.372,-10.541 -9.657,-10.086 -13.489,0.742 -27.069,0.647 -40.571,0.026 -7.41,-0.341 -8.745,2.312 -8.717,9.103 0.257,61.821 -0.038,123.646 0.359,185.466 0.058,9.069 -1.558,12.109 -11.578,12.016 -60.408,-0.559 -120.824,-0.349 -181.237,-0.235 -24.026,0.046 -35.325,14.706 -29.313,37.504 3.117,11.82 10.736,17.626 24.388,17.749 22.968,0.207 45.939,0.077 68.909,0.078 C -104.465,0.007 -52.232,0.004 0,0" /></g><g
           transform="translate(3328.2556,634.5042)"
           id="g52"><path
             id="path54"
             style="fill:#628051;fill-opacity:1;fill-rule:nonzero;stroke:none"
             d="m 0,0 c -61.68,0 -123.36,-0.006 -185.04,0.002 -53.796,0.007 -88.456,34.645 -88.466,88.411 -0.01,54.612 0.13,109.224 -0.165,163.835 -0.039,7.2 1.537,9.809 9.214,9.444 13.815,-0.657 27.699,-0.574 41.524,-0.026 6.873,0.272 8.225,-2.126 8.197,-8.499 -0.243,-54.297 -0.142,-108.595 -0.136,-162.893 0.003,-25.478 8.785,-34.282 34.742,-34.293 120.842,-0.055 241.684,-0.027 362.526,-0.028 2.518,0 5.036,-0.033 7.553,0.007 26.192,0.425 33.266,-17.169 28.037,-39.311 C 215.319,5.357 206.947,0.299 192.592,0.06 177.176,-0.197 161.752,0 146.333,0 97.555,0 48.778,0 0,0" /></g><g
           transform="translate(1436.2122,774.7849)"
           id="g56"><path
             id="path58"
             style="fill:#628051;fill-opacity:1;fill-rule:nonzero;stroke:none"
             d="m 0,0 c 0,37.959 0.156,75.919 -0.148,113.876 -0.052,6.597 1.807,8.621 8.418,8.375 13.193,-0.49 26.42,-0.335 39.625,-0.055 5.409,0.114 7.813,-1.105 7.798,-7.217 C 55.5,38.434 55.686,-38.112 55.443,-114.657 55.388,-131.882 45.38,-140.486 27.498,-140.279 9.753,-140.074 0.213,-131.252 0.104,-113.876 -0.134,-75.919 0.03,-37.959 0.03,0 Z" /></g><g
           transform="translate(3139.3438,340.6637)"
           id="g60"><path
             id="path62"
             style="fill:#ed5a3c;fill-opacity:1;fill-rule:nonzero;stroke:none"
             d="m 0,0 c -27.078,-29.307 -75.195,-25.489 -99.131,-10.189 -22.49,14.375 -33.636,40.963 -27.94,67.759 5.865,27.591 26.679,46.518 55.895,51.213 26.823,4.31 51.284,0.143 71.588,-19.166 0.684,0.567 1.384,0.852 1.481,1.274 1.034,4.487 -1.812,11.567 2.235,13.119 5.782,2.218 12.915,0.995 19.474,1.112 3.222,0.058 3.096,-2.361 3.075,-4.618 -0.356,-38.246 0.694,-76.571 -1.433,-114.719 -2.298,-41.23 -17.743,-56.509 -58.844,-62.24 -20.968,-2.924 -42.081,-2.338 -62.431,4.603 -15.649,5.337 -24.922,16.171 -27.039,32.88 -0.518,4.09 0.196,5.905 4.651,5.649 4.07,-0.234 8.185,-0.178 12.252,0.121 5.864,0.431 9.459,-0.716 11.41,-7.516 3.217,-11.209 13.134,-15.452 23.584,-17.782 12.142,-2.708 24.459,-2.058 36.519,0.456 21.505,4.483 32.271,16.691 34.564,38.837 C 0.508,-13.432 0,-7.542 0,0" /></g><g
           transform="translate(2835.2737,332.545)"
           id="g64"><path
             id="path66"
             style="fill:#ed5a3c;fill-opacity:1;fill-rule:nonzero;stroke:none"
             d="m 0,0 c -38.862,-33.216 -88.882,-22.93 -111.074,1.269 -22.9,24.972 -23.75,65.592 -2.645,91.674 20.088,24.825 71.877,39.526 114.094,5.316 0,21.351 0.268,41.904 -0.148,62.444 -0.141,6.982 1.159,9.908 9.09,9.652 16.785,-0.541 16.756,-0.063 16.809,-17.056 0.168,-53.978 0.271,-107.958 0.703,-161.934 0.048,-6.037 -1.244,-8.942 -7.647,-7.91 -0.613,0.099 -1.257,0.007 -1.886,0.014 C -1.891,-16.325 1.989,-18.787 0,0" /></g><g
           transform="translate(324.0678,331.6358)"
           id="g68"><path
             id="path70"
             style="fill:#ed5a3c;fill-opacity:1;fill-rule:nonzero;stroke:none"
             d="m 0,0 c 0,-19.438 -0.29,-38.117 0.157,-56.779 0.157,-6.565 -1.621,-8.499 -8.308,-8.395 -17.72,0.275 -17.686,-0.059 -17.732,17.808 -0.132,51.432 -0.202,102.863 -0.589,154.293 -0.043,5.707 1.232,8.326 7.183,7.326 0.305,-0.051 0.628,-0.009 0.942,-0.004 16.757,0.224 16.757,0.224 19.178,-16.467 18.324,16.999 39.966,23.519 64.166,21.074 19.127,-1.932 35.583,-9.746 48.382,-24.485 C 135.091,69.368 134.44,29.059 112.673,3.498 91.5,-21.364 38.528,-32.742 0,0" /></g><g
           transform="translate(4104.2363,429.9824)"
           id="g72"><path
             id="path74"
             style="fill:#ed5a3c;fill-opacity:1;fill-rule:nonzero;stroke:none"
             d="m 0,0 c 0,22.674 0.256,43.581 -0.151,64.476 -0.129,6.62 1.834,8.476 8.433,8.384 16.849,-0.233 16.843,0.095 16.856,-16.765 0.039,-47.979 0.044,-95.957 0.179,-143.936 0.019,-6.887 0.556,-13.782 1.089,-20.655 0.317,-4.076 -1.212,-5.867 -5.321,-5.483 -1.246,0.116 -2.513,0.015 -3.771,0.007 -16.145,-0.104 -16.145,-0.104 -17.837,17.039 -22.635,-20.428 -48.724,-25.708 -77.193,-18.958 -16.403,3.889 -29.815,13.006 -39.617,26.952 -19.18,27.292 -15.769,65.675 7.286,89.025 C -86.135,24.303 -35.111,31.021 0,0" /></g><g
           transform="translate(3296.043,374.2385)"
           id="g76"><path
             id="path78"
             style="fill:#ed5a3c;fill-opacity:1;fill-rule:nonzero;stroke:none"
             d="m 0,0 c -17.606,0.001 -35.223,-0.338 -52.815,0.161 -7.42,0.21 -8.345,-2.458 -6.825,-8.746 4.77,-19.732 18.6,-33.027 38.742,-36.131 18.978,-2.925 42.669,4.321 49.953,21.944 1.292,3.125 3.359,4.108 6.569,3.856 2.812,-0.222 5.655,-0.044 8.485,-0.044 14.908,0 15.977,-1.887 8.615,-15.486 -6.503,-12.014 -17.123,-18.961 -29.658,-23.236 -17.64,-6.015 -35.904,-6.889 -53.987,-3.497 -40.659,7.627 -60.901,38.114 -54.903,79.043 6.904,47.119 44.946,62.728 86.002,58.089 C 41.054,71.335 60.454,48.503 60.943,8.426 61.035,0.956 58.563,-0.32 51.873,-0.149 34.592,0.293 17.292,-0.001 0,0" /></g><g
           transform="translate(1099.4382,374.2389)"
           id="g80"><path
             id="path82"
             style="fill:#ed5a3c;fill-opacity:1;fill-rule:nonzero;stroke:none"
             d="m 0,0 c -17.605,-0.002 -35.215,-0.234 -52.813,0.127 -6.037,0.123 -7.691,-1.521 -6.452,-7.469 4.138,-19.855 18.456,-33.881 38.722,-37.375 20.737,-3.575 40.137,4.639 50.071,21.666 1.883,3.227 3.832,4.5 7.342,4.127 1.865,-0.198 3.812,0.224 5.646,-0.085 4.987,-0.842 12.151,2.921 14.54,-2.052 2.309,-4.804 -2.041,-10.67 -4.968,-15.503 -8.038,-13.275 -20.911,-19.607 -35.226,-23.174 -16.031,-3.996 -32.378,-4.367 -48.608,-1.105 -38.659,7.769 -58.599,37.185 -53.648,76.526 6.24,49.585 45.182,64.792 85.966,60.31 C 41.895,71.452 61.416,48.41 61.525,7.82 61.541,1.756 60.084,-0.288 53.755,-0.143 35.845,0.269 17.92,0.002 0,0" /></g><g
           transform="translate(1925.5078,374.2385)"
           id="g84"><path
             id="path86"
             style="fill:#ed5a3c;fill-opacity:1;fill-rule:nonzero;stroke:none"
             d="m 0,0 c -17.293,-0.002 -34.603,-0.457 -51.871,0.197 -8.146,0.309 -8.467,-2.525 -6.85,-9.09 4.871,-19.784 18.733,-32.866 38.905,-35.952 20.694,-3.166 39.957,5.021 49.345,21.519 1.85,3.25 3.647,4.678 7.216,4.406 2.501,-0.19 5.028,-0.039 7.543,-0.038 16.235,10e-4 17.06,-1.503 8.744,-16.179 -6.907,-12.191 -17.915,-19.241 -30.898,-23.093 -21.587,-6.406 -43.44,-6.634 -64.988,0.099 -25.046,7.827 -40.99,29.001 -42.372,55.29 -0.578,10.994 -0.323,21.933 2.747,32.637 8.147,28.403 30.337,44.318 65.593,46.859 C -6.155,77.428 4.443,76.339 14.89,73.732 53.906,63.996 61.709,32.551 61.855,4.674 61.885,-0.961 58.017,0.027 54.708,0.02 36.472,-0.018 18.236,0.002 0,0" /></g><g
           transform="translate(4459.1147,374.2385)"
           id="g88"><path
             id="path90"
             style="fill:#ed5a3d;fill-opacity:1;fill-rule:nonzero;stroke:none"
             d="m 0,0 c -17.935,-0.001 -35.869,-0.03 -53.804,0.023 -3.729,0.011 -6.591,0.295 -5.707,-5.369 3.141,-20.142 17.454,-35.158 38.081,-39.147 20.984,-4.058 41.245,4.224 51.052,21.39 1.884,3.298 3.798,4.456 7.281,4.181 2.502,-0.198 5.031,-0.038 7.548,-0.038 16.213,0.002 16.915,-1.119 9.025,-15.48 -8.389,-15.265 -22.586,-22.213 -38.714,-25.788 -16.139,-3.578 -32.45,-3.622 -48.679,-0.261 -33.872,7.014 -53.426,33.628 -51.845,68.275 2.54,55.669 43.172,72.817 86.224,68.227 41.452,-4.42 60.834,-27.234 61.115,-68.07 0.041,-6 -1.356,-8.233 -7.776,-8.085 C 35.875,0.269 17.935,0.001 0,0" /></g><g
           transform="translate(1458.7599,374.2374)"
           id="g92"><path
             id="path94"
             style="fill:#ed5a3c;fill-opacity:1;fill-rule:nonzero;stroke:none"
             d="m 0,0 c -17.621,-0.002 -35.248,-0.283 -52.859,0.139 -6.846,0.163 -7.652,-1.833 -6.119,-8.046 5.063,-20.524 17.779,-33.295 38.135,-36.716 19.366,-3.255 44.305,4.598 50.746,22.142 1.087,2.959 2.923,3.661 5.703,3.543 2.827,-0.119 5.663,-0.021 8.495,-0.021 16.052,-0.003 17.009,-1.659 8.823,-16.15 -8.191,-14.499 -21.835,-21.319 -37.236,-24.906 -16.41,-3.822 -33.047,-3.917 -49.605,-0.501 -33.985,7.01 -53.385,33.564 -51.97,68.13 2.241,54.746 42.058,73.029 86.02,68.436 C 41.419,71.736 60.31,49.731 61.438,9.056 61.653,1.294 59.088,-0.349 51.914,-0.152 34.621,0.324 17.306,0.002 0,0" /></g><g
           transform="translate(2436.2869,332.7373)"
           id="g96"><path
             id="path98"
             style="fill:#ed5a3c;fill-opacity:1;fill-rule:nonzero;stroke:none"
             d="m 0,0 c -22.147,-21.89 -59.842,-28.103 -87.114,-14.98 -16.182,7.786 -25.595,22.229 -24.694,37.892 1.019,17.715 10.201,29.05 28.887,35.3 11.105,3.715 22.639,5.252 34.294,5.607 11.63,0.354 23.271,0.369 34.908,0.439 14.317,0.086 15.975,2.487 11.212,16.534 -0.201,0.594 -0.306,1.226 -0.557,1.797 -6.111,13.93 -18.358,17.021 -31.794,17.465 -14.609,0.483 -29.922,1.079 -38.143,-14.168 -2.891,-5.36 -5.358,-7.562 -11.067,-6.774 -2.469,0.341 -5.025,0.054 -7.541,0.056 -11.984,0.01 -12.517,0.835 -7.755,11.791 4.403,10.132 12.357,16.54 22.38,20.323 23.734,8.961 47.909,9.819 72,1.851 19.816,-6.553 29.665,-20.112 30,-40.875 0.445,-27.599 0.166,-55.21 0.56,-82.81 0.076,-5.265 -1.842,-6.149 -6.505,-6.278 C 2.552,-17.285 2.556,-17.453 0,0" /></g><g
           transform="translate(4209.8853,424.4053)"
           id="g100"><path
             id="path102"
             style="fill:#ed5a3c;fill-opacity:1;fill-rule:nonzero;stroke:none"
             d="m 0,0 c 23.192,27.775 51.093,31.579 81.574,22.238 20.818,-6.38 32.958,-21.914 35.663,-43.274 3.438,-27.146 0.895,-54.544 1.499,-81.824 0.087,-3.932 -1.464,-5.915 -5.551,-5.527 -0.311,0.03 -0.629,0.014 -0.943,-0.005 -19.261,-1.132 -19.261,-1.132 -19.262,17.956 -0.001,17.888 0.079,35.777 -0.026,53.664 C 92.809,-12.014 80.969,4.467 61.002,7.962 35.822,12.368 12.655,0.179 4.176,-21.983 1.461,-29.078 0.117,-36.423 0.125,-44.047 c 0.017,-18.829 -0.304,-37.661 0.006,-56.484 0.1,-6.117 -1.628,-8.041 -7.925,-8.022 -18.055,0.054 -18.056,-0.241 -18.056,17.509 0,53.037 0.192,106.075 -0.201,159.108 -0.06,8.221 1.875,10.799 10.336,10.433 C -0.023,77.819 0,78.346 0,62.278 Z" /></g><g
           transform="translate(224.9946,333.4704)"
           id="g104"><path
             id="path106"
             style="fill:#ed5a3c;fill-opacity:1;fill-rule:nonzero;stroke:none"
             d="m 0,0 c -22.446,-25.467 -50.213,-25.26 -78.227,-19.071 -26.127,5.773 -39.173,28.343 -32.436,51.554 3.339,11.505 11.427,18.451 21.929,22.995 12.587,5.446 26.009,7.141 39.55,7.587 13.822,0.456 27.667,0.596 41.493,0.349 5.737,-0.102 6.885,2.184 6.519,7.25 -1.025,14.212 -8.112,23.338 -22.11,26.861 -12.066,3.037 -24.29,3.195 -36.266,-0.577 -5.44,-1.713 -10.043,-4.811 -13.533,-9.673 -2.066,-2.879 -0.945,-8.38 -5.933,-8.67 -7.205,-0.42 -14.473,-0.38 -21.676,0.069 -3.374,0.21 -1.974,3.331 -1.511,5.225 2.695,11.011 9.139,19.53 19.349,24.157 27.656,12.536 55.978,13.551 83.954,1.462 14.76,-6.378 22.303,-18.734 22.822,-35.007 0.921,-28.828 -1.037,-57.696 1.19,-86.499 0.319,-4.135 -1.042,-5.882 -5.161,-5.473 -0.622,0.062 -1.257,0.02 -1.885,0.003 C 1.531,-17.92 1.531,-17.921 0,0" /></g><g
           transform="translate(1233.514,393.131)"
           id="g108"><path
             id="path110"
             style="fill:#ed5a3c;fill-opacity:1;fill-rule:nonzero;stroke:none"
             d="M 0,0 C 17.765,13.598 34.782,24.569 49.235,38.236 65.168,53.303 83.002,54.807 104.098,51.755 83.17,35.476 62.998,19.762 42.799,4.083 33.376,-3.23 33.355,-3.194 41.949,-10.67 c 23.454,-20.404 46.895,-40.823 70.381,-61.19 1.376,-1.193 3.104,-1.983 4.668,-2.961 -0.383,-0.757 -0.765,-1.515 -1.147,-2.273 -10.803,0 -21.606,0.056 -32.409,-0.028 -4.348,-0.033 -6.728,3.123 -9.459,5.557 -21.568,19.22 -43.045,38.543 -64.577,57.804 -2.46,2.2 -5.085,4.214 -9.406,7.775 0,-20.571 0.145,-38.921 -0.104,-57.265 -0.061,-4.464 2.545,-11.514 -1.982,-12.912 -6.598,-2.038 -14.279,-0.962 -21.462,-0.562 -2.811,0.157 -2.069,3.423 -2.07,5.474 -0.035,58.329 0.013,116.658 -0.107,174.987 -0.009,4.528 1.533,5.707 5.951,5.933 C 0.008,110.681 0,110.834 0,91.004 Z" /></g><g
           transform="translate(572.229,312.022)"
           id="g112"><path
             id="path114"
             style="fill:#ed593c;fill-opacity:1;fill-rule:nonzero;stroke:none"
             d="m 0,0 c -11.026,-0.553 -21.917,0.316 -32.606,3.344 -33.185,9.399 -51.383,35.593 -48.427,69.934 3.557,41.32 27.53,62.718 73.654,65.594 13.892,0.867 27.677,-0.407 41.063,-4.117 32.982,-9.142 51.26,-36.629 47.87,-71.37 C 77.789,24.815 54.822,2.878 15.066,0.049 10.068,-0.307 5.023,0 0,0" /></g><g
           transform="translate(849.7284,423.9717)"
           id="g116"><path
             id="path118"
             style="fill:#ed5a3c;fill-opacity:1;fill-rule:nonzero;stroke:none"
             d="m 0,0 c 23.47,28.177 51.372,31.975 81.94,22.701 21.84,-6.627 35.586,-25.469 36.312,-48.864 0.777,-25.081 0.269,-50.2 0.531,-75.3 0.05,-4.758 -1.355,-6.425 -6.375,-6.624 -18.849,-0.748 -18.84,-0.949 -18.841,17.596 0,17.572 0.108,35.146 -0.027,52.717 C 93.32,-9.271 79.345,7.674 55.246,8.914 26.1,10.414 4.324,-7.059 1.196,-34.706 -1.176,-55.662 -0.019,-76.723 0.222,-97.723 c 0.094,-8.223 -1.944,-10.84 -10.415,-10.445 -15.035,0.702 -15.06,0.163 -15.06,14.806 0,53.973 0.187,107.947 -0.201,161.917 -0.059,8.171 1.753,10.792 10.264,10.379 C -0.028,78.199 0,78.762 0,63.16 0,42.881 0,22.603 0,0" /></g><g
           transform="translate(3463.3547,311.5339)"
           id="g120"><path
             id="path122"
             style="fill:#ed5a3c;fill-opacity:1;fill-rule:nonzero;stroke:none"
             d="m 0,0 c -15.872,-0.327 -31.446,1.146 -45.846,8.515 -11.518,5.894 -19.291,14.714 -21.628,27.889 -0.757,4.264 0.256,5.732 4.552,5.447 3.758,-0.249 7.565,-0.291 11.317,0.003 6.32,0.495 11.009,0.029 13.082,-7.826 1.955,-7.409 8.769,-11.169 15.985,-13.319 16.756,-4.991 33.516,-4.498 50.11,0.666 3.217,1.001 6.366,2.847 8.998,4.978 9.803,7.94 8.296,20.434 -3.21,25.577 -12.487,5.581 -26.157,6.352 -39.416,8.728 -12.057,2.16 -24.168,4.102 -35.403,9.306 -11.562,5.355 -19.638,13.276 -20.247,26.966 -0.647,14.56 4.68,26.476 17.817,32.659 29.756,14.006 60.209,13.868 90.145,0.349 9.501,-4.291 15.434,-12.509 17.542,-23.17 0.91,-4.604 -0.224,-6.454 -5.018,-6.181 -4.077,0.233 -8.189,0.243 -12.263,-0.008 -4.254,-0.261 -6.868,0.834 -8.511,5.312 -2.396,6.529 -7.69,10.956 -14.283,12.753 -16.137,4.398 -32.348,4.497 -48.08,-1.837 -6.695,-2.694 -12.302,-7.24 -12.007,-15.252 0.283,-7.691 6.199,-11.347 12.677,-13.543 18.523,-6.278 38.1,-7.762 57.056,-12.105 4.274,-0.979 8.584,-1.888 12.757,-3.209 C 60.304,68.212 69.653,59.303 70.302,43.8 70.948,28.377 64.691,16.389 50.503,9.23 34.596,1.204 17.389,0.041 0,0" /></g><g
           transform="translate(2214.4839,311.5448)"
           id="g124"><path
             id="path126"
             style="fill:#ed5a3c;fill-opacity:1;fill-rule:nonzero;stroke:none"
             d="m 0,0 c -14.26,-0.389 -28.309,0.862 -41.627,6.357 -13.196,5.446 -22.702,14.404 -26.131,28.771 -1.071,4.489 -0.338,7.31 5.301,6.727 3.424,-0.354 6.942,-0.342 10.369,-0.006 6.459,0.635 10.882,-0.262 13.161,-7.886 2.152,-7.199 8.839,-11.134 16.101,-13.284 16.766,-4.964 33.497,-4.449 50.117,0.647 4.241,1.301 8.033,3.588 11.038,6.959 7.581,8.502 5.92,18.166 -4.395,23.166 -12.651,6.131 -26.695,6.695 -40.237,9.2 -11.728,2.17 -23.493,4.066 -34.549,8.887 -12.459,5.432 -21.05,13.852 -21.426,28.166 -0.389,14.845 6.146,26.039 19.49,32.807 17.41,8.83 36.148,10.039 55.164,8.474 11.289,-0.929 22.393,-2.921 32.616,-8.368 9.4,-5.009 15.585,-12.408 18.4,-22.68 1.354,-4.941 0.691,-7.923 -5.499,-7.379 -4.058,0.356 -8.193,0.319 -12.256,-0.005 -4.028,-0.321 -6.353,1.018 -7.8,4.891 -3.019,8.081 -9.535,12.298 -17.606,14.067 -14.035,3.076 -28.108,3.204 -41.828,-1.512 -7.625,-2.621 -14.833,-6.373 -14.791,-16.038 0.041,-9.483 7.471,-12.583 14.731,-14.795 C -3.598,81.665 15.27,79.855 33.656,75.798 38.24,74.786 42.828,73.65 47.262,72.132 59.824,67.832 68.431,59.925 69.675,45.988 71.048,30.605 66.031,18.07 52.105,10.285 35.925,1.241 18.046,0.009 0,0" /></g><g
           transform="translate(2539.4458,423.6115)"
           id="g128"><path
             id="path130"
             style="fill:#ed5a3d;fill-opacity:1;fill-rule:nonzero;stroke:none"
             d="m 0,0 c 21.411,25.951 47.881,32.127 78.011,24.464 26.559,-6.754 40.573,-25.273 41.728,-55.561 0.884,-23.191 0.124,-46.442 0.38,-69.663 0.059,-5.404 -1.917,-6.835 -7.146,-6.965 -18.763,-0.468 -18.757,-0.663 -18.759,17.697 -0.002,18.203 0.093,36.407 -0.035,54.609 C 94.011,-11.596 82.849,4.312 63.575,8.533 40.453,13.597 16.614,2.685 7.112,-17.434 3.456,-25.174 1.439,-33.347 1.425,-41.963 c -0.033,-19.144 -0.26,-38.289 -0.04,-57.43 0.064,-5.635 -0.77,-8.387 -7.537,-8.386 -18.442,0.003 -18.4,-0.345 -18.451,18.107 -0.095,34.835 -0.114,69.672 -0.499,104.504 -0.061,5.563 0.974,7.603 7.078,7.606 C -1.235,22.447 -1.235,22.765 0,0" /></g><g
           transform="translate(3808.4417,424.3519)"
           id="g132"><path
             id="path134"
             style="fill:#ed5a3c;fill-opacity:1;fill-rule:nonzero;stroke:none"
             d="m 0,0 c 22.128,26.074 49.082,31.479 79.416,23.214 22.834,-6.223 37.938,-24.225 38.947,-47.732 1.115,-26.005 0.45,-52.085 0.655,-78.132 0.03,-3.779 -1.046,-5.405 -5.257,-5.8 -19.938,-1.874 -19.923,-2.024 -19.923,17.458 -10e-4,17.262 0.022,34.524 -0.008,51.787 C 93.778,-9.925 80.019,7.257 55.662,8.51 26.054,10.032 3.639,-7.683 1.654,-35.971 0.186,-56.906 0.643,-78 0.899,-99.015 c 0.089,-7.324 -1.836,-9.745 -9.449,-9.511 -16.358,0.505 -16.302,0.081 -16.386,16.28 -0.187,36.089 -0.362,72.179 -0.806,108.266 -0.051,4.09 0.727,5.955 4.956,5.51 0.311,-0.033 0.63,-0.016 0.944,0 C -3.066,22.394 -3.066,22.394 0,0" /></g><g
           transform="translate(3702.886,338.7702)"
           id="g136"><path
             id="path138"
             style="fill:#ed5a3c;fill-opacity:1;fill-rule:nonzero;stroke:none"
             d="m 0,0 c -20.795,-26.095 -47.053,-31.432 -76.425,-25.024 -25.729,5.614 -42.105,25.214 -42.917,51.488 -0.765,24.755 -0.15,49.55 -0.416,74.325 -0.053,4.904 1.43,6.309 6.38,6.455 18.908,0.555 18.9,0.753 18.903,-18.434 0.004,-17.878 -0.297,-35.762 0.094,-53.632 0.57,-26.068 13.285,-41.766 35.519,-44.705 24.157,-3.193 46.831,10.46 54.246,32.808 2.584,7.787 3.638,15.867 3.646,24.068 0.017,17.25 0.206,34.504 -0.107,51.749 -0.104,5.772 1.028,8.224 7.615,8.189 17.736,-0.093 17.565,0.246 17.774,-17.71 0.415,-35.427 -1.267,-70.879 1.101,-106.28 0.298,-4.462 -1.046,-5.904 -5.641,-6.172 C 2.187,-23.9 2.197,-24.079 0,0" /></g><g
           transform="translate(1732.1997,339.2499)"
           id="g140"><path
             id="path142"
             style="fill:#ed5a3c;fill-opacity:1;fill-rule:nonzero;stroke:none"
             d="m 0,0 c 11.205,21.811 21.645,42.086 32.04,62.385 6.136,11.983 12.568,23.838 18.145,36.077 2.875,6.31 6.494,8.541 13.534,8.361 19.494,-0.497 19.524,-0.146 10.776,-17.078 C 56.238,54.412 37.85,19.147 19.806,-16.293 c -2.634,-5.174 -5.912,-6.328 -11.463,-7.241 -19.053,-3.132 -28.745,4.8 -36.604,22.101 -15.133,33.313 -33.074,65.356 -49.742,97.981 -1.513,2.961 -3.915,5.688 -3.729,10.087 6.608,0 13.177,-0.456 19.651,0.133 6.058,0.551 8.849,-2.131 11.391,-7.186 C -34.235,66.86 -17.493,34.282 0,0" /></g><g
           transform="translate(4668.8389,384.1225)"
           id="g144"><path
             id="path146"
             style="fill:#ed5a3c;fill-opacity:1;fill-rule:nonzero;stroke:none"
             d="m 0,0 c 0,12.55 -0.233,25.106 0.108,37.646 0.149,5.465 -1.821,7.142 -7.081,6.847 -6.586,-0.369 -13.264,0.464 -19.799,-0.217 -8.37,-0.872 -6.877,4.478 -7.209,9.409 -0.379,5.632 0.7,9.222 7.47,8.125 1.839,-0.298 3.774,-0.149 5.655,-0.032 6.535,0.406 14.551,-2.649 19.221,1.257 4.541,3.799 1.571,11.853 1.469,17.972 -0.106,6.437 4.848,6.633 8.546,8.226 16.828,7.246 16.865,7.162 16.862,-10.854 C 25.24,61.76 25.24,61.76 42.173,61.759 c 3.774,0 7.622,-0.467 11.31,0.099 8.94,1.372 11.27,-2.44 10.747,-10.857 -0.348,-5.6 -2.299,-6.868 -7.341,-6.678 -8.167,0.308 -16.365,-0.154 -24.531,0.171 -5.09,0.203 -7.296,-1.088 -7.227,-6.72 0.283,-23.213 -0.171,-46.438 0.261,-69.647 0.281,-15.077 5.92,-19.837 21.263,-19.712 2.516,0.021 5.16,-0.351 7.524,0.281 10.196,2.723 11.197,-2.683 10.453,-10.731 -0.365,-3.943 -0.666,-6.372 -5.553,-6.531 -10.354,-0.336 -20.629,-1.592 -31.051,-0.086 -17.007,2.457 -26.797,12 -27.615,29.131 C -0.215,-26.375 0.288,-13.176 0.288,0 0.192,0 0.096,0 0,0" /></g><g
           transform="translate(743.7298,478.5631)"
           id="g148"><path
             id="path150"
             style="fill:#ed5a3c;fill-opacity:1;fill-rule:nonzero;stroke:none"
             d="m 0,0 c 0,-7.634 0.421,-15.718 -0.129,-23.736 -0.467,-6.808 1.319,-9.725 8.739,-9.094 7.81,0.664 15.748,-0.25 23.58,0.267 6.841,0.452 6.893,-3.45 6.58,-8.21 -0.287,-4.366 1.748,-9.822 -6.356,-9.372 -8.783,0.487 -17.62,-0.065 -26.424,0.178 -4.47,0.123 -6.083,-1.452 -6.049,-5.951 0.18,-23.85 -0.282,-47.713 0.328,-71.549 0.36,-14.044 6.138,-18.602 20.452,-18.568 2.516,0.006 5.034,0.083 7.549,0.186 12.155,0.494 12.045,0.475 11.073,-11.787 -0.269,-3.396 -1.044,-5.025 -4.77,-5.286 -11.62,-0.814 -23.22,-1.894 -34.804,0.244 -15.581,2.875 -24.42,13.398 -24.713,30.84 -0.41,24.472 -0.378,48.959 -0.06,73.433 0.084,6.439 -1.483,9.183 -8.312,8.479 -5.293,-0.546 -10.688,-0.119 -16.037,-0.107 -8.851,0.02 -13.149,6.921 -9.63,15.104 1.234,2.87 3.5,2.17 5.512,2.2 7.236,0.107 14.483,0.25 21.71,-0.023 4.655,-0.176 7.749,1.104 6.539,6.195 -3.837,16.134 5.547,22.331 18.911,25.748 C -4.546,-0.357 -3.043,1.245 0,0" /></g><g
           transform="translate(2055.7961,423.1005)"
           id="g152"><path
             id="path154"
             style="fill:#ed5a3d;fill-opacity:1;fill-rule:nonzero;stroke:none"
             d="m 0,0 c 12.869,20.825 32.18,25.359 54.227,24.755 5.7,-0.156 8.213,-1.621 7.41,-7.432 -0.213,-1.54 -0.241,-3.165 10e-4,-4.696 C 62.885,4.749 60.758,2.529 51.875,3.188 23.027,5.326 2.429,-14.26 1.906,-43.209 1.572,-61.711 1.558,-80.23 1.945,-98.73 c 0.133,-6.379 -1.383,-8.642 -8.222,-8.537 -17.57,0.269 -17.509,-0.083 -17.589,17.207 -0.161,35.132 -0.278,70.265 -0.734,105.394 -0.072,5.502 0.802,7.815 7.012,7.582 C 3.078,22.14 -0.863,25.824 -0.013,6.495 0.082,4.334 0,2.165 0,0" /></g><g
           transform="translate(4567.437,380.7013)"
           id="g156"><path
             id="path158"
             style="fill:#ed5b3e;fill-opacity:1;fill-rule:nonzero;stroke:none"
             d="m 0,0 c 0,19.432 0.16,38.866 -0.105,58.295 -0.072,5.262 1.474,6.911 6.875,7.034 19.131,0.435 19.126,0.655 19.126,-18.233 0,-34.163 -0.201,-68.328 0.162,-102.486 0.077,-7.248 -1.632,-9.738 -9.305,-9.506 C 0.013,-64.39 -0.001,-64.827 0,-47.953 0,-31.969 0,-15.984 0,0" /></g><g
           transform="translate(4580.0249,477.1749)"
           id="g160"><path
             id="path162"
             style="fill:#ed5b3e;fill-opacity:1;fill-rule:nonzero;stroke:none"
             d="M 0,0 C -14.527,0.233 -12.555,-1.802 -12.541,13.358 -12.527,27.449 -14.63,25.44 2.133,25.487 15.289,25.525 13.244,26.791 13.269,11.701 13.291,-1.689 14.913,0.181 0,0" /></g><g
           transform="translate(2591.0139,783.4813)"
           id="g164"><path
             id="path166"
             style="fill:#ffffff;fill-opacity:1;fill-rule:nonzero;stroke:none"
             d="m 0,0 c -58.838,0 -117.678,0.195 -176.514,-0.215 -8.634,-0.06 -10.982,2.437 -10.115,10.608 0.757,7.138 0.15,14.419 0.181,21.636 0.062,14.147 5.87,21.233 19.996,23.721 5.234,0.922 10.626,1.333 15.947,1.337 101,0.076 202.001,0.077 303.002,10e-4 5.322,-0.004 10.714,-0.418 15.95,-1.341 14.191,-2.502 19.909,-9.49 19.954,-23.697 0.021,-6.904 -0.577,-13.869 0.148,-20.696 0.934,-8.814 -1.586,-11.683 -11.092,-11.6 C 120.511,0.251 63.558,0 6.607,0 4.405,0 2.203,0 0,0" /></g><g
           transform="translate(3086.8982,432.976)"
           id="g168"><path
             id="path170"
             style="fill:#ffffff;fill-opacity:1;fill-rule:nonzero;stroke:none"
             d="m 0,0 c 39.682,0.12 60.45,-26.545 50.819,-63.59 -3.825,-14.712 -12.844,-24.818 -27.411,-29.698 -13.813,-4.628 -27.817,-4.808 -41.654,-0.511 -21.048,6.536 -33.233,27.387 -30.487,51.327 2.807,24.476 17.528,39.7 40.699,42.019 C -4.914,-0.14 -1.766,-0.095 0,0" /></g><g
           transform="translate(2784.6887,432.9686)"
           id="g172"><path
             id="path174"
             style="fill:#ffffff;fill-opacity:1;fill-rule:nonzero;stroke:none"
             d="m 0,0 c 31.495,-0.129 51.149,-20.427 50.926,-52.598 -0.216,-31.137 -20.562,-51.463 -51.44,-51.39 -31.319,0.075 -50.934,20.499 -50.745,52.837 C -51.075,-19.541 -31.364,0.128 0,0" /></g><g
           transform="translate(374.9961,432.9735)"
           id="g176"><path
             id="path178"
             style="fill:#ffffff;fill-opacity:1;fill-rule:nonzero;stroke:none"
             d="m 0,0 c 31.329,0.12 51.081,-19.596 51.269,-51.175 0.192,-32.271 -19.518,-52.768 -50.79,-52.817 -30.936,-0.048 -51.233,20.257 -51.383,51.404 C -51.059,-20.315 -31.512,-0.121 0,0" /></g><g
           transform="translate(4001.8174,382.123)"
           id="g180"><path
             id="path182"
             style="fill:#ffffff;fill-opacity:1;fill-rule:nonzero;stroke:none"
             d="M 0,0 C 0.526,32.108 20.464,51.409 52.523,50.842 83.206,50.3 103.013,29.289 102.381,-2.044 101.746,-33.537 80.925,-53.658 49.515,-53.136 18.95,-52.628 -0.519,-31.734 0,0" /></g><g
           transform="translate(3282.6299,392.1673)"
           id="g184"><path
             id="path186"
             style="fill:#fffefe;fill-opacity:1;fill-rule:nonzero;stroke:none"
             d="m 0,0 c -13.203,0.001 -26.41,0.203 -39.607,-0.093 -5.682,-0.128 -6.972,1.525 -5.523,7.057 4.138,15.786 13.202,26.856 29.137,31.521 12.036,3.523 24.232,3.446 36.219,-0.281 9.335,-2.902 16.7,-8.583 21.571,-17.174 C 51.166,4.507 48.656,-0.006 30.178,-0.001 20.119,0.001 10.059,-0.001 0,0" /></g><g
           transform="translate(1087.0609,392.1717)"
           id="g188"><path
             id="path190"
             style="fill:#ffffff;fill-opacity:1;fill-rule:nonzero;stroke:none"
             d="m 0,0 c -12.878,0 -25.776,0.433 -38.627,-0.162 -7.704,-0.357 -8.301,2.811 -6.476,8.773 4.63,15.125 13.771,25.822 29.487,30.06 C -4.161,41.759 7.397,41.953 18.751,38.49 33.881,33.876 42.936,23.77 46.006,8.041 47.191,1.969 46.612,-0.443 39.571,-0.155 26.4,0.383 13.192,0 0,0" /></g><g
           transform="translate(1912.7587,392.1751)"
           id="g192"><path
             id="path194"
             style="fill:#ffffff;fill-opacity:1;fill-rule:nonzero;stroke:none"
             d="m 0,0 c -13.215,0.002 -26.429,0.035 -39.644,-0.018 -3.777,-0.016 -6.722,-0.085 -5.865,5.465 2.987,19.338 19.545,33.699 41.08,35.121 C 22.461,42.343 39.844,32.39 45.565,11.941 48.607,1.066 47.852,0.019 36.812,0.002 24.542,-0.016 12.271,-0.002 0,0" /></g><g
           transform="translate(4446.813,392.179)"
           id="g196"><path
             id="path198"
             style="fill:#ffffff;fill-opacity:1;fill-rule:nonzero;stroke:none"
             d="m 0,0 c -13.214,0 -26.433,0.208 -39.64,-0.096 -5.814,-0.134 -7.251,2.051 -5.758,7.274 3.205,11.213 8.394,21.238 19.065,26.893 17.508,9.278 35.574,9.643 53.394,0.889 C 38.696,29.244 44.188,18.889 46.459,6.536 47.353,1.676 45.741,-0.196 40.584,-0.092 27.061,0.181 13.528,0 0,0" /></g><g
           transform="translate(1446.5106,392.1797)"
           id="g200"><path
             id="path202"
             style="fill:#ffffff;fill-opacity:1;fill-rule:nonzero;stroke:none"
             d="m 0,0 c -13.529,0.006 -27.059,0.129 -40.585,-0.062 -4.644,-0.066 -6.047,1.497 -5.34,6.11 3.035,19.8 20.27,33.682 43.385,34.666 26.307,1.12 43.064,-9.931 48.222,-31.178 1.827,-7.523 0.093,-10.082 -7.935,-9.7 C 25.19,0.433 12.585,-0.006 0,0" /></g><g
           transform="translate(2407.6069,379.5595)"
           id="g204"><path
             id="path206"
             style="fill:#ffffff;fill-opacity:1;fill-rule:nonzero;stroke:none"
             d="M 0,0 C 4.261,0 9.925,-0.014 15.589,0.003 28.731,0.041 28.731,0.047 27.658,-13.478 26.171,-32.206 14.967,-44.922 -3.4,-48.789 c -10.921,-2.299 -21.844,-2.845 -32.688,0.255 -12.704,3.631 -19.899,12.672 -19.621,24.326 0.266,11.147 6.623,17.45 20.525,20.763 C -24.055,-0.793 -12.639,-1.61 0,0" /></g><g
           transform="translate(174.5374,328.9795)"
           id="g208"><path
             id="path210"
             style="fill:#ffffff;fill-opacity:1;fill-rule:nonzero;stroke:none"
             d="m 0,0 c -5.526,-0.295 -11.374,0.812 -17.024,2.793 -11.457,4.016 -18.406,13.326 -17.947,23.745 0.457,10.396 7.173,17.633 20.044,20.368 16.66,3.541 33.675,3.317 50.601,3.622 15.421,0.277 15.424,0.118 12.924,-14.874 C 44.503,11.098 29.396,-0.105 0,0" /></g><g
           transform="translate(572.7035,432.9905)"
           id="g212"><path
             id="path214"
             style="fill:#ffffff;fill-opacity:1;fill-rule:nonzero;stroke:none"
             d="M 0,0 C 33.242,-0.047 53.916,-19.94 53.902,-51.867 53.888,-83.619 32.88,-103.955 0.038,-104.009 -33.35,-104.064 -54.458,-83.653 -54.337,-51.431 -54.218,-19.624 -33.435,0.047 0,0" /></g></g></g></g></svg>