<?xml version="1.0" encoding="UTF-8" standalone="no"?>
<svg
   xmlns:dc="http://purl.org/dc/elements/1.1/"
   xmlns:cc="http://creativecommons.org/ns#"
   xmlns:rdf="http://www.w3.org/1999/02/22-rdf-syntax-ns#"
   xmlns:svg="http://www.w3.org/2000/svg"
   xmlns="http://www.w3.org/2000/svg"
   viewBox="0 0 7559.0532 3779.5332"
   height="3779.5332"
   width="7559.0532"
   xml:space="preserve"
   id="svg2"
   version="1.1"><metadata
     id="metadata8"><rdf:RDF><cc:Work
         rdf:about=""><dc:format>image/svg+xml</dc:format><dc:type
           rdf:resource="http://purl.org/dc/dcmitype/StillImage" /></cc:Work></rdf:RDF></metadata><defs
     id="defs6"><clipPath
       id="clipPath20"
       clipPathUnits="userSpaceOnUse"><path
         id="path18"
         d="M 0,0 H 5669.29 V 2834.646 H 0 Z" /></clipPath><clipPath
       id="clipPath44"
       clipPathUnits="userSpaceOnUse"><path
         id="path42"
         d="m 214.095,1454.173 c 0,-656.697 532.357,-1189.055 1189.054,-1189.055 v 0 c 656.696,0 1189.054,532.358 1189.054,1189.055 v 0 c 0,656.696 -532.358,1189.055 -1189.054,1189.055 v 0 c -656.697,0 -1189.054,-532.359 -1189.054,-1189.055" /></clipPath><clipPath
       id="clipPath120"
       clipPathUnits="userSpaceOnUse"><path
         id="path118"
         d="m 520.31,2250.708 c -30.872,-34.199 -59.831,-70.254 -86.609,-107.88 v 0 -1377.309 c 24.922,-35.017 51.714,-68.656 80.193,-100.716 v 0 h 1778.512 c 7.009,7.89 13.905,15.864 20.706,23.94 v 0 1530.861 c -8.86,10.521 -17.911,20.899 -27.123,31.104 v 0 z" /></clipPath><clipPath
       id="clipPath136"
       clipPathUnits="userSpaceOnUse"><path
         id="path134"
         d="m 214.095,1454.173 c 0,-656.697 532.357,-1189.055 1189.054,-1189.055 v 0 c 656.696,0 1189.054,532.358 1189.054,1189.055 v 0 c 0,656.696 -532.358,1189.055 -1189.054,1189.055 v 0 c -656.697,0 -1189.054,-532.359 -1189.054,-1189.055" /></clipPath><clipPath
       id="clipPath192"
       clipPathUnits="userSpaceOnUse"><path
         id="path190"
         d="m 520.31,2250.708 c -30.872,-34.199 -59.831,-70.254 -86.609,-107.88 v 0 -1377.309 c 24.922,-35.017 51.714,-68.656 80.193,-100.716 v 0 h 1778.512 c 7.009,7.89 13.905,15.864 20.706,23.94 v 0 1530.861 c -8.86,10.521 -17.911,20.899 -27.123,31.104 v 0 z" /></clipPath><clipPath
       id="clipPath208"
       clipPathUnits="userSpaceOnUse"><path
         id="path206"
         d="m 214.095,1454.173 c 0,-656.697 532.357,-1189.055 1189.054,-1189.055 v 0 c 656.696,0 1189.054,532.358 1189.054,1189.055 v 0 c 0,656.696 -532.358,1189.055 -1189.054,1189.055 v 0 c -656.697,0 -1189.054,-532.359 -1189.054,-1189.055" /></clipPath><clipPath
       id="clipPath272"
       clipPathUnits="userSpaceOnUse"><path
         id="path270"
         d="M 0,0 H 5669.29 V 2834.646 H 0 Z" /></clipPath></defs><g
     transform="matrix(1.3333333,0,0,-1.3333333,0,3779.5333)"
     id="g10"><path
       id="path12"
       style="fill:#7b233c;fill-opacity:1;fill-rule:nonzero;stroke:none"
       d="M 1380.149,0 H 5669.29 V 2834.646 H 1380.149 Z" /><g
       id="g14"><g
         clip-path="url(#clipPath20)"
         id="g16"><g
           transform="translate(1380.1494,2893.6455)"
           id="g22"><path
             id="path24"
             style="fill:none;stroke:#a7a5a6;stroke-width:60;stroke-linecap:butt;stroke-linejoin:miter;stroke-miterlimit:4;stroke-dasharray:none;stroke-opacity:1"
             d="m 0,0 v -2974.521 -30 h 30 4408.047 30 v 30 V 0 30 h -30 H 30 0 Z" /></g><g
           transform="translate(1340.7871,276.457)"
           id="g26"><path
             id="path28"
             style="fill:#a7a5a6;fill-opacity:1;fill-rule:nonzero;stroke:none"
             d="m 0,0 c 656.697,0 1189.055,532.357 1189.055,1189.055 0,656.696 -532.358,1189.054 -1189.055,1189.054 -656.697,0 -1189.055,-532.358 -1189.055,-1189.054 C -1189.055,532.357 -656.697,0 0,0" /></g><g
           transform="translate(1340.7871,276.457)"
           id="g30"><path
             id="path32"
             style="fill:none;stroke:#a7a5a6;stroke-width:20;stroke-linecap:butt;stroke-linejoin:miter;stroke-miterlimit:4;stroke-dasharray:none;stroke-opacity:1"
             d="m 0,0 c 656.697,0 1189.055,532.357 1189.055,1189.055 0,656.696 -532.358,1189.054 -1189.055,1189.054 -656.697,0 -1189.055,-532.358 -1189.055,-1189.054 C -1189.055,532.357 -656.697,0 0,0 Z" /></g><g
           transform="translate(1403.1494,265.1182)"
           id="g34"><path
             id="path36"
             style="fill:#ffffff;fill-opacity:1;fill-rule:nonzero;stroke:none"
             d="M 0,0 C 656.697,0 1189.055,532.357 1189.055,1189.055 1189.055,1845.752 656.697,2378.11 0,2378.11 c -656.697,0 -1189.055,-532.358 -1189.055,-1189.055 C -1189.055,532.357 -656.697,0 0,0" /></g></g></g><g
       id="g38"><g
         clip-path="url(#clipPath44)"
         id="g40"><g
           transform="translate(805.2676,1887.3896)"
           id="g46"><path
             id="path48"
             style="fill:#a7a5a6;fill-opacity:1;fill-rule:nonzero;stroke:none"
             d="m 0,0 v -3.367 c 31.06,11.81 88.859,12.73 88.859,-44.197 v -90.838 c 0,-10.428 -3.534,-18.552 -9.263,-24.908 12.45,6.856 20.889,17.677 20.889,33.983 v 90.841 C 100.485,26.736 24.596,16.032 0,0" /></g><g
           transform="translate(756.6377,1675.2168)"
           id="g50"><path
             id="path52"
             style="fill:#a7a5a6;fill-opacity:1;fill-rule:nonzero;stroke:none"
             d="M 0,0 V 365.032 H -11.629 V -9.078 c 66.803,-5.874 107.965,-14.438 155.526,9.609 6.641,3.395 12.72,7.745 18.146,12.932 -2.132,-1.351 -4.263,-2.704 -6.516,-3.854 C 107.966,-14.438 66.804,-5.877 0,0" /></g><g
           transform="translate(1088.5518,1913.0557)"
           id="g54"><path
             id="path56"
             style="fill:#a7a5a6;fill-opacity:1;fill-rule:nonzero;stroke:none"
             d="m 0,0 2.711,24.746 c -3.51,0.139 -6.832,0.382 -10.591,0.382 l -3.75,-34.205 c 33.445,0 55.247,-9.222 62.964,-28.135 5.645,-2.473 10.866,-5.044 14.935,-7.697 C 66.269,-14.439 42.221,0 0,0" /></g><g
           transform="translate(1052.9683,1827.814)"
           id="g58"><path
             id="path60"
             style="fill:#a7a5a6;fill-opacity:1;fill-rule:nonzero;stroke:none"
             d="m 0,0 c 25.169,10.828 69.74,-5.825 90.223,-17.361 v -94.316 c 3.898,0.451 7.495,0.656 11.63,1.302 V -8.287 C 77.586,5.384 19.535,26.217 0,0" /></g><g
           transform="translate(997.7007,1765.5337)"
           id="g62"><path
             id="path64"
             style="fill:#a7a5a6;fill-opacity:1;fill-rule:nonzero;stroke:none"
             d="M 0,0 V 44.36 C 0,71.983 7.79,90.952 20.25,103.47 1.132,91.969 -11.63,70.713 -11.63,35.282 v -44.36 c 0,-114.364 120.787,-98.333 205.764,-90.317 v 7.964 C 110.191,-99.509 0,-109.271 0,0" /></g><g
           transform="translate(1302.4883,1675.2168)"
           id="g66"><path
             id="path68"
             style="fill:#a7a5a6;fill-opacity:1;fill-rule:nonzero;stroke:none"
             d="M 0,0 H -37 V 258.684 H -48.63 V -9.078 H 0 Z" /></g><g
           transform="translate(1323.064,1884.2412)"
           id="g70"><path
             id="path72"
             style="fill:#a7a5a6;fill-opacity:1;fill-rule:nonzero;stroke:none"
             d="M 0,0 C 17.327,9.733 42.367,10.675 62.808,1.565 L 65.825,13.49 C 41.715,20.755 13.939,16.042 0,0" /></g><g
           transform="translate(1587.9146,1675.748)"
           id="g74"><path
             id="path76"
             style="fill:#a7a5a6;fill-opacity:1;fill-rule:nonzero;stroke:none"
             d="M 0,0 C 6.641,3.395 12.716,7.745 18.146,12.932 16.014,11.581 13.883,10.227 11.63,9.078 -35.931,-14.969 -77.093,-6.409 -143.897,-0.531 v 365.032 h -11.63 V -9.609 C -88.723,-15.483 -47.561,-24.048 0,0" /></g><g
           transform="translate(1492.6475,1887.3896)"
           id="g78"><path
             id="path80"
             style="fill:#a7a5a6;fill-opacity:1;fill-rule:nonzero;stroke:none"
             d="m 0,0 v -3.367 c 31.06,11.81 88.855,12.73 88.855,-44.197 v -90.838 c 0,-10.428 -3.53,-18.552 -9.258,-24.908 12.445,6.856 20.888,17.677 20.888,33.983 v 90.841 C 100.485,26.736 24.596,16.032 0,0" /></g><g
           transform="translate(1879.2148,1666.1387)"
           id="g82"><path
             id="path84"
             style="fill:#a7a5a6;fill-opacity:1;fill-rule:nonzero;stroke:none"
             d="M 0,0 V 7.964 C -83.943,-0.115 -194.134,-9.877 -194.134,99.395 v 44.36 c 0,27.623 7.79,46.592 20.246,59.11 -19.115,-11.501 -31.876,-32.758 -31.876,-68.188 V 90.317 C -205.764,-24.048 -84.977,-8.016 0,0" /></g><g
           transform="translate(1775.9321,1913.0557)"
           id="g86"><path
             id="path88"
             style="fill:#a7a5a6;fill-opacity:1;fill-rule:nonzero;stroke:none"
             d="m 0,0 2.708,24.746 c -3.51,0.139 -6.832,0.382 -10.592,0.382 L -11.63,-9.077 c 33.445,0 55.243,-9.222 62.964,-28.135 5.645,-2.473 10.863,-5.044 14.931,-7.697 C 66.265,-14.439 42.218,0 0,0" /></g><g
           transform="translate(1740.3481,1827.814)"
           id="g90"><path
             id="path92"
             style="fill:#a7a5a6;fill-opacity:1;fill-rule:nonzero;stroke:none"
             d="m 0,0 c 25.169,10.828 69.741,-5.825 90.223,-17.361 v -94.316 c 3.895,0.451 7.495,0.656 11.626,1.302 V -8.287 C 77.583,5.384 19.535,26.217 0,0" /></g><g
           transform="translate(1989.8682,1675.2168)"
           id="g94"><path
             id="path96"
             style="fill:#a7a5a6;fill-opacity:1;fill-rule:nonzero;stroke:none"
             d="M 0,0 H -37.004 V 258.684 H -48.63 V -9.078 H 0 Z" /></g><g
           transform="translate(2010.4443,1884.2412)"
           id="g98"><path
             id="path100"
             style="fill:#a7a5a6;fill-opacity:1;fill-rule:nonzero;stroke:none"
             d="M 0,0 C 17.327,9.733 42.367,10.675 62.808,1.565 L 65.821,13.49 C 41.714,20.755 13.938,16.042 0,0" /></g><g
           transform="translate(2162.6138,1827.814)"
           id="g102"><path
             id="path104"
             style="fill:#a7a5a6;fill-opacity:1;fill-rule:nonzero;stroke:none"
             d="m 0,0 c 25.169,10.828 69.741,-5.825 90.223,-17.361 v -94.316 c 3.899,0.451 7.499,0.656 11.63,1.302 V -8.287 C 77.586,5.384 19.535,26.217 0,0" /></g><g
           transform="translate(2107.3467,1765.5337)"
           id="g106"><path
             id="path108"
             style="fill:#a7a5a6;fill-opacity:1;fill-rule:nonzero;stroke:none"
             d="M 0,0 V 44.36 C 0,71.99 7.797,90.959 20.253,103.481 1.139,91.979 -11.626,70.723 -11.626,35.282 v -44.36 c 0,-114.364 120.786,-98.333 205.76,-90.317 v 7.964 C 110.194,-99.509 0,-109.271 0,0" /></g><g
           transform="translate(2198.1973,1913.0557)"
           id="g110"><path
             id="path112"
             style="fill:#a7a5a6;fill-opacity:1;fill-rule:nonzero;stroke:none"
             d="m 0,0 2.711,24.746 c -3.509,0.139 -6.832,0.382 -10.591,0.382 l -3.746,-34.205 c 33.441,0 55.243,-9.222 62.96,-28.135 5.645,-2.473 10.866,-5.044 14.935,-7.697 C 66.269,-14.439 42.222,0 0,0" /></g></g></g><g
       id="g114"><g
         clip-path="url(#clipPath120)"
         id="g116"><g
           transform="translate(1348.4136,992.5547)"
           id="g122"><path
             id="path124"
             style="fill:#a7a5a6;fill-opacity:1;fill-rule:nonzero;stroke:none"
             d="m 0,0 c -31.331,1.323 -54.827,12.391 -66.165,31.145 -11.831,19.596 -10.425,47.157 3.968,77.595 3.302,6.985 7.457,13.581 11.092,19.113 23.561,35.884 52.539,64.796 86.89,87.555 -39.579,-23.704 -72.323,-55.149 -98.513,-95.038 -3.638,-5.53 -7.79,-12.129 -11.092,-19.111 C -88.213,70.817 -89.622,43.26 -77.788,23.662 -66.45,4.909 -42.954,-6.162 -11.623,-7.484 c 2.722,-0.115 5.423,-0.171 8.106,-0.171 47.346,0 87.668,17.969 122.582,40.868 C 86.901,13.963 50.237,-0.17 8.106,-0.17 5.423,-0.17 2.725,-0.118 0,0" /></g><g
           transform="translate(1555.9204,1435.6538)"
           id="g126"><path
             id="path128"
             style="fill:#a7a5a6;fill-opacity:1;fill-rule:nonzero;stroke:none"
             d="m 0,0 c -33.286,33.792 -75.701,58.767 -122.623,73.681 -18.66,4.065 -37.913,6.332 -57.535,6.332 -15.646,0 -31.418,-1.371 -46.89,-4.069 C -290.259,64.901 -353.556,48.092 -414.764,31.852 -443.769,24.148 -473.767,16.192 -503.313,8.96 -552.818,-3.159 -601.465,-9.3 -647.894,-9.311 h -0.045 c -166.455,0 -302.575,76.524 -393.66,221.289 -105.517,167.709 -89.074,358.393 42.909,497.646 21.381,22.562 44.447,41.413 68.459,56.996 -28.263,-16.734 -55.254,-38.279 -80.083,-64.48 -131.983,-139.252 -148.426,-329.938 -42.908,-497.643 91.084,-144.768 227.204,-221.289 393.656,-221.289 h 0.049 c 46.425,0.007 95.076,6.148 144.581,18.267 29.543,7.232 59.544,15.192 88.549,22.895 61.204,16.241 124.502,33.046 187.712,44.093 15.477,2.698 31.248,4.069 46.894,4.069 112.91,0 214.884,-70.768 247.969,-172.093 4.349,-13.328 6.422,-27.509 8.422,-41.232 0.937,-6.374 1.874,-12.832 3.058,-19.334 0.205,-1.142 0.139,-2.294 -0.087,-3.406 0.767,0.076 1.476,0.125 2.25,0.205 C 70.31,-104.242 45.589,-46.287 0,0" /></g></g></g><g
       id="g130"><g
         clip-path="url(#clipPath136)"
         id="g132"><g
           transform="translate(1651.8857,775.3662)"
           id="g138"><path
             id="path140"
             style="fill:#a7a5a6;fill-opacity:1;fill-rule:nonzero;stroke:none"
             d="m 0,0 c -5.909,6.475 -11.901,13.078 -18.004,19.128 -2.701,2.677 -5.12,5.523 -7.388,8.429 0.303,-1.32 0.643,-2.611 1.038,-3.85 26.652,-82.825 92.647,-134.27 172.24,-134.27 36.41,0 74.417,10.998 109.9,31.792 3.954,2.32 7.537,4.903 11.331,7.335 -35.4,-20.689 -73.296,-31.646 -109.608,-31.646 C 90.482,-103.082 31.782,-64.294 0,0" /></g><g
           transform="translate(1962.3037,978.7725)"
           id="g142"><path
             id="path144"
             style="fill:#a7a5a6;fill-opacity:1;fill-rule:nonzero;stroke:none"
             d="m 0,0 c -24.874,47.187 -61.999,87.689 -120.367,131.341 -62.908,47.054 -134.458,78.177 -212.651,92.508 -0.542,0.099 -1.084,0.144 -1.615,0.144 -3.489,0 -6.721,-2.034 -8.189,-5.297 -0.392,-0.865 -0.857,-1.593 -1.25,-2.451 77.968,-14.376 149.327,-45.45 212.079,-92.389 C -73.622,80.207 -36.5,39.701 -11.626,-7.484 26.04,-78.93 15.188,-146.527 -43.877,-208.385 c -13.762,-14.407 -28.044,-26.377 -42.61,-36.33 18.621,11.061 36.83,25.589 54.233,43.812 C 26.814,-139.044 37.663,-71.448 0,0" /></g><g
           transform="translate(987.3311,2078.7949)"
           id="g146"><path
             id="path148"
             style="fill:#a7a5a6;fill-opacity:1;fill-rule:nonzero;stroke:none"
             d="m 0,0 c -29.977,74.387 -111.875,128.37 -194.735,128.37 -14.488,0 -28.733,-1.685 -42.338,-5.012 -31.738,-7.76 -60.334,-20.243 -86.436,-36.375 22.905,12.643 47.844,22.299 74.812,28.893 13.605,3.327 27.851,5.012 42.336,5.012 82.863,0 164.761,-53.983 194.738,-128.37 22.808,-56.591 12.713,-112.377 -30.008,-165.813 -0.518,-0.647 -1.056,-1.238 -1.583,-1.859 0.045,-0.087 0.09,-0.171 0.135,-0.258 12.328,11.149 22.777,23.378 31.296,36.395 C 14.82,-93.829 19.028,-47.206 0,0" /></g><g
           transform="translate(1611.1118,1193.7607)"
           id="g150"><path
             id="path152"
             style="fill:#a7a5a6;fill-opacity:1;fill-rule:nonzero;stroke:none"
             d="m 0,0 c 0.042,0.125 0.104,0.243 0.146,0.368 0.805,2.388 0.559,5.01 -0.663,7.214 -1.233,2.204 -3.326,3.791 -5.781,4.381 -23.485,5.568 -47.415,8.391 -71.129,8.391 -58.989,0 -114.409,-17.65 -159.328,-48.87 42.732,26.444 93.681,41.385 147.705,41.385 23.711,0 47.641,-2.822 71.13,-8.391 2.451,-0.586 4.547,-2.173 5.776,-4.377 1.222,-2.205 1.472,-4.826 0.667,-7.218 -17.369,-51.737 -54.969,-99.2 -104.703,-134.225 19.121,12.283 36.694,26.236 52.216,41.704 23.603,27.04 43.884,58.441 60.707,95.864 C -2.542,-2.184 -1.382,-0.913 0,0" /></g><g
           transform="translate(493.0171,1597.7349)"
           id="g154"><path
             id="path156"
             style="fill:#a7a5a6;fill-opacity:1;fill-rule:nonzero;stroke:none"
             d="M 0,0 C 46.048,-102.106 162.947,-189.399 277.55,-197.391 179.923,-174.697 74.518,-110.959 0,0" /></g><g
           transform="translate(2010.6455,1073.4639)"
           id="g158"><path
             id="path160"
             style="fill:#a7a5a6;fill-opacity:1;fill-rule:nonzero;stroke:none"
             d="m 0,0 c 28.391,-38.386 51.904,-80.482 60.891,-131.365 9.148,-51.789 3.191,-102.29 -18.764,-154.899 21.254,36.314 34.612,81.364 33.126,121.117 C 72.806,-99.601 48.05,-45.044 0,0" /></g><g
           transform="translate(905.7524,1758.063)"
           id="g162"><path
             id="path164"
             style="fill:#7b233c;fill-opacity:1;fill-rule:nonzero;stroke:none"
             d="m 0,0 c 0,-16.306 -8.439,-27.127 -20.888,-33.983 -21.833,-12.033 -56.108,-11.748 -79.597,-6.641 v 166.583 3.368 C -75.889,145.359 0,156.063 0,90.841 Z m 2.666,179.041 c -35.275,16.554 -78.02,11.227 -103.151,0.522 v 111.701 h -48.63 v -9.078 -365.032 c 66.804,-5.877 107.966,-14.438 155.527,9.61 2.253,1.149 4.385,2.502 6.516,3.853 20.618,13.084 35.167,35.573 35.167,70.456 v 100.995 c 0,17.382 -3.586,31.564 -9.595,43.252 -0.045,0.087 -0.09,0.171 -0.136,0.258 -8.047,15.495 -20.492,26.466 -35.698,33.463" /></g><g
           transform="translate(1154.8208,1717.4385)"
           id="g166"><path
             id="path168"
             style="fill:#7b233c;fill-opacity:1;fill-rule:nonzero;stroke:none"
             d="m 0,0 c -4.135,-0.646 -7.731,-0.851 -11.63,-1.302 -64.141,-7.419 -96.86,10.818 -96.86,53.153 v 35.251 c 0,10.248 2.517,17.743 6.637,23.273 19.535,26.218 77.587,5.385 101.853,-8.286 z m -157.12,92.455 v -44.36 c 0,-109.271 110.191,-99.509 194.134,-91.431 3.913,0.375 7.842,0.757 11.63,1.115 v 159.272 c 0,51.307 0,112.771 -111.167,112.771 l -1.035,-9.459 -2.711,-24.746 C -24.048,195.617 0,181.178 0,150.708 c -4.069,2.652 -9.29,5.225 -14.935,7.697 -28.456,12.463 -73.646,20.746 -105.303,5.124 -6.186,-3.014 -11.738,-7.037 -16.632,-11.963 -12.46,-12.519 -20.25,-31.488 -20.25,-59.111" /></g><g
           transform="translate(1302.4883,1675.2168)"
           id="g170"><path
             id="path172"
             style="fill:#7b233c;fill-opacity:1;fill-rule:nonzero;stroke:none"
             d="m 0,0 h 11.63 v 184.914 c 0,9.769 3.43,17.76 8.946,24.11 13.939,16.042 41.715,20.755 65.825,13.49 2.902,-0.871 5.853,-1.621 8.613,-2.85 l 11.751,46.479 c -28.318,5.9 -59.86,12.298 -95.656,-6.398 l -2.142,8.016 H -37 v -9.077 L -37,0 Z" /></g><g
           transform="translate(1593.1323,1758.063)"
           id="g174"><path
             id="path176"
             style="fill:#7b233c;fill-opacity:1;fill-rule:nonzero;stroke:none"
             d="m 0,0 c 0,-16.306 -8.443,-27.127 -20.889,-33.983 -21.832,-12.033 -56.107,-11.748 -79.596,-6.641 v 166.583 3.368 C -75.889,145.359 0,156.063 0,90.841 Z m 6.412,-73.236 c 2.253,1.149 4.385,2.502 6.516,3.853 20.618,13.084 35.167,35.573 35.167,70.456 v 100.995 c 0,40.628 -18.708,64.675 -45.432,76.973 -35.275,16.554 -78.017,11.227 -103.148,0.522 v 111.701 h -48.63 v -9.078 -365.032 c 66.804,-5.877 107.966,-14.438 155.527,9.61" /></g><g
           transform="translate(1842.1973,1717.4385)"
           id="g178"><path
             id="path180"
             style="fill:#7b233c;fill-opacity:1;fill-rule:nonzero;stroke:none"
             d="m 0,0 c -4.131,-0.646 -7.731,-0.851 -11.626,-1.302 -64.145,-7.419 -96.861,10.818 -96.861,53.153 v 35.251 c 0,10.248 2.517,17.743 6.638,23.273 19.534,26.218 77.583,5.385 101.849,-8.286 z m -157.117,48.095 c 0,-109.271 110.192,-99.509 194.135,-91.431 3.912,0.375 7.842,0.757 11.626,1.115 v 159.272 c 0,51.307 0,112.771 -111.164,112.771 l -1.038,-9.459 -2.707,-24.746 C -24.047,195.617 0,181.178 0,150.708 c -4.069,2.652 -9.286,5.225 -14.931,7.697 -28.457,12.463 -73.646,20.746 -105.307,5.124 -6.186,-3.014 -11.734,-7.037 -16.632,-11.963 -12.456,-12.519 -20.247,-31.488 -20.247,-59.111 z" /></g><g
           transform="translate(1989.8682,1675.2168)"
           id="g182"><path
             id="path184"
             style="fill:#7b233c;fill-opacity:1;fill-rule:nonzero;stroke:none"
             d="m 0,0 h 11.63 v 184.914 c 0,9.769 3.43,17.76 8.946,24.11 13.938,16.042 41.715,20.755 65.82,13.49 2.907,-0.871 5.858,-1.621 8.618,-2.85 l 11.747,46.479 c -28.317,5.9 -59.857,12.298 -95.655,-6.398 l -2.142,8.016 h -45.968 v -9.077 L -37.004,0 Z" /></g></g></g><g
       id="g186"><g
         clip-path="url(#clipPath192)"
         id="g188"><g
           transform="translate(2264.4663,1717.4385)"
           id="g194"><path
             id="path196"
             style="fill:#7b233c;fill-opacity:1;fill-rule:nonzero;stroke:none"
             d="m 0,0 c -4.131,-0.646 -7.731,-0.851 -11.63,-1.302 -64.141,-7.419 -96.86,10.818 -96.86,53.153 v 35.251 c 0,10.248 2.517,17.743 6.637,23.273 19.535,26.218 77.587,5.385 101.853,-8.286 z m 48.644,117.051 c 0,51.307 0,112.771 -111.167,112.771 l -1.034,-9.459 -2.712,-24.746 C -24.047,195.617 0,181.178 0,150.708 c -4.069,2.652 -9.29,5.225 -14.934,7.697 -28.457,12.463 -73.65,20.746 -105.318,5.124 -6.179,-3.014 -11.72,-7.034 -16.615,-11.953 -12.456,-12.522 -20.253,-31.491 -20.253,-59.121 v -44.36 c 0,-109.271 110.195,-99.509 194.134,-91.431 3.913,0.375 7.843,0.757 11.63,1.115 z" /></g><g
           transform="translate(1547.1479,1094.123)"
           id="g198"><path
             id="path200"
             style="fill:#7b233c;fill-opacity:1;fill-rule:nonzero;stroke:none"
             d="m 0,0 c -15.522,-15.469 -33.095,-29.422 -52.216,-41.704 -13.904,-8.932 -28.418,-17.174 -43.857,-24.034 -30.376,-13.494 -64.22,-21.097 -95.305,-21.406 l -1.277,-0.01 c -27.579,0 -47.648,9.252 -56.504,26.033 -9.613,18.223 -5.002,42.732 12.977,69.019 17.038,24.908 38.684,46.047 63.391,63.224 44.919,31.22 100.339,48.87 159.328,48.87 23.714,0 47.644,-2.823 71.129,-8.39 2.455,-0.591 4.548,-2.178 5.781,-4.382 1.222,-2.205 1.468,-4.825 0.663,-7.214 C 64.068,99.881 64.005,99.763 63.964,99.638 51.706,63.342 29.356,29.262 0,0 m 438.061,-9.596 c -93.34,115.062 -191.78,168.591 -339.774,184.768 -4.61,0.504 -8.075,4.423 -8.005,9.065 0.906,59.589 -23.923,118.106 -69.883,164.775 -56.018,56.868 -137.561,89.49 -223.719,89.49 -11.238,0 -22.683,-0.548 -34.029,-1.631 -74.527,-7.1 -150.159,-18.986 -223.299,-30.488 l -10.633,-1.67 c -39.239,-6.162 -77.18,-9.297 -112.767,-9.297 -93.389,0 -175.485,20.667 -250.978,63.166 -130.915,73.715 -238.791,271.019 -187.204,424.735 29.101,86.704 75.885,149.39 138.905,188.338 26.101,16.131 54.697,28.614 86.436,36.375 13.604,3.327 27.85,5.012 42.337,5.012 82.86,0 164.758,-53.983 194.735,-128.37 19.028,-47.206 14.82,-93.83 -11.782,-139.017 -5.291,-8.986 -11.141,-17.933 -18.226,-26.796 -1.083,-1.352 -2.187,-2.645 -3.309,-3.89 0.108,0.094 0.202,0.172 0.278,0.24 72.129,63.784 81.433,164.636 22.111,239.804 -52.442,66.452 -120.683,101.572 -197.328,101.572 -52.533,0 -105.036,-17.062 -153.386,-48.435 -24.012,-15.582 -47.077,-34.433 -68.458,-56.995 -131.983,-139.254 -148.426,-329.938 -42.909,-497.646 91.085,-144.765 227.205,-221.289 393.659,-221.289 h 0.045 c 46.429,0.01 95.077,6.151 144.581,18.271 29.547,7.231 59.545,15.188 88.55,22.891 61.207,16.24 124.505,33.05 187.715,44.093 15.473,2.697 31.245,4.069 46.891,4.069 19.621,0 38.875,-2.267 57.535,-6.333 88.698,-19.319 163.101,-82.044 190.436,-165.761 4.347,-13.324 6.419,-27.508 8.423,-41.228 0.937,-6.374 1.871,-12.831 3.055,-19.337 0.447,-2.465 -0.15,-5.002 -1.656,-6.999 -1.5,-2.003 -3.767,-3.286 -6.256,-3.541 -0.531,-0.055 -1.021,-0.09 -1.548,-0.142 -0.775,-0.08 -1.483,-0.128 -2.25,-0.205 -10.568,-1.052 -20.941,-1.972 -30.998,-2.826 -23.627,-2.01 -45.939,-3.904 -67.821,-7.755 -54.691,-9.606 -101.148,-27.512 -140.484,-53.577 -34.351,-22.76 -63.329,-51.671 -86.89,-87.557 -3.635,-5.53 -7.791,-12.126 -11.092,-19.111 -14.393,-30.439 -15.799,-58 -3.968,-77.597 11.338,-18.753 34.834,-29.82 66.165,-31.143 2.725,-0.118 5.422,-0.17 8.106,-0.17 42.131,0 78.795,14.134 110.959,33.383 19.354,11.582 37.083,25.012 53.389,38.334 40.486,33.086 72.303,76.019 97.364,130.916 0.392,0.857 0.857,1.586 1.25,2.45 1.468,3.264 4.7,5.298 8.189,5.298 0.531,0 1.073,-0.045 1.614,-0.146 78.194,-14.33 149.744,-45.453 212.652,-92.507 58.368,-43.652 95.493,-84.155 120.367,-131.34 37.663,-71.449 26.814,-139.044 -32.255,-200.904 -17.402,-18.222 -35.611,-32.751 -54.233,-43.812 -27.147,-16.125 -55.201,-24.648 -83.13,-24.648 -23.836,0 -46.8,6.204 -68.244,18.431 -22.416,12.782 -40.365,32.512 -57.722,51.601 -6.898,7.573 -14.022,15.407 -21.215,22.538 -2.698,2.673 -5.121,5.52 -7.384,8.429 0.302,-1.323 0.638,-2.614 1.034,-3.849 3.538,-10.998 7.867,-21.348 12.731,-31.193 31.782,-64.294 90.483,-103.082 159.508,-103.082 36.313,0 74.209,10.956 109.608,31.648 0.098,0.055 0.198,0.093 0.296,0.148 70.643,41.399 116.294,101.402 128.555,168.945 12.606,69.473 -10.348,144.595 -64.644,211.502" /></g></g></g><g
       id="g202"><g
         clip-path="url(#clipPath208)"
         id="g204"><g
           transform="translate(504.6416,1605.2197)"
           id="g210"><path
             id="path212"
             style="fill:#7b233c;fill-opacity:1;fill-rule:nonzero;stroke:none"
             d="M 0,0 C 46.048,-102.106 162.946,-189.403 277.551,-197.392 179.923,-174.7 74.518,-110.962 0,0" /></g><g
           transform="translate(2083.1597,949.584)"
           id="g214"><path
             id="path216"
             style="fill:#7b233c;fill-opacity:1;fill-rule:nonzero;stroke:none"
             d="M 0,0 C 9.151,-51.789 3.19,-102.294 -18.764,-154.902 2.489,-118.589 15.848,-73.535 14.362,-33.785 11.915,31.761 -12.841,86.316 -60.891,131.361 -32.501,92.976 -8.988,50.883 0,0" /></g><g
           transform="translate(1121.8687,1371.8633)"
           id="g218"><path
             id="path220"
             style="fill:#231f20;fill-opacity:1;fill-rule:nonzero;stroke:none"
             d="m 0,0 c -14.664,0 -24.975,-5.846 -30.932,-17.524 v 69.018 h -5.724 V -82.429 h 5.724 v 46.846 c 0,8.231 3.097,15.375 9.294,21.461 6.2,6.071 13.414,9.113 21.638,9.113 8.224,0 15.254,-3.011 21.1,-9.026 5.839,-6.02 8.763,-13.203 8.763,-21.548 v -46.846 h 5.717 v 46.846 c 0,9.894 -3.426,18.298 -10.279,25.214 C 18.444,-3.464 10.012,0 0,0" /></g><g
           transform="translate(1241.312,1303.4697)"
           id="g222"><path
             id="path224"
             style="fill:#231f20;fill-opacity:1;fill-rule:nonzero;stroke:none"
             d="m 0,0 c -7.155,-7.328 -15.768,-10.994 -25.842,-10.994 -10.075,0 -18.775,3.666 -26.103,10.994 -7.332,7.335 -10.998,16.004 -10.998,26.02 0,10.008 3.666,18.739 10.998,26.196 7.328,7.44 16.004,11.168 26.016,11.168 10.012,0 18.621,-3.697 25.835,-11.085 C 7.117,44.905 10.724,36.174 10.724,26.103 10.724,16.035 7.148,7.335 0,0 m 10.366,46.221 c -2.742,6.675 -7.599,12.036 -14.57,16.087 -6.974,4.05 -14.279,6.086 -21.902,6.086 -11.686,0 -21.701,-4.145 -30.04,-12.429 -8.346,-8.283 -12.518,-18.205 -12.518,-29.768 0,-11.561 4.172,-21.486 12.518,-29.776 8.339,-8.283 18.354,-12.421 30.04,-12.421 7.623,0 14.778,1.964 21.454,5.901 6.673,3.93 11.678,9.297 15.018,16.088 v -20.025 h 5.725 v 80.458 h -5.725 z" /></g><g
           transform="translate(1289.2231,1394.21)"
           id="g226"><path
             id="path228"
             style="fill:#231f20;fill-opacity:1;fill-rule:nonzero;stroke:none"
             d="m 0,0 c 0,3.225 -1.729,4.833 -5.187,4.833 -3.457,0 -5.186,-1.608 -5.186,-4.833 0,-3.218 1.729,-4.829 5.186,-4.829 C -1.729,-4.829 0,-3.218 0,0" /></g><path
           id="path230"
           style="fill:#231f20;fill-opacity:1;fill-rule:nonzero;stroke:none"
           d="m 1281.176,1289.434 h 5.721 v 80.28 h -5.721 z" /><g
           transform="translate(1310.6777,1369.8916)"
           id="g232"><path
             id="path234"
             style="fill:#231f20;fill-opacity:1;fill-rule:nonzero;stroke:none"
             d="m 0,0 v -80.458 h 5.725 v 53.643 c 0,6.312 2.412,11.859 7.238,16.628 4.829,4.768 10.401,7.149 16.722,7.149 6.312,0 12.095,-2.621 17.341,-7.866 v 7.155 C 41.899,0.062 36.535,1.972 30.932,1.972 25.329,1.972 20.264,0.66 15.737,-1.961 11.203,-4.586 7.87,-7.926 5.725,-11.98 V 0 Z" /></g><g
           transform="translate(1400.501,1340.7998)"
           id="g236"><path
             id="path238"
             style="fill:#231f20;fill-opacity:1;fill-rule:nonzero;stroke:none"
             d="m 0,0 c 0,-14.675 5.308,-27.325 15.928,-37.941 10.616,-10.623 23.409,-15.931 38.371,-15.931 10.547,0 20.34,2.923 29.39,8.766 9.054,5.842 15.144,13.039 18.282,21.589 v -27.359 h 6.412 v 98.329 h 29.713 v 5.992 H 72.258 v -5.992 h 29.713 V -0.215 c 0,-13.113 -4.708,-24.298 -14.108,-33.554 -9.405,-9.275 -20.597,-13.899 -33.564,-13.899 -12.97,0 -24.155,4.662 -33.563,14.001 -9.401,9.328 -14.105,20.454 -14.105,33.351 0,12.89 4.732,24.079 14.213,33.563 9.477,9.471 20.628,14.206 33.455,14.206 h 1.712 v 5.992 h -2.996 c -7.124,0 -13.286,2.597 -18.49,7.8 -5.204,5.198 -7.801,11.294 -7.801,18.275 0,6.981 2.597,13.077 7.801,18.278 5.204,5.2 10.904,7.804 17.105,7.804 6.196,0 11.65,-1.573 16.351,-4.704 4.704,-3.138 8.05,-7.054 10.046,-11.755 v 11.328 c -6.558,7.408 -14.677,11.116 -24.37,11.116 -9.693,0 -17.743,-3.138 -24.155,-9.408 -6.412,-6.273 -9.62,-13.89 -9.62,-22.874 0,-5.843 1.708,-11.401 5.131,-16.671 3.419,-5.28 7.766,-9.189 13.043,-11.762 C 26.794,47.453 17.639,40.971 10.582,31.428 3.527,21.874 0,11.397 0,0" /></g><g
           transform="translate(1667.0493,1343.0771)"
           id="g240"><path
             id="path242"
             style="fill:#231f20;fill-opacity:1;fill-rule:nonzero;stroke:none"
             d="m 0,0 c 0,6.311 2.382,11.858 7.151,16.629 4.767,4.766 10.374,7.147 16.81,7.147 6.436,0 11.918,-2.349 16.452,-7.053 C 44.94,12.005 47.207,6.436 47.207,0 v -53.644 h 5.717 V 0 c 0,6.311 2.475,11.858 7.423,16.629 4.943,4.766 10.605,7.147 16.986,7.147 6.374,0 11.831,-2.297 16.358,-6.883 4.534,-4.586 6.794,-10.342 6.794,-17.254 v -53.283 h 5.725 v 53.283 c 0,8.939 -2.743,16.032 -8.225,21.274 -5.485,5.245 -11.862,7.873 -19.131,7.873 -7.273,0 -13.442,-1.732 -18.507,-5.19 -5.069,-3.457 -8.492,-8.04 -10.283,-13.765 -2.142,5.607 -5.541,10.162 -10.189,13.682 -4.649,3.509 -9.509,5.273 -14.574,5.273 -5.069,0 -9.957,-1.312 -14.664,-3.933 C 5.929,22.229 2.382,19.128 0,15.556 V 26.814 H -5.721 V -53.644 H 0 Z" /></g><g
           transform="translate(1858.9063,1303.4697)"
           id="g244"><path
             id="path246"
             style="fill:#231f20;fill-opacity:1;fill-rule:nonzero;stroke:none"
             d="m 0,0 c -7.155,-7.328 -15.765,-10.994 -25.839,-10.994 -10.075,0 -18.778,3.666 -26.103,10.994 -7.332,7.335 -10.998,16.004 -10.998,26.02 0,10.008 3.666,18.739 10.998,26.196 7.325,7.44 16.001,11.168 26.013,11.168 10.012,0 18.625,-3.697 25.835,-11.085 C 7.12,44.905 10.727,36.174 10.727,26.103 10.727,16.035 7.148,7.335 0,0 M 16.091,-14.036 V 66.422 H 10.366 V 46.221 c -2.739,6.675 -7.599,12.036 -14.57,16.087 -6.971,4.05 -14.275,6.086 -21.902,6.086 -11.682,0 -21.698,-4.145 -30.04,-12.429 -8.346,-8.283 -12.518,-18.205 -12.518,-29.768 0,-11.561 4.172,-21.486 12.518,-29.776 8.342,-8.283 18.358,-12.421 30.04,-12.421 7.627,0 14.778,1.964 21.454,5.901 6.676,3.93 11.682,9.297 15.018,16.088 v -20.025 z" /></g><g
           transform="translate(1902.1724,1331.8115)"
           id="g248"><path
             id="path250"
             style="fill:#231f20;fill-opacity:1;fill-rule:nonzero;stroke:none"
             d="m 0,0 40.77,-42.378 h 7.686 L 2.326,5.898 39.16,38.08 H 31.827 L 0,10.193 V 91.369 H -5.721 V -42.378 H 0 Z" /></g><g
           transform="translate(1967.7959,1305.3516)"
           id="g252"><path
             id="path254"
             style="fill:#231f20;fill-opacity:1;fill-rule:nonzero;stroke:none"
             d="m 0,0 c -6.325,7.144 -9.481,15.49 -9.481,25.025 0,9.538 3.666,17.978 11.002,25.309 7.325,7.322 15.733,10.988 25.207,10.988 9.477,0 17.91,-3.218 25.301,-9.651 z m 28.248,66.328 c -12.279,0 -22.593,-4.139 -30.931,-12.421 -8.346,-8.29 -12.515,-18.092 -12.515,-29.415 0,-11.328 4.2,-21.254 12.601,-29.769 8.405,-8.53 18.268,-12.783 29.596,-12.783 h 1.607 c 12.039,0 22.291,4.649 30.758,13.946 v 9.117 c -3.697,-5.482 -8.377,-9.867 -14.039,-13.142 -5.662,-3.279 -12.071,-4.914 -19.226,-4.914 -7.148,0 -14.601,3.1 -22.346,9.293 L 59.895,51.671 C 51.074,61.439 40.524,66.328 28.248,66.328" /></g><path
           id="path256"
           style="fill:#231f20;fill-opacity:1;fill-rule:nonzero;stroke:none"
           d="m 2041.102,1358.633 h 55.604 v 5.537 h -55.604 z" /><g
           transform="translate(2179.3154,1323.0459)"
           id="g258"><path
             id="path260"
             style="fill:#231f20;fill-opacity:1;fill-rule:nonzero;stroke:none"
             d="m 0,0 c 0,-8.221 -3.131,-15.376 -9.387,-21.454 -6.256,-6.079 -13.501,-9.117 -21.725,-9.117 -8.224,0 -15.227,3.038 -21.01,9.117 -5.78,6.078 -8.672,13.233 -8.672,21.454 v 46.846 h -5.718 V 0 c 0,-9.891 3.392,-18.299 10.189,-25.204 6.794,-6.915 15.199,-10.373 25.211,-10.373 14.66,0 25.033,6.079 31.112,18.237 v -16.272 h 5.721 v 80.458 l -5.721,0 z" /></g><g
           transform="translate(2273.0068,1303.4697)"
           id="g262"><path
             id="path264"
             style="fill:#231f20;fill-opacity:1;fill-rule:nonzero;stroke:none"
             d="m 0,0 c -7.152,-7.328 -15.769,-10.994 -25.835,-10.994 -10.075,0 -18.775,3.666 -26.107,10.994 -7.335,7.335 -10.998,16.004 -10.998,26.02 0,10.008 3.663,18.739 10.998,26.196 7.332,7.44 16.001,11.168 26.016,11.168 10.012,0 18.625,-3.697 25.836,-11.085 C 7.12,44.905 10.727,36.174 10.727,26.103 10.727,16.035 7.151,7.335 0,0 m -26.106,68.394 c -7.391,0 -14.515,-1.972 -21.369,-5.902 -6.855,-3.933 -11.889,-9.179 -15.107,-15.737 v 19.667 h -5.722 V -49.796 h 5.722 v 55.25 c 3.575,-6.558 8.762,-11.772 15.556,-15.646 6.797,-3.875 13.768,-5.808 20.92,-5.808 11.802,0 21.842,4.138 30.126,12.421 8.287,8.29 12.428,18.215 12.428,29.776 0,11.563 -4.141,21.485 -12.428,29.768 -8.284,8.284 -18.324,12.429 -30.126,12.429" /></g></g></g><g
       id="g266"><g
         clip-path="url(#clipPath272)"
         id="g268"><g
           transform="translate(1403.1494,265.1182)"
           id="g274"><path
             id="path276"
             style="fill:none;stroke:#7b233c;stroke-width:20;stroke-linecap:butt;stroke-linejoin:miter;stroke-miterlimit:4;stroke-dasharray:none;stroke-opacity:1"
             d="M 0,0 C 656.697,0 1189.055,532.357 1189.055,1189.055 1189.055,1845.752 656.697,2378.11 0,2378.11 c -656.697,0 -1189.055,-532.358 -1189.055,-1189.055 C -1189.055,532.357 -656.697,0 0,0 Z" /></g></g></g><text
       id="text282"
       style="font-variant:normal;font-weight:normal;font-stretch:normal;font-size:170px;font-family:advent;-inkscape-font-specification:advent-Regular;writing-mode:lr-tb;fill:#ffffff;fill-opacity:1;fill-rule:nonzero;stroke:none"
       transform="matrix(1,0,0,-1,2592.2039,695.729)"><tspan
         id="tspan278"
         y="0"
         x="0 82.620003 164.56 218.78999 301.41 383.35001 432.293 514.23297 556.56299 640.883 722.823 754.78302 809.013 851.34302 949.94299 992.27301 1119.943 1201.8831 1275.476 1352.826 1437.146 1522.146 1605.616 1640.296 1682.626 1776.296 1858.236 1942.556 2025.176 2108.9861 2193.9861 2235.4661 2307.5459 2376.5659 2460.886 2503.2161">barbara hair &amp; make-up, Sandgütsch 1</tspan><tspan
         id="tspan280"
         y="204"
         x="0 87.889999 181.73 256.35999 339.48999 381.82001 483.14001 515.09998 547.06 629.67999 661.64001 733.71997 787.95001 819.90997 897.26001 979.88 1057.23 1141.55 1268.54 1362.38 1445.51 1494.13 1536.46 1619.59 1707.48 1801.3199 1843.65 1918.28 1997.5 2039.83 2114.46">6024 Hildisrieden 041 460 25 25</tspan></text>
<text
       id="text286"
       style="font-variant:normal;font-weight:900;font-stretch:normal;font-size:170px;font-family:advent;-inkscape-font-specification:advent-Bd3;writing-mode:lr-tb;fill:#ffffff;fill-opacity:1;fill-rule:nonzero;stroke:none"
       transform="matrix(1,0,0,-1,2592.2039,287.729)"><tspan
         id="tspan284"
         y="0"
         x="0 306.67999 342.54999 423.13 503.03 561.34003 641.91998 721.82001 778.44702 858.34698 937.22699 1019.507 1145.137 1181.007 1247.817 1330.097">w.barbara-hm.ch </tspan></text>
<text
       id="text290"
       style="font-variant:normal;font-weight:normal;font-stretch:normal;font-size:170px;font-family:advent;-inkscape-font-specification:advent-Regular;writing-mode:lr-tb;fill:#ffffff;fill-opacity:1;fill-rule:nonzero;stroke:none"
       transform="matrix(1,0,0,-1,4045.2109,287.729)"><tspan
         id="tspan288"
         y="0"
         x="0 31.959999 116.28 157.25 236.98 367.54001 450.16 532.09998 586.33002 668.95001 750.89001 799.84998 881.78998 966.10999 1050.4301 1178.1 1212.4399 1281.46">info@barbara-hm.ch</tspan></text>
</g></svg>