<?xml version="1.0" encoding="UTF-8" standalone="no"?>
<svg
   xmlns:dc="http://purl.org/dc/elements/1.1/"
   xmlns:cc="http://creativecommons.org/ns#"
   xmlns:rdf="http://www.w3.org/1999/02/22-rdf-syntax-ns#"
   xmlns:svg="http://www.w3.org/2000/svg"
   xmlns="http://www.w3.org/2000/svg"
   viewBox="0 0 7559.0532 1700.7867"
   height="1700.7867"
   width="7559.0532"
   xml:space="preserve"
   id="svg2"
   version="1.1"><metadata
     id="metadata8"><rdf:RDF><cc:Work
         rdf:about=""><dc:format>image/svg+xml</dc:format><dc:type
           rdf:resource="http://purl.org/dc/dcmitype/StillImage" /></cc:Work></rdf:RDF></metadata><defs
     id="defs6"><clipPath
       id="clipPath20"
       clipPathUnits="userSpaceOnUse"><path
         id="path18"
         d="M 0,1275.59 H 5669.29 V 0 H 0 Z" /></clipPath><clipPath
       id="clipPath180"
       clipPathUnits="userSpaceOnUse"><path
         id="path178"
         d="M 0,1275.59 H 5669.29 V 0 H 0 Z" /></clipPath></defs><g
     transform="matrix(1.3333333,0,0,-1.3333333,0,1700.7867)"
     id="g10"><path
       id="path12"
       style="fill:#66734f;fill-opacity:1;fill-rule:nonzero;stroke:none"
       d="M 0,0 H 5669.29 V 1275.59 H 0 Z" /><g
       id="g14"><g
         clip-path="url(#clipPath20)"
         id="g16"><g
           transform="translate(608.6443,93.5856)"
           id="g22"><path
             id="path24"
             style="fill:#050606;fill-opacity:1;fill-rule:nonzero;stroke:none"
             d="m 0,0 c -8.968,19.641 -47.756,56.95 -47.756,56.95 -12.063,11.5 -7.501,8.752 -22.827,23.843 -31.982,31.493 -39.794,34.881 -48.293,51.479 -5.859,11.443 -6.441,16.527 -4.034,29.821 1.917,10.595 6.095,21.821 14.393,43.95 10.861,28.966 8.399,23.983 19.191,52.505 9.808,25.921 14.749,38.858 14.829,39.025 3.464,7.286 5.321,11.992 2.508,13.394 -3.019,1.504 -7.123,-7.682 -8.169,-10.408 -10.478,-27.294 -19.713,-46.327 -27.997,-69.857 -6.04,-17.154 -10.837,-34.759 -17.595,-51.643 -0.788,-1.968 -4.086,-10.165 -5.517,-21.425 -0.981,-7.729 -2.02,-16.794 2.374,-25.758 0.976,-1.991 2.802,-4.579 6.452,-9.755 0.001,-10e-4 4.932,-6.992 9.694,-12.854 9.919,-12.21 21.62,-21.686 38.188,-37.993 1.818,-1.789 6.731,-6.858 16.557,-16.997 40.736,-42.032 44.06,-45.979 49.812,-57.329 0.576,-1.137 2.748,-7.606 6.444,-7.597 C 0.92,-10.643 1.657,-3.628 0,0" /></g><g
           transform="translate(624.5196,141.2478)"
           id="g26"><path
             id="path28"
             style="fill:#050606;fill-opacity:1;fill-rule:nonzero;stroke:none"
             d="m 0,0 c -0.909,14.807 -2.941,41.203 -12.913,61.766 -11.856,24.448 -6.683,14.235 -19.624,41.155 -5.727,11.912 -22.119,40.452 -25.275,50.286 -1.633,5.092 -1.456,16.489 -5.176,16.255 -3.668,-0.23 -3.287,-7.404 -2.91,-10.658 0.578,-4.996 1.398,-8.432 2.26,-11.415 1.984,-6.875 16.889,-32.346 22.978,-45.548 8.203,-17.788 9.751,-22.459 18.521,-39.605 3.055,-5.972 7.946,-20.668 10.43,-35.557 1.289,-7.727 0.976,-22.589 1.242,-30.89 0.195,-6.112 -1.485,-20.919 5.931,-21.725 C 2.592,-26.71 0.473,-7.707 0,0" /></g><g
           transform="translate(637.7982,333.8963)"
           id="g30"><path
             id="path32"
             style="fill:#050606;fill-opacity:1;fill-rule:nonzero;stroke:none"
             d="m 0,0 c 0,0 1.481,-1.118 -6.463,2.3 -14.58,6.275 -20.145,6.436 -35.131,8.939 -8.266,1.38 -8.532,-0.138 -12.731,0.052 -3.903,0.178 -4.43,2.012 -4.315,3.797 0.143,2.195 2.578,3.638 6.012,3.674 7.126,0.077 8.805,0.515 14.362,0.178 4.78,-0.29 16.729,-3.053 25.648,-5.612 C -4.103,10.885 0,8.587 0,8.587 Z" /></g><g
           transform="translate(562.4782,365.9501)"
           id="g34"><path
             id="path36"
             style="fill:#050606;fill-opacity:1;fill-rule:nonzero;stroke:none"
             d="m 0,0 c -2.094,6.16 -4.024,11.66 -10.361,23.194 -11.692,21.279 -23.764,37.452 -24.334,43.726 0.189,4.947 -1.141,45.373 -3.042,55.512 -1.844,9.835 -3.929,18.758 -7.351,28.771 -2.149,6.287 -2.63,10.583 0.507,11.153 2.544,0.463 3.802,-1.521 6.463,-7.985 3.506,-8.512 6.014,-19.283 7.188,-27.508 1.782,-12.492 3.133,-18.909 3.459,-29.779 0.208,-6.927 0.1,-25.633 0.57,-29.594 1.177,-4.53 7.544,-12.585 11.597,-19.582 3.188,-5.504 7.907,-13.505 11.787,-20.912 C 0.513,19.303 3.674,12.231 5.228,8.175 6.295,5.39 12.262,-5.513 9.03,-7.985 5.133,-10.965 2.697,-7.934 0,0" /></g><g
           transform="translate(583.0333,406.63)"
           id="g38"><path
             id="path40"
             style="fill:#050606;fill-opacity:1;fill-rule:nonzero;stroke:none"
             d="M 0,0 C 2.416,1.155 15.085,3.927 16.489,-3.411 17.218,-12.42 3.145,-8.191 -6.112,-18.141 -5.384,-11.194 -8.742,-1.919 0,0 m 6.343,16.738 c 4.194,2.452 8.28,3.038 11.034,3.411 1.422,0.196 4.425,0.587 8.174,0.196 6.396,-0.658 7.747,-2.843 15.583,-5.135 5.916,-1.724 13.628,-0.764 13.628,-0.764 v 8.369 h -0.053 c -0.462,0.035 -3.749,0.23 -6.539,0 -5.952,-0.498 -10.164,2.38 -13.309,3.802 -7.853,3.571 -22.708,4.282 -33.653,-2.097 -14.552,-8.457 -16.72,-26.315 -16.915,-28.127 -1.706,-16.044 5.153,-25.48 8.742,-29.176 6.556,-6.752 10.643,-10.003 19.207,-14.552 23.614,-12.544 41.578,-8.582 42.484,-8.387 h 0.018 l 0.018,0.019 v 7.604 c 0,0 -0.018,0 -0.053,-0.017 -1.315,-0.143 -24.752,-2.737 -42.662,10.198 18.106,12.101 41.347,11.354 42.662,11.301 h 0.053 v 8.938 c 0,0 -28.198,1.546 -49.751,-14.819 -1.102,0.515 -4.087,3.269 -6.024,6.041 3.5,5.259 8.156,5.846 12.456,7.285 5.472,1.848 9.328,4.016 12.669,10.536 C 27.417,-2.168 20.007,6.361 12.651,8.458 5.757,10.43 0.622,7.783 -3.891,6.219 -3.749,8.227 2.434,14.446 6.343,16.738" /></g><g
           transform="translate(583.0333,406.63)"
           id="g42"><path
             id="path44"
             style="fill:none;stroke:#050606;stroke-width:0.5;stroke-linecap:butt;stroke-linejoin:miter;stroke-miterlimit:10;stroke-dasharray:none;stroke-opacity:1"
             d="M 0,0 C 2.416,1.155 15.085,3.927 16.489,-3.411 17.218,-12.42 3.145,-8.191 -6.112,-18.141 -5.384,-11.194 -8.742,-1.919 0,0 Z m 6.343,16.738 c 4.194,2.452 8.28,3.038 11.034,3.411 1.422,0.196 4.425,0.587 8.174,0.196 6.396,-0.658 7.747,-2.843 15.583,-5.135 5.916,-1.724 13.628,-0.764 13.628,-0.764 v 8.369 h -0.053 c -0.462,0.035 -3.749,0.23 -6.539,0 -5.952,-0.498 -10.164,2.38 -13.309,3.802 -7.853,3.571 -22.708,4.282 -33.653,-2.097 -14.552,-8.457 -16.72,-26.315 -16.915,-28.127 -1.706,-16.044 5.153,-25.48 8.742,-29.176 6.556,-6.752 10.643,-10.003 19.207,-14.552 23.614,-12.544 41.578,-8.582 42.484,-8.387 h 0.018 l 0.018,0.019 v 7.604 c 0,0 -0.018,0 -0.053,-0.017 -1.315,-0.143 -24.752,-2.737 -42.662,10.198 18.106,12.101 41.347,11.354 42.662,11.301 h 0.053 v 8.938 c 0,0 -28.198,1.546 -49.751,-14.819 -1.102,0.515 -4.087,3.269 -6.024,6.041 3.5,5.259 8.156,5.846 12.456,7.285 5.472,1.848 9.328,4.016 12.669,10.536 C 27.417,-2.168 20.007,6.361 12.651,8.458 5.757,10.43 0.622,7.783 -3.891,6.219 -3.749,8.227 2.434,14.446 6.343,16.738 Z" /></g><g
           transform="translate(522.6879,569.1239)"
           id="g46"><path
             id="path48"
             style="fill:#050606;fill-opacity:1;fill-rule:nonzero;stroke:none"
             d="m 0,0 c -2.906,-0.97 -5.034,0.158 -5.464,1.399 -0.469,1.355 0.587,3.804 1.289,4.104 25.547,10.903 42.677,-7.923 46.532,-12.196 2.401,-2.661 4.764,-3.929 1.321,-6.731 -3.602,-2.933 -5.019,1.393 -7.024,2.897 C 34.301,-8.763 20.969,6.995 0,0" /></g><g
           transform="translate(533.0509,623.7416)"
           id="g50"><path
             id="path52"
             style="fill:#050606;fill-opacity:1;fill-rule:nonzero;stroke:none"
             d="m 0,0 c -2.559,-1.048 -6.077,1.901 -8.742,5.828 -2.985,4.406 -17.52,18.124 -40.103,24.591 -21.269,6.077 -38.238,12.029 -59.329,15.779 0,0 -33.653,7.16 -53.607,9.31 -10.838,1.528 -16.88,0.817 -21.482,-3.802 -2.86,-2.843 -6.165,-9.88 0.569,-21.091 12.544,-20.914 26.244,-34.045 47.157,-40.743 6.645,-13.451 23.383,-31.699 42.129,-41.329 14.836,-11.532 41.524,-20.505 48.17,-22.815 6.201,-2.15 19.385,-3.038 19.261,-7.054 -0.107,-3.909 -8.742,-4.069 -12.189,-3.625 -3.447,0.427 -26.191,2.293 -61.674,26.316 -31.735,21.481 -29.549,25.941 -41.472,41.915 -34.47,12.917 -57.711,44.883 -53.731,63.877 0.391,1.883 1.688,7.747 6.592,12.153 7.552,6.841 18.71,5.722 24.325,5.082 10.217,-1.173 96.091,-11.407 144.492,-36.514 0,0 4.46,-3.109 9.79,-8.6 l 0.054,-0.053 c 1.936,-2.008 3.998,-4.335 5.988,-6.929 0.781,-1.013 1.457,-1.973 2.043,-2.879 0,-0.018 0.018,-0.036 0.018,-0.053 C 1.635,4.122 1.848,0.764 0,0" /></g><g
           transform="translate(608.2076,647.7997)"
           id="g54"><path
             id="path56"
             style="fill:#050606;fill-opacity:1;fill-rule:nonzero;stroke:none"
             d="m 0,0 c -11.167,-8.298 -62.34,-22.27 -71.994,-17.531 -3.08,5.034 -10.876,14.819 -12.813,16.827 0,0 0.659,1.077 -0.158,7.314 -1.688,12.9 -4.335,18.426 -7.765,25.462 -5.49,11.283 -3.642,11.443 -19.634,35.501 -15.583,23.436 -23.454,35.394 -27.381,46.393 -3.038,8.529 -7.231,23.401 -5.312,41.436 1.119,10.679 2.647,20.167 11.123,25.764 6.698,4.442 12.775,5.49 19.296,1.137 10.199,-6.805 12.296,-28.749 13.166,-43.621 1.653,-27.754 14.126,-48.312 29.673,-64.126 C -53.035,55.437 -27.644,38.202 -19.773,28.749 -10.587,20.807 -5.244,10.898 0,0" /></g><g
           transform="translate(529.2485,636.0372)"
           id="g58"><path
             id="path60"
             style="fill:#050606;fill-opacity:1;fill-rule:nonzero;stroke:none"
             d="M 0,0 -5.988,6.93 C -4.051,4.922 -1.99,2.594 0,0" /></g><g
           transform="translate(637.7953,660.3442)"
           id="g62"><path
             id="path64"
             style="fill:#050606;fill-opacity:1;fill-rule:nonzero;stroke:none"
             d="m 0,0 c 0,-2.92 -0.045,-3.364 0,-7.889 0,-0.013 -25.237,-4.655 -25.237,-4.655 0,0 -2.15,3.18 -2.843,4.317 -0.391,0.658 -0.868,2.202 -1.508,3.162 0,0 4.055,4.07 29.588,5.065" /></g><g
           transform="translate(514.7139,655.1439)"
           id="g66"><path
             id="path68"
             style="fill:#050606;fill-opacity:1;fill-rule:nonzero;stroke:none"
             d="m 0,0 c -5.775,2.695 -9.98,5.952 -18.905,8.294 -5.651,5.81 -26.955,30.082 -41.4,42.058 -19.83,16.417 -41.667,25.053 -89.997,75.159 -39.339,40.796 -55.827,77.132 -60.962,98.223 -2.239,9.186 -11.745,62.029 -0.658,79.388 4.389,4.709 10.714,6.574 16.631,4.264 2.257,-0.888 6.379,-2.754 9.115,-9.381 3.643,-8.831 3.625,-19.527 5.704,-35.874 1.297,-10.092 1.333,-23.259 6.858,-38.22 3.039,-8.226 6.237,-15.031 13.309,-25.657 9.204,-13.877 20.042,-30.259 39.161,-46.766 23.756,-20.54 43.07,-26.243 49.804,-28.802 3.785,-1.439 7.374,-2.701 10.146,-3.643 0.342,-4.852 13.338,-36.361 29.931,-56.375 C -3.554,24.106 0,0.036 0,0" /></g><g
           transform="translate(377.8309,846.7961)"
           id="g70"><path
             id="path72"
             style="fill:#050606;fill-opacity:1;fill-rule:nonzero;stroke:none"
             d="m 0,0 c 20.279,-27.63 55.715,-59.657 55.715,-59.657 l -8.964,4.108 c 0,0 -22.448,11.072 -51.392,47.371 -26.932,33.776 -30.994,58.405 -30.994,58.405 l -1.475,8.031 c 0,0 11.163,-22.905 37.11,-58.258" /></g><g
           transform="translate(316.4942,835.253)"
           id="g74"><path
             id="path76"
             style="fill:#050606;fill-opacity:1;fill-rule:nonzero;stroke:none"
             d="m 0,0 c -0.942,0.497 -28.167,14.946 -55.246,84.296 -16.4,42.022 -19.101,85.163 -42.839,117.111 -6.255,8.422 -20.949,22.104 -31.503,37.847 -10.839,16.151 -20.558,40.494 -16.543,71.286 4.194,31.93 13.007,46.588 23.383,46.855 10.608,0.284 18.266,-10.732 20.541,-21.766 2.221,-10.697 10.483,-44.99 12.935,-51.315 8.316,-21.553 17.111,-17.697 24.716,-4.566 4.033,6.947 15.209,27.256 26.794,47.903 18.639,33.209 30.26,30.988 37.634,26.155 9.861,-6.503 5.757,-22.921 -0.231,-36.407 -16.507,-37.136 -19.634,-39.837 -25.871,-58.956 -9.435,-28.891 -4.602,-55.632 -2.683,-73.099 1.706,-15.583 15.962,-51.202 15.962,-51.202 0,0 -3.706,-2.864 -5.18,-5.082 -17.954,-27.008 -2.318,-96.186 9.883,-116.679 z" /></g><g
           transform="translate(529.1774,536.0369)"
           id="g78"><path
             id="path80"
             style="fill:#050606;fill-opacity:1;fill-rule:nonzero;stroke:none"
             d="M 0,0 C -5.579,4.922 -6.219,11.745 -5.526,12.207 -4.904,12.615 -2.665,6.325 4.051,1.777 5.81,0.586 21.802,-4.869 21.802,-5.331 21.535,-6.326 7.925,-7.001 0,0 m 14.801,16.702 c 1.421,-0.373 1.901,-1.403 2.647,-2.665 1.582,-2.63 1.049,-3.074 -2.647,-2.648 -1.457,0.178 -1.972,1.351 -2.648,2.648 -1.474,2.843 -0.515,3.447 2.648,2.665 m 45.594,-68.923 c -3.128,15.049 -3.181,17.04 -10.466,33.458 C 39.179,5.526 34.417,10.838 32.445,12.935 28.82,16.773 24.2,21.659 16.471,25.089 c -16.951,7.534 -35.199,1.954 -39.534,-3.803 -0.356,-0.462 -1.706,-2.86 -1.049,-4.424 0.498,-1.226 2.914,-1.741 3.572,-1.653 2.86,0.409 7.018,3.803 7.356,-4.05 0,0 1.368,-6.06 4.815,-11.159 4.105,-6.042 9.026,-8.6 12.491,-9.631 10.075,-3.002 10.768,-1.19 19.385,-3.429 2.346,-0.604 8.032,0.462 14.375,-5.916 9.311,-9.382 12.598,-23.597 14.89,-34.809 0.711,-7.427 3.873,-13.344 5.775,-12.882 5.454,1.333 2.523,11.177 1.848,14.446" /></g><g
           transform="translate(494.5765,560.1426)"
           id="g82"><path
             id="path84"
             style="fill:#050606;fill-opacity:1;fill-rule:nonzero;stroke:none"
             d="m 0,0 c -11.74,-4.436 -40.171,13.426 -48.751,20.096 l -0.743,0.576 -0.836,0.431 c -16.977,8.721 -32.096,25.484 -37.702,36.831 l -1.891,3.827 -4.066,1.304 c -17.409,5.575 -29.458,16.102 -41.596,36.336 -0.354,0.59 -0.596,1.303 -0.863,1.831 1.652,1.744 8.067,3.147 12.318,3.939 7.701,1.436 16.36,0.835 25.134,-1.543 10.654,-2.887 14.029,-6.949 21.507,-10.497 15.209,2.788 34.376,-3.184 44.106,-6.337 C -14.877,80.795 -6.984,75.532 6.351,65.501 21.517,54.093 24.92,46.748 26.693,43.068 c 2.245,-4.661 10.033,-3.32 14.627,-4.16 4.656,-0.852 7.444,-2.004 9.327,-3.445 C 53.214,33.5 52.96,31.998 52.928,31.661 52.751,29.786 49.89,26.102 47.027,26.889 43.492,27.861 21.559,26.771 13.438,17.835 7.801,11.632 7.841,2.963 0,0" /></g><g
           transform="translate(637.7953,421.0759)"
           id="g86"><path
             id="path88"
             style="fill:#050606;fill-opacity:1;fill-rule:nonzero;stroke:none"
             d="m 0,0 v -32.125 c 0,0 -28.198,1.546 -49.751,-14.819 -1.102,0.515 -4.087,3.269 -6.024,6.041 3.5,5.26 8.156,5.846 12.456,7.285 5.472,1.848 9.328,4.016 12.669,10.536 3.304,6.468 -4.105,14.997 -11.461,17.094 -6.894,1.972 -12.029,-0.675 -16.542,-2.239 0.142,2.008 6.325,8.227 10.234,10.519 4.194,2.452 8.28,3.039 11.034,3.412 1.422,0.195 4.425,0.586 8.174,0.195 6.396,-0.657 7.747,-2.843 15.583,-5.135 C -7.712,-0.96 0,0 0,0" /></g><g
           transform="translate(637.7953,421.0759)"
           id="g90"><path
             id="path92"
             style="fill:none;stroke:#050606;stroke-width:0.5;stroke-linecap:butt;stroke-linejoin:miter;stroke-miterlimit:10;stroke-dasharray:none;stroke-opacity:1"
             d="m 0,0 v -32.125 c 0,0 -28.198,1.546 -49.751,-14.819 -1.102,0.515 -4.087,3.269 -6.024,6.041 3.5,5.26 8.156,5.846 12.456,7.285 5.472,1.848 9.328,4.016 12.669,10.536 3.304,6.468 -4.105,14.997 -11.461,17.094 -6.894,1.972 -12.029,-0.675 -16.542,-2.239 0.142,2.008 6.325,8.227 10.234,10.519 4.194,2.452 8.28,3.039 11.034,3.412 1.422,0.195 4.425,0.586 8.174,0.195 6.396,-0.657 7.747,-2.843 15.583,-5.135 C -7.712,-0.96 0,0 0,0 Z" /></g><g
           transform="translate(666.9462,93.5856)"
           id="g94"><path
             id="path96"
             style="fill:#050606;fill-opacity:1;fill-rule:nonzero;stroke:none"
             d="m 0,0 c 8.968,19.641 47.756,56.95 47.756,56.95 12.063,11.5 7.501,8.752 22.827,23.843 31.982,31.493 39.794,34.881 48.293,51.479 5.859,11.443 6.441,16.527 4.034,29.821 -1.917,10.595 -6.095,21.821 -14.393,43.95 -10.861,28.966 -8.399,23.983 -19.191,52.505 -9.808,25.921 -14.749,38.858 -14.829,39.025 -3.464,7.286 -5.321,11.992 -2.508,13.394 3.019,1.504 7.123,-7.682 8.169,-10.408 10.478,-27.294 19.713,-46.327 27.997,-69.857 6.04,-17.154 10.837,-34.759 17.595,-51.643 0.788,-1.968 4.086,-10.165 5.517,-21.425 0.981,-7.729 2.02,-16.794 -2.374,-25.758 -0.976,-1.991 -2.802,-4.579 -6.452,-9.755 -0.001,-10e-4 -4.932,-6.992 -9.694,-12.854 C 102.828,97.057 91.127,87.581 74.559,71.274 72.741,69.485 67.828,64.416 58.002,54.277 17.266,12.245 13.942,8.298 8.19,-3.052 7.614,-4.189 5.442,-10.658 1.746,-10.649 -0.92,-10.643 -1.657,-3.628 0,0" /></g><g
           transform="translate(651.071,141.2478)"
           id="g98"><path
             id="path100"
             style="fill:#050606;fill-opacity:1;fill-rule:nonzero;stroke:none"
             d="m 0,0 c 0.909,14.807 2.941,41.203 12.913,61.766 11.856,24.448 6.683,14.235 19.624,41.155 5.727,11.912 22.119,40.452 25.275,50.286 1.633,5.092 1.456,16.489 5.176,16.255 3.668,-0.23 3.287,-7.404 2.91,-10.658 C 65.32,153.808 64.5,150.372 63.638,147.389 61.654,140.514 46.749,115.043 40.66,101.841 32.457,84.053 30.909,79.382 22.139,62.236 19.084,56.264 14.193,41.568 11.709,26.679 10.42,18.952 10.733,4.09 10.467,-4.211 10.272,-10.323 11.952,-25.13 4.536,-25.936 -2.592,-26.71 -0.473,-7.707 0,0" /></g><g
           transform="translate(637.7924,333.8963)"
           id="g102"><path
             id="path104"
             style="fill:#050606;fill-opacity:1;fill-rule:nonzero;stroke:none"
             d="m 0,0 c 0,0 -1.481,-1.118 6.463,2.3 14.58,6.275 20.145,6.436 35.131,8.939 8.266,1.38 8.532,-0.138 12.731,0.052 3.903,0.178 4.43,2.012 4.315,3.797 -0.143,2.195 -2.578,3.638 -6.012,3.674 -7.126,0.077 -8.805,0.515 -14.362,0.178 C 33.486,18.65 21.537,15.887 12.618,13.328 4.103,10.885 0,8.587 0,8.587 Z" /></g><g
           transform="translate(713.1123,365.9501)"
           id="g106"><path
             id="path108"
             style="fill:#050606;fill-opacity:1;fill-rule:nonzero;stroke:none"
             d="m 0,0 c 2.094,6.16 4.024,11.66 10.361,23.194 11.692,21.279 23.764,37.452 24.335,43.726 -0.19,4.947 1.14,45.373 3.041,55.512 1.844,9.835 3.929,18.758 7.351,28.771 2.149,6.287 2.63,10.583 -0.507,11.153 -2.544,0.463 -3.802,-1.521 -6.463,-7.985 C 34.612,145.859 32.104,135.088 30.93,126.863 29.148,114.371 27.797,107.954 27.471,97.084 27.263,90.157 27.371,71.451 26.901,67.49 25.724,62.96 19.357,54.905 15.304,47.908 12.116,42.404 7.397,34.403 3.517,26.996 -0.513,19.303 -3.674,12.231 -5.228,8.175 -6.295,5.39 -12.262,-5.513 -9.03,-7.985 -5.133,-10.965 -2.697,-7.934 0,0" /></g><g
           transform="translate(698.6696,388.4886)"
           id="g110"><path
             id="path112"
             style="fill:#050606;fill-opacity:1;fill-rule:nonzero;stroke:none"
             d="m 0,0 c -9.257,9.95 -23.33,5.721 -22.601,14.73 1.403,7.338 14.072,4.567 16.489,3.411 C 2.63,16.223 -0.728,6.947 0,0 m -2.221,24.36 c -4.513,1.564 -9.648,4.212 -16.542,2.239 -7.356,-2.096 -14.766,-10.625 -11.461,-17.093 3.341,-6.521 7.196,-8.689 12.669,-10.537 4.3,-1.439 8.955,-2.025 12.456,-7.284 -1.937,-2.772 -4.922,-5.527 -6.024,-6.042 C -32.676,2.008 -60.874,0.462 -60.874,0.462 v -8.938 h 0.053 c 1.315,0.054 24.556,0.8 42.662,-11.3 -17.911,-12.935 -41.347,-10.341 -42.662,-10.199 -0.036,0.017 -0.053,0.017 -0.053,0.017 v -7.604 l 0.017,-0.018 h 0.018 c 0.906,-0.195 18.87,-4.158 42.484,8.387 8.565,4.549 12.651,7.8 19.208,14.552 3.589,3.696 10.448,13.131 8.742,29.175 -0.195,1.813 -2.363,19.67 -16.916,28.128 -10.945,6.378 -25.799,5.668 -33.653,2.096 -3.145,-1.421 -7.356,-4.299 -13.308,-3.802 -2.79,0.231 -6.077,0.036 -6.539,0 h -0.053 v -8.369 c 0,0 7.711,-0.959 13.628,0.764 7.836,2.292 9.186,4.478 15.583,5.135 3.749,0.391 6.752,0 8.173,-0.195 2.754,-0.373 6.841,-0.96 11.034,-3.412 3.909,-2.292 10.093,-8.511 10.235,-10.519" /></g><g
           transform="translate(698.6696,388.4886)"
           id="g114"><path
             id="path116"
             style="fill:none;stroke:#050606;stroke-width:0.5;stroke-linecap:butt;stroke-linejoin:miter;stroke-miterlimit:10;stroke-dasharray:none;stroke-opacity:1"
             d="m 0,0 c -9.257,9.95 -23.33,5.721 -22.601,14.73 1.403,7.338 14.072,4.567 16.489,3.411 C 2.63,16.223 -0.728,6.947 0,0 Z m -2.221,24.36 c -4.513,1.564 -9.648,4.212 -16.542,2.239 -7.356,-2.096 -14.766,-10.625 -11.461,-17.093 3.341,-6.521 7.196,-8.689 12.669,-10.537 4.3,-1.439 8.955,-2.025 12.456,-7.284 -1.937,-2.772 -4.922,-5.527 -6.024,-6.042 C -32.676,2.008 -60.874,0.462 -60.874,0.462 v -8.938 h 0.053 c 1.315,0.054 24.556,0.8 42.662,-11.3 -17.911,-12.935 -41.347,-10.341 -42.662,-10.199 -0.036,0.017 -0.053,0.017 -0.053,0.017 v -7.604 l 0.017,-0.018 h 0.018 c 0.906,-0.195 18.87,-4.158 42.484,8.387 8.565,4.549 12.651,7.8 19.208,14.552 3.589,3.696 10.448,13.131 8.742,29.175 -0.195,1.813 -2.363,19.67 -16.916,28.128 -10.945,6.378 -25.799,5.668 -33.653,2.096 -3.145,-1.421 -7.356,-4.299 -13.308,-3.802 -2.79,0.231 -6.077,0.036 -6.539,0 h -0.053 v -8.369 c 0,0 7.711,-0.959 13.628,0.764 7.836,2.292 9.186,4.478 15.583,5.135 3.749,0.391 6.752,0 8.173,-0.195 2.754,-0.373 6.841,-0.96 11.034,-3.412 3.909,-2.292 10.093,-8.511 10.235,-10.519 z" /></g><g
           transform="translate(752.9026,569.1239)"
           id="g118"><path
             id="path120"
             style="fill:#050606;fill-opacity:1;fill-rule:nonzero;stroke:none"
             d="M 0,0 C 2.906,-0.97 5.034,0.158 5.464,1.399 5.933,2.754 4.877,5.203 4.175,5.503 -21.372,16.406 -38.502,-2.42 -42.357,-6.693 c -2.401,-2.661 -4.764,-3.929 -1.321,-6.731 3.603,-2.933 5.019,1.393 7.025,2.897 C -34.301,-8.763 -20.969,6.995 0,0" /></g><g
           transform="translate(742.5397,623.7416)"
           id="g122"><path
             id="path124"
             style="fill:#050606;fill-opacity:1;fill-rule:nonzero;stroke:none"
             d="m 0,0 c 2.559,-1.048 6.077,1.901 8.742,5.828 2.985,4.406 17.52,18.124 40.103,24.591 21.269,6.077 38.238,12.029 59.329,15.779 0,0 33.653,7.16 53.607,9.31 10.838,1.528 16.88,0.817 21.482,-3.802 2.86,-2.843 6.165,-9.88 -0.569,-21.091 C 170.15,9.701 156.45,-3.43 135.537,-10.128 128.891,-23.579 112.154,-41.827 93.408,-51.457 78.572,-62.989 51.884,-71.962 45.238,-74.272 c -6.201,-2.15 -19.385,-3.038 -19.261,-7.054 0.107,-3.909 8.742,-4.069 12.189,-3.625 3.447,0.427 26.191,2.293 61.674,26.316 31.735,21.481 29.549,25.941 41.472,41.915 34.47,12.917 57.711,44.883 53.731,63.877 -0.391,1.883 -1.688,7.747 -6.592,12.153 -7.552,6.841 -18.71,5.722 -24.325,5.082 C 153.909,63.219 68.035,52.985 19.634,27.878 c 0,0 -4.46,-3.109 -9.79,-8.6 L 9.79,19.225 C 7.854,17.217 5.792,14.89 3.802,12.296 3.021,11.283 2.345,10.323 1.759,9.417 1.759,9.399 1.741,9.381 1.741,9.364 -1.635,4.122 -1.848,0.764 0,0" /></g><g
           transform="translate(667.3829,647.7997)"
           id="g126"><path
             id="path128"
             style="fill:#050606;fill-opacity:1;fill-rule:nonzero;stroke:none"
             d="m 0,0 c 11.167,-8.298 62.34,-22.27 71.994,-17.531 3.08,5.034 10.876,14.819 12.813,16.827 0,0 -0.659,1.077 0.158,7.314 1.688,12.9 4.335,18.426 7.765,25.462 5.49,11.283 3.642,11.443 19.634,35.501 15.582,23.436 23.454,35.394 27.381,46.393 3.038,8.529 7.231,23.401 5.312,41.436 -1.119,10.679 -2.647,20.167 -11.123,25.764 -6.698,4.442 -12.775,5.49 -19.296,1.137 -10.199,-6.805 -12.296,-28.749 -13.166,-43.621 C 99.819,110.928 87.346,90.37 71.798,74.556 53.035,55.437 27.644,38.202 19.773,28.749 10.587,20.807 5.244,10.898 0,0" /></g><g
           transform="translate(746.3421,636.0372)"
           id="g130"><path
             id="path132"
             style="fill:#050606;fill-opacity:1;fill-rule:nonzero;stroke:none"
             d="M 0,0 5.988,6.93 C 4.051,4.922 1.99,2.594 0,0" /></g><g
           transform="translate(637.7953,660.3442)"
           id="g134"><path
             id="path136"
             style="fill:#050606;fill-opacity:1;fill-rule:nonzero;stroke:none"
             d="m 0,0 c 0,-2.92 0.045,-3.364 0,-7.889 0,-0.013 25.237,-4.655 25.237,-4.655 0,0 2.15,3.18 2.843,4.317 0.391,0.658 0.868,2.202 1.508,3.162 0,0 -4.055,4.07 -29.588,5.065" /></g><g
           transform="translate(792.1393,717.812)"
           id="g138"><path
             id="path140"
             style="fill:#050606;fill-opacity:1;fill-rule:nonzero;stroke:none"
             d="m 0,0 c 16.593,20.014 29.589,51.523 29.931,56.375 2.772,0.942 6.361,2.204 10.146,3.643 6.734,2.558 26.048,8.262 49.804,28.802 19.119,16.507 29.958,32.889 39.161,46.766 7.072,10.625 10.271,17.431 13.309,25.657 5.526,14.961 5.561,28.127 6.858,38.22 2.079,16.347 2.062,27.043 5.704,35.874 2.736,6.627 6.859,8.493 9.115,9.381 5.917,2.31 12.243,0.445 16.631,-4.264 11.088,-17.36 1.582,-70.202 -0.657,-79.388 -5.135,-21.091 -21.624,-57.427 -60.963,-98.223 -48.33,-50.106 -70.167,-58.742 -89.996,-75.16 -14.446,-11.975 -35.75,-36.247 -41.4,-42.057 -8.926,-2.342 -13.131,-5.599 -18.906,-8.294 0,0.035 3.554,24.106 31.263,62.668" /></g><g
           transform="translate(897.7596,846.7961)"
           id="g142"><path
             id="path144"
             style="fill:#050606;fill-opacity:1;fill-rule:nonzero;stroke:none"
             d="m 0,0 c -20.279,-27.63 -55.715,-59.657 -55.715,-59.657 l 8.964,4.108 c 0,0 22.448,11.072 51.392,47.371 26.932,33.776 30.994,58.405 30.994,58.405 l 1.475,8.031 C 37.11,58.258 25.947,35.353 0,0" /></g><g
           transform="translate(959.0964,835.253)"
           id="g146"><path
             id="path148"
             style="fill:#050606;fill-opacity:1;fill-rule:nonzero;stroke:none"
             d="m 0,0 c 0.942,0.497 28.167,14.946 55.246,84.296 16.4,42.022 19.101,85.163 42.839,117.111 6.255,8.422 20.949,22.104 31.503,37.847 10.839,16.151 20.558,40.494 16.543,71.286 -4.194,31.93 -13.007,46.588 -23.384,46.855 -10.607,0.284 -18.265,-10.732 -20.54,-21.766 -2.221,-10.697 -10.483,-44.99 -12.935,-51.315 -8.316,-21.553 -17.111,-17.697 -24.716,-4.566 -4.033,6.947 -15.21,27.256 -26.794,47.903 -18.639,33.209 -30.26,30.988 -37.634,26.155 -9.861,-6.503 -5.757,-22.921 0.231,-36.407 16.507,-37.136 19.634,-39.837 25.871,-58.956 9.435,-28.891 4.602,-55.632 2.683,-73.099 -1.706,-15.583 -15.962,-51.202 -15.962,-51.202 0,0 3.706,-2.864 5.18,-5.082 C 36.085,102.052 20.449,32.874 8.248,12.381 Z" /></g><g
           transform="translate(724.6115,530.7064)"
           id="g150"><path
             id="path152"
             style="fill:#050606;fill-opacity:1;fill-rule:nonzero;stroke:none"
             d="m 0,0 c 0,0.462 15.992,5.917 17.751,7.107 6.716,4.549 8.955,10.839 9.577,10.43 C 28.021,17.076 27.381,10.252 21.802,5.331 13.877,-1.671 0.266,-0.995 0,0 M 9.648,19.367 C 8.973,18.07 8.458,16.898 7.001,16.72 3.305,16.293 2.772,16.738 4.353,19.367 c 0.746,1.262 1.226,2.292 2.648,2.666 3.162,0.782 4.122,0.177 2.647,-2.666 m -46.393,-80.703 c 1.901,-0.462 5.064,5.455 5.775,12.882 2.292,11.212 5.579,25.426 14.89,34.808 6.343,6.379 12.029,5.312 14.374,5.917 8.618,2.238 9.311,0.426 19.385,3.429 3.465,1.03 8.387,3.589 12.492,9.631 3.447,5.099 4.815,11.158 4.815,11.158 0.337,7.854 4.495,4.46 7.356,4.051 0.657,-0.089 3.074,0.427 3.571,1.653 0.658,1.563 -0.693,3.962 -1.048,4.424 -4.335,5.757 -22.584,11.336 -39.534,3.802 -7.73,-3.429 -12.349,-8.315 -15.974,-12.153 -1.973,-2.097 -6.735,-7.409 -17.484,-31.699 -7.285,-16.418 -7.339,-18.408 -10.466,-33.457 -0.675,-3.27 -3.607,-13.114 1.848,-14.446" /></g><g
           transform="translate(781.014,560.1426)"
           id="g154"><path
             id="path156"
             style="fill:#050606;fill-opacity:1;fill-rule:nonzero;stroke:none"
             d="m 0,0 c 11.74,-4.436 40.171,13.426 48.751,20.096 l 0.743,0.576 0.836,0.431 c 16.977,8.721 32.096,25.484 37.702,36.831 l 1.891,3.827 4.066,1.304 c 17.409,5.575 29.458,16.102 41.596,36.336 0.354,0.59 0.596,1.303 0.863,1.831 -1.652,1.744 -8.067,3.147 -12.318,3.939 -7.701,1.436 -16.36,0.835 -25.134,-1.543 C 88.342,100.741 84.967,96.679 77.489,93.131 62.28,95.919 43.113,89.947 33.383,86.794 14.877,80.795 6.984,75.532 -6.351,65.501 -21.517,54.093 -24.92,46.748 -26.693,43.068 c -2.245,-4.661 -10.033,-3.32 -14.627,-4.16 -4.656,-0.852 -7.444,-2.004 -9.327,-3.445 -2.567,-1.963 -2.313,-3.465 -2.281,-3.802 0.177,-1.875 3.038,-5.559 5.901,-4.772 3.535,0.972 25.468,-0.118 33.589,-9.054 C -7.801,11.632 -7.841,2.963 0,0" /></g><g
           transform="translate(637.7953,421.0759)"
           id="g158"><path
             id="path160"
             style="fill:#050606;fill-opacity:1;fill-rule:nonzero;stroke:none"
             d="m 0,0 v -32.125 c 0,0 28.198,1.546 49.751,-14.819 1.102,0.515 4.087,3.269 6.024,6.041 -3.5,5.26 -8.156,5.846 -12.456,7.285 -5.472,1.848 -9.328,4.016 -12.669,10.536 -3.305,6.468 4.105,14.997 11.461,17.094 6.894,1.972 12.029,-0.675 16.542,-2.239 C 58.511,-6.219 52.328,0 48.419,2.292 44.225,4.744 40.139,5.331 37.385,5.704 35.963,5.899 32.96,6.29 29.211,5.899 22.815,5.242 21.464,3.056 13.628,0.764 7.711,-0.96 0,0 0,0" /></g><g
           transform="translate(637.7953,421.0759)"
           id="g162"><path
             id="path164"
             style="fill:none;stroke:#050606;stroke-width:0.5;stroke-linecap:butt;stroke-linejoin:miter;stroke-miterlimit:10;stroke-dasharray:none;stroke-opacity:1"
             d="m 0,0 v -32.125 c 0,0 28.198,1.546 49.751,-14.819 1.102,0.515 4.087,3.269 6.024,6.041 -3.5,5.26 -8.156,5.846 -12.456,7.285 -5.472,1.848 -9.328,4.016 -12.669,10.536 -3.305,6.468 4.105,14.997 11.461,17.094 6.894,1.972 12.029,-0.675 16.542,-2.239 C 58.511,-6.219 52.328,0 48.419,2.292 44.225,4.744 40.139,5.331 37.385,5.704 35.963,5.899 32.96,6.29 29.211,5.899 22.815,5.242 21.464,3.056 13.628,0.764 7.711,-0.96 0,0 0,0 Z" /></g></g></g><text
       id="text168"
       style="font-variant:normal;font-weight:normal;font-stretch:normal;font-size:500px;font-family:'Baskerville Old Face';-inkscape-font-specification:BaskOldFace;writing-mode:lr-tb;fill:#050606;fill-opacity:1;fill-rule:nonzero;stroke:none"
       transform="matrix(1,0,0,-1,1389.2104,586.7969)"><tspan
         id="tspan166"
         y="0"
         x="0 307 614 921 1043 1265.6 1391.1 1653.1 1909.1 2169.6001 2299.1001 2421.1001 2629.1001">www.x-hunt.ch</tspan></text>
<text
       id="text172"
       style="font-variant:normal;font-weight:normal;font-stretch:normal;font-size:200px;font-family:'Baskerville Old Face';-inkscape-font-specification:BaskOldFace;writing-mode:lr-tb;fill:#050606;fill-opacity:1;fill-rule:nonzero;stroke:none"
       transform="matrix(1,0,0,-1,1981.5688,346.7969)"><tspan
         id="tspan170"
         y="0"
         x="0 67.199997 152.60001 235 339.79999 390 440 574.59998 624.59998 786.79999 889.20001 941 1045.8 1149.4 1253 1322.6 1393.4 1498.2 1601.8">Jagd- &amp; Outdoorshop</tspan></text>
<g
       id="g174"><g
         clip-path="url(#clipPath180)"
         id="g176"><g
           transform="translate(5002.3452,93.5856)"
           id="g182"><path
             id="path184"
             style="fill:#050606;fill-opacity:1;fill-rule:nonzero;stroke:none"
             d="m 0,0 c -8.968,19.641 -47.756,56.95 -47.756,56.95 -12.063,11.5 -7.501,8.752 -22.827,23.843 -31.982,31.493 -39.794,34.881 -48.293,51.479 -5.859,11.443 -6.441,16.527 -4.035,29.821 1.918,10.595 6.096,21.821 14.394,43.95 10.861,28.966 8.399,23.983 19.191,52.505 9.808,25.921 14.749,38.858 14.828,39.025 3.465,7.286 5.322,11.992 2.509,13.394 -3.019,1.504 -7.123,-7.682 -8.169,-10.408 -10.478,-27.294 -19.713,-46.327 -27.997,-69.857 -6.04,-17.154 -10.838,-34.759 -17.595,-51.643 -0.788,-1.968 -4.086,-10.165 -5.517,-21.425 -0.982,-7.729 -2.02,-16.794 2.374,-25.758 0.976,-1.991 2.802,-4.579 6.452,-9.755 0.001,-10e-4 4.932,-6.992 9.694,-12.854 9.918,-12.21 21.62,-21.686 38.188,-37.993 1.818,-1.789 6.731,-6.858 16.557,-16.997 40.736,-42.032 44.06,-45.979 49.812,-57.329 0.576,-1.137 2.749,-7.606 6.443,-7.597 C 0.92,-10.643 1.657,-3.628 0,0" /></g><g
           transform="translate(5018.2202,141.2478)"
           id="g186"><path
             id="path188"
             style="fill:#050606;fill-opacity:1;fill-rule:nonzero;stroke:none"
             d="m 0,0 c -0.908,14.807 -2.941,41.203 -12.913,61.766 -11.856,24.448 -6.683,14.235 -19.624,41.155 -5.727,11.912 -22.119,40.452 -25.275,50.286 -1.633,5.092 -1.456,16.489 -5.176,16.255 -3.668,-0.23 -3.287,-7.404 -2.91,-10.658 0.578,-4.996 1.398,-8.432 2.26,-11.415 1.984,-6.875 16.889,-32.346 22.978,-45.548 8.203,-17.788 9.751,-22.459 18.521,-39.605 3.055,-5.972 7.946,-20.668 10.43,-35.557 1.289,-7.727 0.977,-22.589 1.242,-30.89 0.196,-6.112 -1.485,-20.919 5.931,-21.725 C 2.592,-26.71 0.473,-7.707 0,0" /></g><g
           transform="translate(5031.499,333.8963)"
           id="g190"><path
             id="path192"
             style="fill:#050606;fill-opacity:1;fill-rule:nonzero;stroke:none"
             d="m 0,0 c 0,0 1.48,-1.118 -6.463,2.3 -14.58,6.275 -20.144,6.436 -35.131,8.939 -8.266,1.38 -8.532,-0.138 -12.731,0.052 -3.903,0.178 -4.43,2.012 -4.315,3.797 0.142,2.195 2.578,3.638 6.012,3.674 7.126,0.077 8.805,0.515 14.362,0.178 4.78,-0.29 16.729,-3.053 25.648,-5.612 C -4.103,10.885 0,8.587 0,8.587 Z" /></g><g
           transform="translate(4956.1792,365.9501)"
           id="g194"><path
             id="path196"
             style="fill:#050606;fill-opacity:1;fill-rule:nonzero;stroke:none"
             d="m 0,0 c -2.094,6.16 -4.024,11.66 -10.361,23.194 -11.692,21.279 -23.764,37.452 -24.335,43.726 0.19,4.947 -1.14,45.373 -3.041,55.512 -1.845,9.835 -3.93,18.758 -7.351,28.771 -2.149,6.287 -2.63,10.583 0.506,11.153 2.545,0.463 3.803,-1.521 6.464,-7.985 3.505,-8.512 6.014,-19.283 7.187,-27.508 1.783,-12.492 3.133,-18.909 3.459,-29.779 0.208,-6.927 0.1,-25.633 0.571,-29.594 1.177,-4.53 7.544,-12.585 11.597,-19.582 3.188,-5.504 7.907,-13.505 11.787,-20.912 C 0.513,19.303 3.674,12.231 5.228,8.175 6.295,5.39 12.262,-5.513 9.03,-7.985 5.133,-10.965 2.696,-7.934 0,0" /></g><g
           transform="translate(4976.7339,406.63)"
           id="g198"><path
             id="path200"
             style="fill:#050606;fill-opacity:1;fill-rule:nonzero;stroke:none"
             d="M 0,0 C 2.417,1.155 15.085,3.927 16.489,-3.411 17.218,-12.42 3.145,-8.191 -6.112,-18.141 -5.384,-11.194 -8.742,-1.919 0,0 m 6.343,16.738 c 4.194,2.452 8.281,3.038 11.034,3.411 1.422,0.196 4.425,0.587 8.174,0.196 6.397,-0.658 7.747,-2.843 15.583,-5.135 5.917,-1.724 13.628,-0.764 13.628,-0.764 v 8.369 h -0.053 c -0.462,0.035 -3.749,0.23 -6.539,0 -5.952,-0.498 -10.163,2.38 -13.308,3.802 -7.854,3.571 -22.708,4.282 -33.654,-2.097 -14.552,-8.457 -16.72,-26.315 -16.915,-28.127 -1.706,-16.044 5.153,-25.48 8.742,-29.176 6.556,-6.752 10.643,-10.003 19.208,-14.552 23.613,-12.544 41.577,-8.582 42.484,-8.387 h 0.018 l 0.017,0.019 v 7.604 c 0,0 -0.017,0 -0.053,-0.017 -1.315,-0.143 -24.751,-2.737 -42.662,10.198 18.106,12.101 41.347,11.354 42.662,11.301 h 0.053 v 8.938 c 0,0 -28.198,1.546 -49.751,-14.819 -1.102,0.515 -4.087,3.269 -6.024,6.041 3.501,5.259 8.156,5.846 12.456,7.285 5.473,1.848 9.328,4.016 12.669,10.536 C 27.417,-2.168 20.007,6.361 12.651,8.458 5.757,10.43 0.622,7.783 -3.891,6.219 -3.749,8.227 2.435,14.446 6.343,16.738" /></g><g
           transform="translate(4976.7339,406.63)"
           id="g202"><path
             id="path204"
             style="fill:none;stroke:#050606;stroke-width:0.5;stroke-linecap:butt;stroke-linejoin:miter;stroke-miterlimit:10;stroke-dasharray:none;stroke-opacity:1"
             d="M 0,0 C 2.417,1.155 15.085,3.927 16.489,-3.411 17.218,-12.42 3.145,-8.191 -6.112,-18.141 -5.384,-11.194 -8.742,-1.919 0,0 Z m 6.343,16.738 c 4.194,2.452 8.281,3.038 11.034,3.411 1.422,0.196 4.425,0.587 8.174,0.196 6.397,-0.658 7.747,-2.843 15.583,-5.135 5.917,-1.724 13.628,-0.764 13.628,-0.764 v 8.369 h -0.053 c -0.462,0.035 -3.749,0.23 -6.539,0 -5.952,-0.498 -10.163,2.38 -13.308,3.802 -7.854,3.571 -22.708,4.282 -33.654,-2.097 -14.552,-8.457 -16.72,-26.315 -16.915,-28.127 -1.706,-16.044 5.153,-25.48 8.742,-29.176 6.556,-6.752 10.643,-10.003 19.208,-14.552 23.613,-12.544 41.577,-8.582 42.484,-8.387 h 0.018 l 0.017,0.019 v 7.604 c 0,0 -0.017,0 -0.053,-0.017 -1.315,-0.143 -24.751,-2.737 -42.662,10.198 18.106,12.101 41.347,11.354 42.662,11.301 h 0.053 v 8.938 c 0,0 -28.198,1.546 -49.751,-14.819 -1.102,0.515 -4.087,3.269 -6.024,6.041 3.501,5.259 8.156,5.846 12.456,7.285 5.473,1.848 9.328,4.016 12.669,10.536 C 27.417,-2.168 20.007,6.361 12.651,8.458 5.757,10.43 0.622,7.783 -3.891,6.219 -3.749,8.227 2.435,14.446 6.343,16.738 Z" /></g><g
           transform="translate(4916.3887,569.1239)"
           id="g206"><path
             id="path208"
             style="fill:#050606;fill-opacity:1;fill-rule:nonzero;stroke:none"
             d="m 0,0 c -2.906,-0.97 -5.034,0.158 -5.463,1.399 -0.47,1.355 0.587,3.804 1.288,4.104 25.547,10.903 42.677,-7.923 46.532,-12.196 2.401,-2.661 4.764,-3.929 1.321,-6.731 -3.602,-2.933 -5.019,1.393 -7.025,2.897 C 34.301,-8.763 20.969,6.995 0,0" /></g><g
           transform="translate(4926.7515,623.7416)"
           id="g210"><path
             id="path212"
             style="fill:#050606;fill-opacity:1;fill-rule:nonzero;stroke:none"
             d="m 0,0 c -2.559,-1.048 -6.077,1.901 -8.742,5.828 -2.985,4.406 -17.519,18.124 -40.103,24.591 -21.269,6.077 -38.238,12.029 -59.328,15.779 0,0 -33.654,7.16 -53.607,9.31 -10.839,1.528 -16.881,0.817 -21.483,-3.802 -2.86,-2.843 -6.165,-9.88 0.569,-21.091 12.545,-20.914 26.244,-34.045 47.157,-40.743 6.646,-13.451 23.384,-31.699 42.129,-41.329 14.837,-11.532 41.525,-20.505 48.17,-22.815 6.201,-2.15 19.385,-3.038 19.261,-7.054 -0.106,-3.909 -8.742,-4.069 -12.189,-3.625 -3.447,0.427 -26.191,2.293 -61.674,26.316 -31.734,21.481 -29.549,25.941 -41.472,41.915 -34.47,12.917 -57.711,44.883 -53.731,63.877 0.391,1.883 1.688,7.747 6.592,12.153 7.552,6.841 18.71,5.722 24.325,5.082 10.217,-1.173 96.091,-11.407 144.492,-36.514 0,0 4.46,-3.109 9.791,-8.6 l 0.053,-0.053 c 1.936,-2.008 3.998,-4.335 5.988,-6.929 0.781,-1.013 1.457,-1.973 2.043,-2.879 0,-0.018 0.018,-0.036 0.018,-0.053 C 1.635,4.122 1.848,0.764 0,0" /></g><g
           transform="translate(5001.9082,647.7997)"
           id="g214"><path
             id="path216"
             style="fill:#050606;fill-opacity:1;fill-rule:nonzero;stroke:none"
             d="m 0,0 c -11.167,-8.298 -62.34,-22.27 -71.994,-17.531 -3.08,5.034 -10.876,14.819 -12.813,16.827 0,0 0.66,1.077 -0.158,7.314 -1.688,12.9 -4.335,18.426 -7.764,25.462 -5.491,11.283 -3.643,11.443 -19.634,35.501 -15.583,23.436 -23.455,35.394 -27.382,46.393 -3.038,8.529 -7.231,23.401 -5.312,41.436 1.119,10.679 2.647,20.167 11.123,25.764 6.699,4.442 12.775,5.49 19.296,1.137 10.2,-6.805 12.296,-28.749 13.167,-43.621 1.652,-27.754 14.125,-48.312 29.673,-64.126 C -53.035,55.437 -27.644,38.202 -19.772,28.749 -10.586,20.807 -5.244,10.898 0,0" /></g><g
           transform="translate(4922.9492,636.0372)"
           id="g218"><path
             id="path220"
             style="fill:#050606;fill-opacity:1;fill-rule:nonzero;stroke:none"
             d="M 0,0 -5.988,6.93 C -4.051,4.922 -1.99,2.594 0,0" /></g><g
           transform="translate(5031.4961,660.3442)"
           id="g222"><path
             id="path224"
             style="fill:#050606;fill-opacity:1;fill-rule:nonzero;stroke:none"
             d="m 0,0 c 0,-2.92 -0.045,-3.364 0,-7.889 0,-0.013 -25.237,-4.655 -25.237,-4.655 0,0 -2.15,3.18 -2.843,4.317 -0.391,0.658 -0.868,2.202 -1.508,3.162 0,0 4.055,4.07 29.588,5.065" /></g><g
           transform="translate(4908.4146,655.1439)"
           id="g226"><path
             id="path228"
             style="fill:#050606;fill-opacity:1;fill-rule:nonzero;stroke:none"
             d="m 0,0 c -5.774,2.695 -9.979,5.952 -18.905,8.294 -5.651,5.81 -26.955,30.082 -41.4,42.058 -19.83,16.417 -41.667,25.053 -89.996,75.159 -39.339,40.796 -55.828,77.132 -60.963,98.223 -2.239,9.186 -11.745,62.029 -0.658,79.388 4.389,4.709 10.714,6.574 16.631,4.264 2.257,-0.888 6.379,-2.754 9.115,-9.381 3.643,-8.831 3.625,-19.527 5.704,-35.874 1.297,-10.092 1.333,-23.259 6.859,-38.22 3.038,-8.226 6.236,-15.031 13.308,-25.657 9.204,-13.877 20.043,-30.259 39.161,-46.766 23.756,-20.54 43.07,-26.243 49.805,-28.802 3.784,-1.439 7.374,-2.701 10.145,-3.643 0.342,-4.852 13.338,-36.361 29.931,-56.375 C -3.554,24.106 0,0.036 0,0" /></g><g
           transform="translate(4771.5317,846.7961)"
           id="g230"><path
             id="path232"
             style="fill:#050606;fill-opacity:1;fill-rule:nonzero;stroke:none"
             d="m 0,0 c 20.279,-27.63 55.715,-59.657 55.715,-59.657 l -8.964,4.108 c 0,0 -22.448,11.072 -51.392,47.371 -26.932,33.776 -30.994,58.405 -30.994,58.405 l -1.475,8.031 c 0,0 11.163,-22.905 37.11,-58.258" /></g><g
           transform="translate(4710.1948,835.253)"
           id="g234"><path
             id="path236"
             style="fill:#050606;fill-opacity:1;fill-rule:nonzero;stroke:none"
             d="m 0,0 c -0.942,0.497 -28.167,14.946 -55.246,84.296 -16.4,42.022 -19.101,85.163 -42.839,117.111 -6.254,8.422 -20.949,22.104 -31.503,37.847 -10.839,16.151 -20.558,40.494 -16.542,71.286 4.193,31.93 13.006,46.588 23.382,46.855 10.608,0.284 18.267,-10.732 20.541,-21.766 2.221,-10.697 10.483,-44.99 12.935,-51.315 8.316,-21.553 17.111,-17.697 24.716,-4.566 4.034,6.947 15.21,27.256 26.795,47.903 18.638,33.209 30.259,30.988 37.633,26.155 9.861,-6.503 5.757,-22.921 -0.231,-36.407 -16.507,-37.136 -19.634,-39.837 -25.871,-58.956 -9.435,-28.891 -4.602,-55.632 -2.683,-73.099 1.706,-15.583 15.962,-51.202 15.962,-51.202 0,0 -3.705,-2.864 -5.18,-5.082 -17.954,-27.008 -2.318,-96.186 9.883,-116.679 z" /></g><g
           transform="translate(4922.8784,536.0369)"
           id="g238"><path
             id="path240"
             style="fill:#050606;fill-opacity:1;fill-rule:nonzero;stroke:none"
             d="M 0,0 C -5.58,4.922 -6.219,11.745 -5.526,12.207 -4.904,12.615 -2.666,6.325 4.051,1.777 5.81,0.586 21.801,-4.869 21.801,-5.331 21.535,-6.326 7.924,-7.001 0,0 m 14.801,16.702 c 1.421,-0.373 1.901,-1.403 2.647,-2.665 1.582,-2.63 1.049,-3.074 -2.647,-2.648 -1.457,0.178 -1.972,1.351 -2.648,2.648 -1.474,2.843 -0.515,3.447 2.648,2.665 m 45.594,-68.923 c -3.128,15.049 -3.181,17.04 -10.466,33.458 C 39.179,5.526 34.417,10.838 32.445,12.935 28.82,16.773 24.2,21.659 16.471,25.089 c -16.951,7.534 -35.199,1.954 -39.534,-3.803 -0.356,-0.462 -1.707,-2.86 -1.049,-4.424 0.498,-1.226 2.914,-1.741 3.571,-1.653 2.861,0.409 7.019,3.803 7.356,-4.05 0,0 1.369,-6.06 4.816,-11.159 4.104,-6.042 9.026,-8.6 12.491,-9.631 10.075,-3.002 10.768,-1.19 19.385,-3.429 2.346,-0.604 8.032,0.462 14.375,-5.916 9.31,-9.382 12.597,-23.597 14.89,-34.809 0.71,-7.427 3.873,-13.344 5.774,-12.882 5.455,1.333 2.523,11.177 1.849,14.446" /></g><g
           transform="translate(4888.2773,560.1426)"
           id="g242"><path
             id="path244"
             style="fill:#050606;fill-opacity:1;fill-rule:nonzero;stroke:none"
             d="m 0,0 c -11.74,-4.436 -40.171,13.426 -48.751,20.096 l -0.743,0.576 -0.837,0.431 c -16.977,8.721 -32.095,25.484 -37.701,36.831 l -1.891,3.827 -4.066,1.304 c -17.409,5.575 -29.458,16.102 -41.595,36.336 -0.355,0.59 -0.597,1.303 -0.864,1.831 1.652,1.744 8.067,3.147 12.318,3.939 7.701,1.436 16.359,0.835 25.134,-1.543 10.654,-2.887 14.029,-6.949 21.507,-10.497 15.209,2.788 34.376,-3.184 44.106,-6.337 C -14.877,80.795 -6.984,75.532 6.351,65.501 21.517,54.093 24.92,46.748 26.692,43.068 c 2.246,-4.661 10.035,-3.32 14.628,-4.16 4.656,-0.852 7.444,-2.004 9.327,-3.445 C 53.214,33.5 52.96,31.998 52.928,31.661 52.75,29.786 49.89,26.102 47.027,26.889 43.493,27.861 21.559,26.771 13.438,17.835 7.801,11.632 7.841,2.963 0,0" /></g><g
           transform="translate(5031.4961,421.0759)"
           id="g246"><path
             id="path248"
             style="fill:#050606;fill-opacity:1;fill-rule:nonzero;stroke:none"
             d="m 0,0 v -32.125 c 0,0 -28.198,1.546 -49.751,-14.819 -1.102,0.515 -4.087,3.269 -6.024,6.041 3.501,5.26 8.156,5.846 12.456,7.285 5.472,1.848 9.328,4.016 12.669,10.536 3.304,6.468 -4.105,14.997 -11.461,17.094 -6.894,1.972 -12.029,-0.675 -16.542,-2.239 0.142,2.008 6.325,8.227 10.234,10.519 4.193,2.452 8.28,3.039 11.034,3.412 1.422,0.195 4.425,0.586 8.174,0.195 6.397,-0.657 7.747,-2.843 15.583,-5.135 C -7.711,-0.96 0,0 0,0" /></g><g
           transform="translate(5031.4961,421.0759)"
           id="g250"><path
             id="path252"
             style="fill:none;stroke:#050606;stroke-width:0.5;stroke-linecap:butt;stroke-linejoin:miter;stroke-miterlimit:10;stroke-dasharray:none;stroke-opacity:1"
             d="m 0,0 v -32.125 c 0,0 -28.198,1.546 -49.751,-14.819 -1.102,0.515 -4.087,3.269 -6.024,6.041 3.501,5.26 8.156,5.846 12.456,7.285 5.472,1.848 9.328,4.016 12.669,10.536 3.304,6.468 -4.105,14.997 -11.461,17.094 -6.894,1.972 -12.029,-0.675 -16.542,-2.239 0.142,2.008 6.325,8.227 10.234,10.519 4.193,2.452 8.28,3.039 11.034,3.412 1.422,0.195 4.425,0.586 8.174,0.195 6.397,-0.657 7.747,-2.843 15.583,-5.135 C -7.711,-0.96 0,0 0,0 Z" /></g><g
           transform="translate(5060.647,93.5856)"
           id="g254"><path
             id="path256"
             style="fill:#050606;fill-opacity:1;fill-rule:nonzero;stroke:none"
             d="m 0,0 c 8.968,19.641 47.756,56.95 47.756,56.95 12.063,11.5 7.501,8.752 22.827,23.843 31.982,31.493 39.794,34.881 48.293,51.479 5.859,11.443 6.441,16.527 4.035,29.821 -1.918,10.595 -6.096,21.821 -14.394,43.95 -10.861,28.966 -8.399,23.983 -19.191,52.505 -9.808,25.921 -14.749,38.858 -14.828,39.025 -3.465,7.286 -5.322,11.992 -2.509,13.394 3.018,1.504 7.123,-7.682 8.169,-10.408 10.478,-27.294 19.713,-46.327 27.997,-69.857 6.04,-17.154 10.838,-34.759 17.595,-51.643 0.788,-1.968 4.086,-10.165 5.517,-21.425 0.982,-7.729 2.02,-16.794 -2.374,-25.758 -0.976,-1.991 -2.802,-4.579 -6.452,-9.755 -0.001,-10e-4 -4.932,-6.992 -9.694,-12.854 C 102.828,97.057 91.126,87.581 74.559,71.274 72.741,69.485 67.828,64.416 58.002,54.277 17.266,12.245 13.942,8.298 8.19,-3.052 7.614,-4.189 5.441,-10.658 1.747,-10.649 -0.92,-10.643 -1.657,-3.628 0,0" /></g><g
           transform="translate(5044.772,141.2478)"
           id="g258"><path
             id="path260"
             style="fill:#050606;fill-opacity:1;fill-rule:nonzero;stroke:none"
             d="m 0,0 c 0.908,14.807 2.941,41.203 12.913,61.766 11.856,24.448 6.683,14.235 19.624,41.155 5.727,11.912 22.119,40.452 25.275,50.286 1.633,5.092 1.456,16.489 5.176,16.255 3.668,-0.23 3.287,-7.404 2.91,-10.658 -0.579,-4.996 -1.398,-8.432 -2.26,-11.415 C 61.654,140.514 46.749,115.043 40.66,101.841 32.457,84.053 30.909,79.382 22.139,62.236 19.084,56.264 14.193,41.568 11.709,26.679 10.42,18.952 10.732,4.09 10.467,-4.211 10.271,-10.323 11.952,-25.13 4.536,-25.936 -2.592,-26.71 -0.473,-7.707 0,0" /></g><g
           transform="translate(5031.4932,333.8963)"
           id="g262"><path
             id="path264"
             style="fill:#050606;fill-opacity:1;fill-rule:nonzero;stroke:none"
             d="m 0,0 c 0,0 -1.48,-1.118 6.463,2.3 14.58,6.275 20.144,6.436 35.131,8.939 8.266,1.38 8.532,-0.138 12.731,0.052 3.903,0.178 4.43,2.012 4.315,3.797 -0.143,2.195 -2.578,3.638 -6.012,3.674 -7.127,0.077 -8.805,0.515 -14.362,0.178 C 33.486,18.65 21.537,15.887 12.618,13.328 4.103,10.885 0,8.587 0,8.587 Z" /></g><g
           transform="translate(5106.813,365.9501)"
           id="g266"><path
             id="path268"
             style="fill:#050606;fill-opacity:1;fill-rule:nonzero;stroke:none"
             d="m 0,0 c 2.094,6.16 4.024,11.66 10.361,23.194 11.692,21.279 23.764,37.452 24.335,43.726 -0.19,4.947 1.14,45.373 3.041,55.512 1.845,9.835 3.93,18.758 7.351,28.771 2.149,6.287 2.63,10.583 -0.506,11.153 -2.545,0.463 -3.803,-1.521 -6.464,-7.985 -3.505,-8.512 -6.014,-19.283 -7.187,-27.508 C 29.148,114.371 27.797,107.954 27.471,97.084 27.264,90.157 27.372,71.451 26.901,67.49 25.724,62.96 19.357,54.905 15.304,47.908 12.116,42.404 7.397,34.403 3.517,26.996 -0.513,19.303 -3.674,12.231 -5.228,8.175 -6.295,5.39 -12.262,-5.513 -9.03,-7.985 -5.133,-10.965 -2.697,-7.934 0,0" /></g><g
           transform="translate(5092.3706,388.4886)"
           id="g270"><path
             id="path272"
             style="fill:#050606;fill-opacity:1;fill-rule:nonzero;stroke:none"
             d="m 0,0 c -9.257,9.95 -23.33,5.721 -22.602,14.73 1.404,7.338 14.073,4.567 16.49,3.411 C 2.629,16.223 -0.729,6.947 0,0 m -2.221,24.36 c -4.513,1.564 -9.649,4.212 -16.543,2.239 -7.356,-2.096 -14.765,-10.625 -11.46,-17.093 3.34,-6.521 7.196,-8.689 12.669,-10.537 4.3,-1.439 8.955,-2.025 12.455,-7.284 -1.937,-2.772 -4.921,-5.527 -6.023,-6.042 C -32.676,2.008 -60.875,0.462 -60.875,0.462 v -8.938 h 0.054 c 1.315,0.054 24.556,0.8 42.662,-11.3 -17.911,-12.935 -41.347,-10.341 -42.662,-10.199 -0.036,0.017 -0.054,0.017 -0.054,0.017 v -7.604 l 0.018,-0.018 h 0.018 c 0.906,-0.195 18.87,-4.158 42.484,8.387 8.564,4.549 12.651,7.8 19.208,14.552 3.589,3.696 10.447,13.131 8.742,29.175 -0.196,1.813 -2.364,19.67 -16.916,28.128 -10.945,6.378 -25.8,5.668 -33.653,2.096 -3.145,-1.421 -7.356,-4.299 -13.308,-3.802 -2.79,0.231 -6.077,0.036 -6.539,0 h -0.054 v -8.369 c 0,0 7.712,-0.959 13.629,0.764 7.836,2.292 9.186,4.478 15.582,5.135 3.75,0.391 6.752,0 8.174,-0.195 2.754,-0.373 6.841,-0.96 11.034,-3.412 3.909,-2.292 10.093,-8.511 10.235,-10.519" /></g><g
           transform="translate(5092.3706,388.4886)"
           id="g274"><path
             id="path276"
             style="fill:none;stroke:#050606;stroke-width:0.5;stroke-linecap:butt;stroke-linejoin:miter;stroke-miterlimit:10;stroke-dasharray:none;stroke-opacity:1"
             d="m 0,0 c -9.257,9.95 -23.33,5.721 -22.602,14.73 1.404,7.338 14.073,4.567 16.49,3.411 C 2.629,16.223 -0.729,6.947 0,0 Z m -2.221,24.36 c -4.513,1.564 -9.649,4.212 -16.543,2.239 -7.356,-2.096 -14.765,-10.625 -11.46,-17.093 3.34,-6.521 7.196,-8.689 12.669,-10.537 4.3,-1.439 8.955,-2.025 12.455,-7.284 -1.937,-2.772 -4.921,-5.527 -6.023,-6.042 C -32.676,2.008 -60.875,0.462 -60.875,0.462 v -8.938 h 0.054 c 1.315,0.054 24.556,0.8 42.662,-11.3 -17.911,-12.935 -41.347,-10.341 -42.662,-10.199 -0.036,0.017 -0.054,0.017 -0.054,0.017 v -7.604 l 0.018,-0.018 h 0.018 c 0.906,-0.195 18.87,-4.158 42.484,8.387 8.564,4.549 12.651,7.8 19.208,14.552 3.589,3.696 10.447,13.131 8.742,29.175 -0.196,1.813 -2.364,19.67 -16.916,28.128 -10.945,6.378 -25.8,5.668 -33.653,2.096 -3.145,-1.421 -7.356,-4.299 -13.308,-3.802 -2.79,0.231 -6.077,0.036 -6.539,0 h -0.054 v -8.369 c 0,0 7.712,-0.959 13.629,0.764 7.836,2.292 9.186,4.478 15.582,5.135 3.75,0.391 6.752,0 8.174,-0.195 2.754,-0.373 6.841,-0.96 11.034,-3.412 3.909,-2.292 10.093,-8.511 10.235,-10.519 z" /></g><g
           transform="translate(5146.6035,569.1239)"
           id="g278"><path
             id="path280"
             style="fill:#050606;fill-opacity:1;fill-rule:nonzero;stroke:none"
             d="M 0,0 C 2.906,-0.97 5.034,0.158 5.463,1.399 5.933,2.754 4.876,5.203 4.175,5.503 -21.372,16.406 -38.502,-2.42 -42.357,-6.693 c -2.401,-2.661 -4.764,-3.929 -1.321,-6.731 3.602,-2.933 5.019,1.393 7.025,2.897 C -34.301,-8.763 -20.969,6.995 0,0" /></g><g
           transform="translate(5136.2402,623.7416)"
           id="g282"><path
             id="path284"
             style="fill:#050606;fill-opacity:1;fill-rule:nonzero;stroke:none"
             d="m 0,0 c 2.559,-1.048 6.077,1.901 8.742,5.828 2.986,4.406 17.52,18.124 40.103,24.591 21.269,6.077 38.238,12.029 59.329,15.779 0,0 33.653,7.16 53.607,9.31 10.839,1.528 16.88,0.817 21.482,-3.802 2.861,-2.843 6.165,-9.88 -0.569,-21.091 C 170.15,9.701 156.45,-3.43 135.537,-10.128 128.892,-23.579 112.154,-41.827 93.408,-51.457 78.572,-62.989 51.884,-71.962 45.238,-74.272 c -6.201,-2.15 -19.385,-3.038 -19.26,-7.054 0.106,-3.909 8.742,-4.069 12.189,-3.625 3.447,0.427 26.19,2.293 61.673,26.316 31.735,21.481 29.549,25.941 41.472,41.915 34.47,12.917 57.711,44.883 53.731,63.877 -0.391,1.883 -1.688,7.747 -6.592,12.153 -7.551,6.841 -18.71,5.722 -24.325,5.082 C 153.91,63.219 68.035,52.985 19.634,27.878 c 0,0 -4.46,-3.109 -9.79,-8.6 L 9.791,19.225 C 7.854,17.217 5.792,14.89 3.803,12.296 3.021,11.283 2.346,10.323 1.759,9.417 1.759,9.399 1.742,9.381 1.742,9.364 -1.634,4.122 -1.848,0.764 0,0" /></g><g
           transform="translate(5061.0835,647.7997)"
           id="g286"><path
             id="path288"
             style="fill:#050606;fill-opacity:1;fill-rule:nonzero;stroke:none"
             d="m 0,0 c 11.167,-8.298 62.34,-22.27 71.994,-17.531 3.08,5.034 10.877,14.819 12.813,16.827 0,0 -0.659,1.077 0.158,7.314 1.688,12.9 4.336,18.426 7.765,25.462 5.49,11.283 3.643,11.443 19.634,35.501 15.583,23.436 23.454,35.394 27.381,46.393 3.038,8.529 7.232,23.401 5.313,41.436 -1.12,10.679 -2.648,20.167 -11.123,25.764 -6.699,4.442 -12.776,5.49 -19.297,1.137 -10.199,-6.805 -12.296,-28.749 -13.166,-43.621 C 99.819,110.928 87.346,90.37 71.799,74.556 53.035,55.437 27.645,38.202 19.773,28.749 10.587,20.807 5.245,10.898 0,0" /></g><g
           transform="translate(5140.043,636.0372)"
           id="g290"><path
             id="path292"
             style="fill:#050606;fill-opacity:1;fill-rule:nonzero;stroke:none"
             d="M 0,0 5.988,6.93 C 4.051,4.922 1.99,2.594 0,0" /></g><g
           transform="translate(5031.4961,660.3442)"
           id="g294"><path
             id="path296"
             style="fill:#050606;fill-opacity:1;fill-rule:nonzero;stroke:none"
             d="m 0,0 c 0,-2.92 0.045,-3.364 0,-7.889 0,-0.013 25.237,-4.655 25.237,-4.655 0,0 2.15,3.18 2.843,4.317 0.391,0.658 0.868,2.202 1.507,3.162 0,0 -4.054,4.07 -29.587,5.065" /></g><g
           transform="translate(5185.8403,717.812)"
           id="g298"><path
             id="path300"
             style="fill:#050606;fill-opacity:1;fill-rule:nonzero;stroke:none"
             d="m 0,0 c 16.593,20.014 29.589,51.523 29.931,56.375 2.772,0.942 6.361,2.204 10.146,3.643 6.734,2.558 26.048,8.262 49.804,28.802 19.119,16.507 29.957,32.889 39.161,46.766 7.072,10.625 10.27,17.431 13.309,25.657 5.525,14.961 5.561,28.127 6.858,38.22 2.079,16.347 2.062,27.043 5.704,35.874 2.736,6.627 6.858,8.493 9.115,9.381 5.917,2.31 12.242,0.445 16.631,-4.264 11.088,-17.36 1.581,-70.202 -0.658,-79.388 C 174.867,139.975 158.377,103.639 119.039,62.843 70.709,12.737 48.872,4.101 29.042,-12.317 14.597,-24.292 -6.707,-48.564 -12.357,-54.374 c -8.926,-2.342 -13.131,-5.599 -18.906,-8.294 0,0.035 3.554,24.106 31.263,62.668" /></g><g
           transform="translate(5291.4604,846.7961)"
           id="g302"><path
             id="path304"
             style="fill:#050606;fill-opacity:1;fill-rule:nonzero;stroke:none"
             d="m 0,0 c -20.279,-27.63 -55.715,-59.657 -55.715,-59.657 l 8.964,4.108 c 0,0 22.448,11.072 51.392,47.371 26.932,33.776 30.994,58.405 30.994,58.405 l 1.474,8.031 C 37.109,58.258 25.947,35.353 0,0" /></g><g
           transform="translate(5352.7974,835.253)"
           id="g306"><path
             id="path308"
             style="fill:#050606;fill-opacity:1;fill-rule:nonzero;stroke:none"
             d="m 0,0 c 0.941,0.497 28.167,14.946 55.246,84.296 16.4,42.022 19.1,85.163 42.839,117.111 6.254,8.422 20.949,22.104 31.503,37.847 10.839,16.151 20.558,40.494 16.542,71.286 -4.193,31.93 -13.006,46.588 -23.382,46.855 -10.608,0.284 -18.267,-10.732 -20.541,-21.766 -2.221,-10.697 -10.483,-44.99 -12.936,-51.315 -8.315,-21.553 -17.11,-17.697 -24.715,-4.566 -4.034,6.947 -15.21,27.256 -26.795,47.903 -18.638,33.209 -30.259,30.988 -37.633,26.155 -9.861,-6.503 -5.757,-22.921 0.231,-36.407 16.507,-37.136 19.634,-39.837 25.87,-58.956 9.436,-28.891 4.603,-55.632 2.684,-73.099 -1.706,-15.583 -15.962,-51.202 -15.962,-51.202 0,0 3.705,-2.864 5.18,-5.082 C 36.085,102.052 20.449,32.874 8.248,12.381 Z" /></g><g
           transform="translate(5118.312,530.7064)"
           id="g310"><path
             id="path312"
             style="fill:#050606;fill-opacity:1;fill-rule:nonzero;stroke:none"
             d="m 0,0 c 0,0.462 15.992,5.917 17.751,7.107 6.716,4.549 8.955,10.839 9.577,10.43 C 28.021,17.076 27.381,10.252 21.802,5.331 13.877,-1.671 0.267,-0.995 0,0 M 9.648,19.367 C 8.973,18.07 8.458,16.898 7.001,16.72 3.305,16.293 2.772,16.738 4.354,19.367 c 0.746,1.262 1.226,2.292 2.647,2.666 3.163,0.782 4.122,0.177 2.647,-2.666 m -46.393,-80.703 c 1.901,-0.462 5.064,5.455 5.775,12.882 2.292,11.212 5.579,25.426 14.89,34.808 6.343,6.379 12.029,5.312 14.374,5.917 8.618,2.238 9.311,0.426 19.386,3.429 3.465,1.03 8.386,3.589 12.491,9.631 3.447,5.099 4.815,11.158 4.815,11.158 0.338,7.854 4.495,4.46 7.356,4.051 0.658,-0.089 3.074,0.427 3.572,1.653 0.657,1.563 -0.693,3.962 -1.049,4.424 C 40.53,32.374 22.282,37.953 5.331,30.419 -2.398,26.99 -7.018,22.104 -10.643,18.266 c -1.972,-2.097 -6.734,-7.409 -17.484,-31.699 -7.285,-16.418 -7.338,-18.408 -10.466,-33.457 -0.675,-3.27 -3.607,-13.114 1.848,-14.446" /></g><g
           transform="translate(5174.7148,560.1426)"
           id="g314"><path
             id="path316"
             style="fill:#050606;fill-opacity:1;fill-rule:nonzero;stroke:none"
             d="m 0,0 c 11.74,-4.436 40.171,13.426 48.751,20.096 l 0.743,0.576 0.836,0.431 c 16.978,8.721 32.096,25.484 37.702,36.831 l 1.891,3.827 4.066,1.304 c 17.408,5.575 29.458,16.102 41.595,36.336 0.355,0.59 0.597,1.303 0.864,1.831 -1.652,1.744 -8.067,3.147 -12.318,3.939 -7.701,1.436 -16.359,0.835 -25.134,-1.543 C 88.342,100.741 84.967,96.679 77.489,93.131 62.28,95.919 43.113,89.947 33.383,86.794 14.877,80.795 6.984,75.532 -6.351,65.501 -21.517,54.093 -24.92,46.748 -26.693,43.068 c -2.245,-4.661 -10.034,-3.32 -14.627,-4.16 -4.656,-0.852 -7.444,-2.004 -9.327,-3.445 -2.567,-1.963 -2.313,-3.465 -2.281,-3.802 0.178,-1.875 3.038,-5.559 5.901,-4.772 3.534,0.972 25.468,-0.118 33.589,-9.054 C -7.801,11.632 -7.841,2.963 0,0" /></g><g
           transform="translate(5031.4961,421.0759)"
           id="g318"><path
             id="path320"
             style="fill:#050606;fill-opacity:1;fill-rule:nonzero;stroke:none"
             d="m 0,0 v -32.125 c 0,0 28.198,1.546 49.751,-14.819 1.102,0.515 4.087,3.269 6.024,6.041 -3.501,5.26 -8.156,5.846 -12.456,7.285 -5.472,1.848 -9.328,4.016 -12.669,10.536 -3.304,6.468 4.105,14.997 11.461,17.094 6.894,1.972 12.029,-0.675 16.542,-2.239 C 58.511,-6.219 52.328,0 48.418,2.292 44.226,4.744 40.139,5.331 37.385,5.704 35.963,5.899 32.96,6.29 29.211,5.899 22.814,5.242 21.464,3.056 13.628,0.764 7.711,-0.96 0,0 0,0" /></g><g
           transform="translate(5031.4961,421.0759)"
           id="g322"><path
             id="path324"
             style="fill:none;stroke:#050606;stroke-width:0.5;stroke-linecap:butt;stroke-linejoin:miter;stroke-miterlimit:10;stroke-dasharray:none;stroke-opacity:1"
             d="m 0,0 v -32.125 c 0,0 28.198,1.546 49.751,-14.819 1.102,0.515 4.087,3.269 6.024,6.041 -3.501,5.26 -8.156,5.846 -12.456,7.285 -5.472,1.848 -9.328,4.016 -12.669,10.536 -3.304,6.468 4.105,14.997 11.461,17.094 6.894,1.972 12.029,-0.675 16.542,-2.239 C 58.511,-6.219 52.328,0 48.418,2.292 44.226,4.744 40.139,5.331 37.385,5.704 35.963,5.899 32.96,6.29 29.211,5.899 22.814,5.242 21.464,3.056 13.628,0.764 7.711,-0.96 0,0 0,0 Z" /></g></g></g></g></svg>